{
.appVersion = "1218";
DisplayStrings = (
"awhn h/l.ss01/l.ss01/Placeholder/l.ss01/l.ss01  o/Placeholder o\012nnnn/Placeholder/Placeholder/Placeholder/Placeholder nnnn\012oooo/Placeholder/Placeholder/Placeholder/Placeholder oooo\012/l.ss01/l.ss01/l.ss01/l.ss01/l.ss01/l.ss01/Placeholder/Placeholder/Placeholder/Placeholder/l.ss01/l.ss01/l.ss01/l.ss01/l.ss01/l.ss01/l.ss01",
"/f.ss01 n/Placeholder"
);
classes = (
{
automatic = 1;
code = "A AE B C D Eth E F G H I J K L Lslash M N O Oslash OE P Thorn Q R S T U V W X Y Z Aacute Acircumflex Adieresis Agrave Aring Atilde Ccedilla Eacute Ecircumflex Edieresis Egrave Iacute Icircumflex Idieresis Igrave Ntilde Oacute Ocircumflex Odieresis Ograve Otilde Scaron Uacute Ucircumflex Udieresis Ugrave Yacute Ydieresis Zcaron Delta Omega";
name = Uppercase;
}
);
copyright = "Copyright (c) 2013 by Jacques Le Bailly. All rights reserved.";
customParameters = (
{
name = description;
value = "Copyright (c) 2013 by Jacques Le Bailly. All rights reserved.";
},
{
name = vendorID;
value = bvf;
},
{
name = unicodeRanges;
value = (
0
);
},
{
name = codePageRanges;
value = (
1252
);
},
{
name = glyphOrder;
value = (
A,
Aogonek,
AE,
B,
C,
D,
Eth,
E,
Eogonek,
F,
G,
H,
Hbar,
I,
Iogonek,
I_J.loclNLD,
J,
K,
L,
Lcaron,
Ldot,
Lslash,
M,
N,
Eng,
O,
Oslash,
Ohorn,
Oogonek,
OE,
P,
Thorn,
Q,
R,
S,
Germandbls,
Schwa,
T,
Tbar,
U,
Uogonek,
Uhorn,
V,
W,
X,
Y,
Z,
a,
aogonek,
ae,
b,
c,
d,
dcaron,
dcroat,
eth,
e,
eogonek,
f,
g,
h,
hbar,
i,
idotless,
iogonek,
i_j.loclNLD,
j,
jdotless,
k,
kgreenlandic,
l,
ldot,
lcaron,
lslash,
m,
n,
eng,
o,
oogonek,
oslash,
ohorn,
oe,
p,
thorn,
q,
r,
s,
germandbls,
schwa,
t,
tbar,
tcaron,
u,
uogonek,
uhorn,
v,
w,
x,
y,
z
);
}
);
date = "2019-03-03 23:14:23 +0000";
disablesNiceNames = 1;
familyName = "LV UpItalic";
featurePrefixes = (
{
automatic = 1;
code = "languagesystem DFLT dflt;\012";
name = Languagesystems;
}
);
features = (
{
automatic = 1;

glyphs = (
{
color = 4;
glyphname = A;
lastChange = "2019-03-12 13:09:29 +0000";
layers = (
{
background = {
paths = (
{
closed = 1;
nodes = (
"105 0 LINE",
"367 644 LINE",
"335 644 LINE",
"586 0 LINE",
"671 0 LINE",
"387 710 LINE",
"316 710 LINE",
"20 0 LINE"
);
},
{
closed = 1;
nodes = (
"549 188 LINE",
"531 257 LINE",
"166 257 LINE",
"150 188 LINE"
);
}
);
};
layerId = "A3B50665-EA37-4AC6-885C-1233CA61B6BD";
paths = (
{
closed = 1;
nodes = (
"109 0 LINE",
"370 644 LINE",
"342 644 LINE",
"592 0 LINE",
"676 0 LINE",
"392 710 LINE",
"321 710 LINE",
"25 0 LINE"
);
},
{
closed = 1;
nodes = (
"554 188 LINE",
"536 257 LINE",
"171 257 LINE",
"155 188 LINE"
);
}
);
width = 705;
},
{
background = {
paths = (
{
closed = 1;
nodes = (
"958 0 LINE",
"1201 589 LINE",
"1145 591 LINE",
"1383 0 LINE",
"1540 0 LINE",
"1240 710 LINE",
"1109 710 LINE",
"799 0 LINE"
);
},
{
closed = 1;
nodes = (
"1391 149 LINE",
"1329 279 LINE",
"1020 279 LINE",
"958 149 LINE"
);
},
{
closed = 1;
nodes = (
"162 0 LINE",
"397 589 LINE",
"341 591 LINE",
"579 0 LINE",
"736 0 LINE",
"435 710 LINE",
"304 710 LINE",
"3 0 LINE"
);
},
{
closed = 1;
nodes = (
"587 149 LINE",
"525 279 LINE",
"224 279 LINE",
"162 149 LINE"
);
}
);
};
layerId = "014D4A40-7C7F-4023-B30E-1F55CE5EA091";
paths = (
{
closed = 1;
nodes = (
"159 0 LINE",
"399 589 LINE",
"343 591 LINE",
"576 0 LINE",
"733 0 LINE",
"438 710 LINE",
"307 710 LINE",
"0 0 LINE"
);
},
{
closed = 1;
nodes = (
"585 149 LINE",
"524 279 LINE",
"223 279 LINE",
"160 149 LINE"
);
}
);
width = 737;
}
);
unicode = 0041;
},
{
color = 3;
glyphname = B;
lastChange = "2019-03-12 13:09:29 +0000";
layers = (
{
anchors = (
{
name = bottom;
position = "{347, 0}";
},
{
name = top;
position = "{346, 712}";
}
);
background = {
paths = (
{
closed = 1;
nodes = (
"315 0 LINE SMOOTH",
"489 0 OFFCURVE",
"577 69 OFFCURVE",
"577 196 CURVE SMOOTH",
"577 281 OFFCURVE",
"522 346 OFFCURVE",
"436 365 CURVE",
"427 353 LINE",
"519 374 OFFCURVE",
"573 439 OFFCURVE",
"573 521 CURVE SMOOTH",
"573 643 OFFCURVE",
"477 710 OFFCURVE",
"290 710 CURVE SMOOTH",
"89 710 LINE",
"89 0 LINE"
);
},
{
closed = 1;
nodes = (
"172 641 LINE",
"276 641 LINE SMOOTH",
"430 641 OFFCURVE",
"492 606 OFFCURVE",
"492 520 CURVE SMOOTH",
"492 432 OFFCURVE",
"429 393 OFFCURVE",
"296 393 CURVE SMOOTH",
"156 393 LINE",
"156 322 LINE",
"319 322 LINE SMOOTH",
"439 322 OFFCURVE",
"496 281 OFFCURVE",
"496 196 CURVE SMOOTH",
"496 107 OFFCURVE",
"444 70 OFFCURVE",
"309 70 CURVE SMOOTH",
"172 70 LINE"
);
}
);
};
layerId = "A3B50665-EA37-4AC6-885C-1233CA61B6BD";
paths = (
{
closed = 1;
nodes = (
"315 0 LINE SMOOTH",
"489 0 OFFCURVE",
"577 69 OFFCURVE",
"577 196 CURVE SMOOTH",
"577 281 OFFCURVE",
"522 346 OFFCURVE",
"436 365 CURVE",
"427 353 LINE",
"519 374 OFFCURVE",
"573 439 OFFCURVE",
"573 521 CURVE SMOOTH",
"573 643 OFFCURVE",
"477 710 OFFCURVE",
"290 710 CURVE SMOOTH",
"94 710 LINE",
"94 0 LINE"
);
},
{
closed = 1;
nodes = (
"175 641 LINE",
"276 641 LINE SMOOTH",
"430 641 OFFCURVE",
"492 606 OFFCURVE",
"492 520 CURVE SMOOTH",
"492 432 OFFCURVE",
"429 393 OFFCURVE",
"296 393 CURVE SMOOTH",
"161 393 LINE",
"161 322 LINE",
"319 322 LINE SMOOTH",
"439 322 OFFCURVE",
"496 281 OFFCURVE",
"496 196 CURVE SMOOTH",
"496 107 OFFCURVE",
"444 70 OFFCURVE",
"309 70 CURVE SMOOTH",
"175 70 LINE"
);
}
);
width = 639;
},
{
anchors = (
{
name = bottom;
position = "{358, 0}";
},
{
name = top;
position = "{358, 712}";
}
);
background = {
paths = (
{
closed = 1;
nodes = (
"388 0 LINE SMOOTH",
"536 0 OFFCURVE",
"637 84 OFFCURVE",
"637 207 CURVE SMOOTH",
"637 290 OFFCURVE",
"596 345 OFFCURVE",
"518 368 CURVE",
"508 351 LINE",
"584 377 OFFCURVE",
"628 437 OFFCURVE",
"628 513 CURVE SMOOTH",
"628 643 OFFCURVE",
"520 710 OFFCURVE",
"312 710 CURVE SMOOTH",
"76 710 LINE",
"76 0 LINE"
);
},
{
closed = 1;
nodes = (
"232 588 LINE",
"324 588 LINE SMOOTH",
"426 588 OFFCURVE",
"473 561 OFFCURVE",
"473 502 CURVE SMOOTH",
"473 446 OFFCURVE",
"431 420 OFFCURVE",
"342 420 CURVE SMOOTH",
"216 420 LINE",
"216 295 LINE",
"365 295 LINE SMOOTH",
"446 295 OFFCURVE",
"482 268 OFFCURVE",
"482 208 CURVE SMOOTH",
"482 153 OFFCURVE",
"440 123 OFFCURVE",
"365 123 CURVE SMOOTH",
"232 123 LINE"
);
}
);
};
layerId = "014D4A40-7C7F-4023-B30E-1F55CE5EA091";
paths = (
{
closed = 1;
nodes = (
"378 0 LINE SMOOTH",
"526 0 OFFCURVE",
"627 84 OFFCURVE",
"627 207 CURVE SMOOTH",
"627 290 OFFCURVE",
"586 345 OFFCURVE",
"508 368 CURVE",
"498 351 LINE",
"574 377 OFFCURVE",
"618 437 OFFCURVE",
"618 513 CURVE SMOOTH",
"618 643 OFFCURVE",
"510 710 OFFCURVE",
"302 710 CURVE SMOOTH",
"76 710 LINE",
"76 0 LINE"
);
},
{
closed = 1;
nodes = (
"229 588 LINE",
"314 588 LINE SMOOTH",
"416 588 OFFCURVE",
"463 561 OFFCURVE",
"463 502 CURVE SMOOTH",
"463 446 OFFCURVE",
"421 420 OFFCURVE",
"332 420 CURVE SMOOTH",
"213 420 LINE",
"213 295 LINE",
"355 295 LINE SMOOTH",
"436 295 OFFCURVE",
"472 268 OFFCURVE",
"472 208 CURVE SMOOTH",
"472 153 OFFCURVE",
"430 123 OFFCURVE",
"355 123 CURVE SMOOTH",
"229 123 LINE"
);
}
);
width = 670;
}
);
unicode = 0042;
},
{
color = 3;
glyphname = C;
lastChange = "2019-03-12 13:09:29 +0000";
layers = (
{
background = {
paths = (
{
closed = 1;
nodes = (
"1389 184 LINE",
"1348 108 OFFCURVE",
"1278 68 OFFCURVE",
"1186 68 CURVE SMOOTH",
"1032 68 OFFCURVE",
"942 169 OFFCURVE",
"942 342 CURVE SMOOTH",
"942 521 OFFCURVE",
"1048 645 OFFCURVE",
"1201 645 CURVE SMOOTH",
"1286 645 OFFCURVE",
"1349 609 OFFCURVE",
"1389 537 CURVE",
"1453 585 LINE",
"1401 674 OFFCURVE",
"1316 720 OFFCURVE",
"1205 720 CURVE SMOOTH",
"1000 720 OFFCURVE",
"859 566 OFFCURVE",
"859 342 CURVE SMOOTH",
"859 124 OFFCURVE",
"983 -8 OFFCURVE",
"1186 -8 CURVE SMOOTH",
"1304 -8 OFFCURVE",
"1400 43 OFFCURVE",
"1452 136 CURVE"
);
},
{
closed = 1;
nodes = (
"573 -8 OFFCURVE",
"712 139 OFFCURVE",
"712 369 CURVE SMOOTH",
"712 580 OFFCURVE",
"587 720 OFFCURVE",
"400 720 CURVE SMOOTH",
"199 720 OFFCURVE",
"59 564 OFFCURVE",
"59 342 CURVE SMOOTH",
"59 120 OFFCURVE",
"182 -8 OFFCURVE",
"382 -8 CURVE SMOOTH"
);
},
{
closed = 1;
nodes = (
"233 68 OFFCURVE",
"142 166 OFFCURVE",
"142 342 CURVE SMOOTH",
"142 524 OFFCURVE",
"250 645 OFFCURVE",
"401 645 CURVE SMOOTH",
"541 645 OFFCURVE",
"630 538 OFFCURVE",
"630 371 CURVE SMOOTH",
"630 179 OFFCURVE",
"528 68 OFFCURVE",
"382 68 CURVE SMOOTH"
);
}
);
};
guideLines = (
{
angle = 90;
position = "{746, 356}";
},
{
angle = 90;
position = "{809, 356}";
}
);
layerId = "A3B50665-EA37-4AC6-885C-1233CA61B6BD";
paths = (
{
closed = 1;
nodes = (
"594 184 LINE",
"553 108 OFFCURVE",
"483 70 OFFCURVE",
"391 70 CURVE SMOOTH",
"239 70 OFFCURVE",
"149 169 OFFCURVE",
"149 342 CURVE SMOOTH",
"149 521 OFFCURVE",
"255 643 OFFCURVE",
"406 643 CURVE SMOOTH",
"491 643 OFFCURVE",
"554 609 OFFCURVE",
"594 537 CURVE",
"658 585 LINE",
"606 674 OFFCURVE",
"521 720 OFFCURVE",
"410 720 CURVE SMOOTH",
"205 720 OFFCURVE",
"64 566 OFFCURVE",
"64 342 CURVE SMOOTH",
"64 124 OFFCURVE",
"188 -8 OFFCURVE",
"391 -8 CURVE SMOOTH",
"509 -8 OFFCURVE",
"605 43 OFFCURVE",
"657 136 CURVE"
);
}
);
width = 683;
},
{
background = {
paths = (
{
closed = 1;
nodes = (
"598 -8 OFFCURVE",
"744 139 OFFCURVE",
"744 369 CURVE SMOOTH",
"744 580 OFFCURVE",
"610 720 OFFCURVE",
"408 720 CURVE SMOOTH",
"180 720 OFFCURVE",
"39 564 OFFCURVE",
"39 342 CURVE SMOOTH",
"39 120 OFFCURVE",
"172 -12 OFFCURVE",
"395 -10 CURVE SMOOTH"
);
},
{
closed = 1;
nodes = (
"270 129 OFFCURVE",
"198 207 OFFCURVE",
"198 345 CURVE SMOOTH",
"198 486 OFFCURVE",
"284 582 OFFCURVE",
"404 582 CURVE SMOOTH",
"515 582 OFFCURVE",
"586 497 OFFCURVE",
"586 368 CURVE SMOOTH",
"586 217 OFFCURVE",
"505 129 OFFCURVE",
"389 129 CURVE SMOOTH"
);
},
{
closed = 1;
nodes = (
"574 231 LINE",
"536 163 OFFCURVE",
"469 129 OFFCURVE",
"402 129 CURVE SMOOTH",
"274 129 OFFCURVE",
"198 208 OFFCURVE",
"198 344 CURVE SMOOTH",
"198 484 OFFCURVE",
"287 582 OFFCURVE",
"414 582 CURVE SMOOTH",
"477 582 OFFCURVE",
"538 552 OFFCURVE",
"572 489 CURVE",
"689 576 LINE",
"627 673 OFFCURVE",
"541 720 OFFCURVE",
"415 720 CURVE SMOOTH",
"192 720 OFFCURVE",
"39 566 OFFCURVE",
"39 341 CURVE SMOOTH",
"39 122 OFFCURVE",
"173 -10 OFFCURVE",
"400 -10 CURVE SMOOTH",
"523 -10 OFFCURVE",
"630 43 OFFCURVE",
"688 139 CURVE"
);
}
);
};
layerId = "014D4A40-7C7F-4023-B30E-1F55CE5EA091";
paths = (
{
closed = 1;
nodes = (
"574 231 LINE",
"536 163 OFFCURVE",
"469 132 OFFCURVE",
"402 132 CURVE SMOOTH",
"276 132 OFFCURVE",
"201 208 OFFCURVE",
"201 344 CURVE SMOOTH",
"201 484 OFFCURVE",
"289 579 OFFCURVE",
"414 579 CURVE SMOOTH",
"477 579 OFFCURVE",
"538 552 OFFCURVE",
"572 489 CURVE",
"689 576 LINE",
"627 673 OFFCURVE",
"541 720 OFFCURVE",
"415 720 CURVE SMOOTH",
"192 720 OFFCURVE",
"39 566 OFFCURVE",
"39 341 CURVE SMOOTH",
"39 122 OFFCURVE",
"173 -10 OFFCURVE",
"400 -10 CURVE SMOOTH",
"523 -10 OFFCURVE",
"630 43 OFFCURVE",
"688 139 CURVE"
);
}
);
width = 704;
}
);
unicode = 0043;
},
{
color = 4;
glyphname = D;
lastChange = "2019-03-12 13:09:29 +0000";
layers = (
{
background = {
paths = (
{
closed = 1;
nodes = (
"1546 0 LINE SMOOTH",
"1778 0 OFFCURVE",
"1927 135 OFFCURVE",
"1927 359 CURVE SMOOTH",
"1927 585 OFFCURVE",
"1782 710 OFFCURVE",
"1522 710 CURVE SMOOTH",
"1289 710 LINE",
"1289 0 LINE"
);
},
{
closed = 1;
nodes = (
"1372 635 LINE",
"1525 635 LINE SMOOTH",
"1747 635 OFFCURVE",
"1844 537 OFFCURVE",
"1844 354 CURVE SMOOTH",
"1844 176 OFFCURVE",
"1744 75 OFFCURVE",
"1547 75 CURVE SMOOTH",
"1372 75 LINE"
);
},
{
closed = 1;
nodes = (
"647 0 LINE",
"647 710 LINE",
"564 710 LINE",
"564 0 LINE"
);
},
{
closed = 1;
nodes = (
"172 0 LINE",
"172 710 LINE",
"89 710 LINE",
"89 0 LINE"
);
},
{
closed = 1;
nodes = (
"613 325 LINE",
"613 395 LINE",
"132 395 LINE",
"132 325 LINE"
);
}
);
};
layerId = "A3B50665-EA37-4AC6-885C-1233CA61B6BD";
paths = (
{
closed = 1;
nodes = (
"306 0 LINE SMOOTH",
"545 0 OFFCURVE",
"690 136 OFFCURVE",
"690 359 CURVE SMOOTH",
"690 591 OFFCURVE",
"553 710 OFFCURVE",
"287 710 CURVE SMOOTH",
"94 710 LINE",
"94 0 LINE"
);
},
{
closed = 1;
nodes = (
"177 635 LINE",
"290 635 LINE SMOOTH",
"504 635 OFFCURVE",
"606 544 OFFCURVE",
"606 354 CURVE SMOOTH",
"606 170 OFFCURVE",
"503 76 OFFCURVE",
"302 76 CURVE SMOOTH",
"177 76 LINE"
);
}
);
width = 754;
},
{
background = {
paths = (
{
closed = 1;
nodes = (
"1251 0 LINE SMOOTH",
"1510 0 OFFCURVE",
"1645 171 OFFCURVE",
"1645 359 CURVE SMOOTH",
"1645 580 OFFCURVE",
"1500 710 OFFCURVE",
"1216 710 CURVE SMOOTH",
"976 710 LINE",
"976 0 LINE"
);
},
{
closed = 1;
nodes = (
"1132 573 LINE",
"1236 573 LINE SMOOTH",
"1413 573 OFFCURVE",
"1486 496 OFFCURVE",
"1486 354 CURVE SMOOTH",
"1486 221 OFFCURVE",
"1404 139 OFFCURVE",
"1262 139 CURVE SMOOTH",
"1132 139 LINE"
);
},
{
closed = 1;
nodes = (
"694 0 LINE",
"694 710 LINE",
"538 710 LINE",
"538 0 LINE"
);
},
{
closed = 1;
nodes = (
"232 0 LINE",
"232 710 LINE",
"76 710 LINE",
"76 0 LINE"
);
},
{
closed = 1;
nodes = (
"634 290 LINE",
"634 426 LINE",
"124 426 LINE",
"124 290 LINE"
);
}
);
};
layerId = "014D4A40-7C7F-4023-B30E-1F55CE5EA091";
paths = (
{
closed = 1;
nodes = (
"345 0 LINE SMOOTH",
"581 0 OFFCURVE",
"728 146 OFFCURVE",
"728 357 CURVE SMOOTH",
"728 589 OFFCURVE",
"582 710 OFFCURVE",
"302 710 CURVE SMOOTH",
"76 710 LINE",
"76 0 LINE"
);
},
{
closed = 1;
nodes = (
"232 573 LINE",
"322 573 LINE SMOOTH",
"484 573 OFFCURVE",
"567 503 OFFCURVE",
"567 352 CURVE SMOOTH",
"567 210 OFFCURVE",
"485 139 OFFCURVE",
"338 139 CURVE SMOOTH",
"232 139 LINE"
);
}
);
width = 767;
}
);
unicode = 0044;
},
{
color = 3;
glyphname = E;
lastChange = "2019-03-12 13:09:29 +0000";
layers = (
{
background = {
paths = (
{
closed = 1;
nodes = (
"505 710 LINE",
"89 710 LINE",
"89 0 LINE",
"512 0 LINE",
"522 72 LINE",
"172 72 LINE",
"172 325 LINE",
"495 325 LINE",
"495 395 LINE",
"172 395 LINE",
"172 638 LINE",
"505 638 LINE"
);
}
);
};
layerId = "A3B50665-EA37-4AC6-885C-1233CA61B6BD";
paths = (
{
closed = 1;
nodes = (
"510 710 LINE",
"94 710 LINE",
"94 0 LINE",
"517 0 LINE",
"527 71 LINE",
"175 71 LINE",
"175 325 LINE",
"500 325 LINE",
"500 395 LINE",
"175 395 LINE",
"175 640 LINE",
"510 640 LINE"
);
}
);
width = 566;
},
{
background = {
paths = (
{
closed = 1;
nodes = (
"556 710 LINE",
"76 710 LINE",
"76 0 LINE",
"556 0 LINE",
"566 140 LINE",
"232 140 LINE",
"232 290 LINE",
"536 290 LINE",
"536 426 LINE",
"232 426 LINE",
"232 570 LINE",
"556 570 LINE"
);
}
);
};
layerId = "014D4A40-7C7F-4023-B30E-1F55CE5EA091";
paths = (
{
closed = 1;
nodes = (
"556 710 LINE",
"76 710 LINE",
"76 0 LINE",
"556 0 LINE",
"566 138 LINE",
"230 138 LINE",
"230 290 LINE",
"536 290 LINE",
"536 426 LINE",
"230 426 LINE",
"230 574 LINE",
"556 574 LINE"
);
}
);
width = 607;
}
);
unicode = 0045;
},
{
color = 3;
glyphname = F;
lastChange = "2019-03-12 13:09:29 +0000";
layers = (
{
background = {
paths = (
{
closed = 1;
nodes = (
"485 710 LINE",
"89 710 LINE",
"89 0 LINE",
"172 0 LINE",
"172 315 LINE",
"475 315 LINE",
"475 385 LINE",
"172 385 LINE",
"172 638 LINE",
"485 638 LINE"
);
}
);
};
layerId = "A3B50665-EA37-4AC6-885C-1233CA61B6BD";
paths = (
{
closed = 1;
nodes = (
"490 710 LINE",
"94 710 LINE",
"94 0 LINE",
"175 0 LINE",
"175 315 LINE",
"480 315 LINE",
"480 385 LINE",
"175 385 LINE",
"175 640 LINE",
"490 640 LINE"
);
}
);
width = 523;
},
{
background = {
paths = (
{
closed = 1;
nodes = (
"533 710 LINE",
"76 710 LINE",
"76 0 LINE",
"232 0 LINE",
"232 280 LINE",
"513 280 LINE",
"513 416 LINE",
"232 416 LINE",
"232 570 LINE",
"533 570 LINE"
);
}
);
};
layerId = "014D4A40-7C7F-4023-B30E-1F55CE5EA091";
paths = (
{
closed = 1;
nodes = (
"533 710 LINE",
"76 710 LINE",
"76 0 LINE",
"230 0 LINE",
"230 280 LINE",
"513 280 LINE",
"513 416 LINE",
"230 416 LINE",
"230 574 LINE",
"533 574 LINE"
);
}
);
width = 573;
}
);
unicode = 0046;
},
{
color = 3;
glyphname = G;
lastChange = "2019-03-12 13:09:29 +0000";
layers = (
{
background = {
paths = (
{
closed = 1;
nodes = (
"420 279 LINE",
"637 279 LINE",
"593 324 LINE",
"591 248 LINE SMOOTH",
"588 136 OFFCURVE",
"509 69 OFFCURVE",
"382 69 CURVE SMOOTH",
"235 69 OFFCURVE",
"143 166 OFFCURVE",
"143 342 CURVE SMOOTH",
"143 519 OFFCURVE",
"254 643 OFFCURVE",
"409 643 CURVE SMOOTH",
"498 643 OFFCURVE",
"562 608 OFFCURVE",
"601 537 CURVE",
"665 585 LINE",
"613 674 OFFCURVE",
"527 720 OFFCURVE",
"413 720 CURVE SMOOTH",
"205 720 OFFCURVE",
"59 566 OFFCURVE",
"59 342 CURVE SMOOTH",
"59 123 OFFCURVE",
"177 -8 OFFCURVE",
"376 -8 CURVE SMOOTH",
"489 -8 OFFCURVE",
"566 32 OFFCURVE",
"616 117 CURVE",
"594 107 LINE",
"606 0 LINE",
"671 0 LINE",
"671 347 LINE",
"420 347 LINE"
);
}
);
};
guideLines = (
{
angle = 90;
position = "{746, 356}";
},
{
angle = 90;
position = "{809, 356}";
}
);
layerId = "A3B50665-EA37-4AC6-885C-1233CA61B6BD";
paths = (
{
closed = 1;
nodes = (
"425 279 LINE",
"642 279 LINE",
"599 324 LINE",
"597 248 LINE SMOOTH",
"594 136 OFFCURVE",
"514 68 OFFCURVE",
"387 68 CURVE SMOOTH",
"240 68 OFFCURVE",
"148 166 OFFCURVE",
"148 342 CURVE SMOOTH",
"148 519 OFFCURVE",
"259 643 OFFCURVE",
"414 643 CURVE SMOOTH",
"503 643 OFFCURVE",
"567 608 OFFCURVE",
"606 537 CURVE",
"670 585 LINE",
"618 674 OFFCURVE",
"532 720 OFFCURVE",
"418 720 CURVE SMOOTH",
"211 720 OFFCURVE",
"64 566 OFFCURVE",
"64 342 CURVE SMOOTH",
"64 123 OFFCURVE",
"183 -8 OFFCURVE",
"381 -8 CURVE SMOOTH",
"494 -8 OFFCURVE",
"571 32 OFFCURVE",
"621 117 CURVE",
"599 107 LINE",
"611 0 LINE",
"676 0 LINE",
"676 347 LINE",
"425 347 LINE"
);
}
);
width = 781;
},
{
background = {
paths = (
{
closed = 1;
nodes = (
"578 264 LINE",
"578 173 OFFCURVE",
"489 132 OFFCURVE",
"407 132 CURVE SMOOTH",
"276 132 OFFCURVE",
"201 208 OFFCURVE",
"201 344 CURVE SMOOTH",
"201 484 OFFCURVE",
"292 579 OFFCURVE",
"421 579 CURVE SMOOTH",
"487 579 OFFCURVE",
"551 552 OFFCURVE",
"585 489 CURVE",
"702 576 LINE",
"640 673 OFFCURVE",
"551 720 OFFCURVE",
"422 720 CURVE SMOOTH",
"195 720 OFFCURVE",
"39 566 OFFCURVE",
"39 341 CURVE SMOOTH",
"39 122 OFFCURVE",
"173 -10 OFFCURVE",
"395 -10 CURVE SMOOTH",
"513 -10 OFFCURVE",
"620 43 OFFCURVE",
"678 139 CURVE"
);
},
{
closed = 1;
nodes = (
"464 426 LINE",
"464 290 LINE",
"578 290 LINE",
"578 0 LINE",
"734 0 LINE",
"734 426 LINE"
);
}
);
};
layerId = "014D4A40-7C7F-4023-B30E-1F55CE5EA091";
paths = (
{
closed = 1;
nodes = (
"421 256 LINE",
"610 256 LINE",
"568 335 LINE",
"565 264 LINE SMOOTH",
"561 173 OFFCURVE",
"476 131 OFFCURVE",
"400 131 CURVE SMOOTH",
"269 131 OFFCURVE",
"201 208 OFFCURVE",
"201 344 CURVE SMOOTH",
"201 487 OFFCURVE",
"292 579 OFFCURVE",
"431 579 CURVE SMOOTH",
"497 579 OFFCURVE",
"561 552 OFFCURVE",
"595 491 CURVE",
"712 578 LINE",
"650 673 OFFCURVE",
"561 720 OFFCURVE",
"432 720 CURVE SMOOTH",
"199 720 OFFCURVE",
"39 569 OFFCURVE",
"39 341 CURVE SMOOTH",
"39 122 OFFCURVE",
"164 -10 OFFCURVE",
"382 -10 CURVE SMOOTH",
"473 -10 OFFCURVE",
"558 24 OFFCURVE",
"599 95 CURVE",
"576 124 LINE",
"596 0 LINE",
"719 0 LINE",
"719 382 LINE",
"421 382 LINE"
);
}
);
width = 798;
}
);
unicode = 0047;
},
{
color = 4;
glyphname = H;
lastChange = "2019-03-12 13:09:29 +0000";
layers = (
{
background = {
paths = (
{
closed = 1;
nodes = (
"603 0 LINE",
"729 710 LINE",
"646 710 LINE",
"520 0 LINE"
);
},
{
closed = 1;
nodes = (
"128 0 LINE",
"254 710 LINE",
"171 710 LINE",
"45 0 LINE"
);
},
{
closed = 1;
nodes = (
"627 325 LINE",
"639 395 LINE",
"158 395 LINE",
"146 325 LINE"
);
}
);
};
layerId = "A3B50665-EA37-4AC6-885C-1233CA61B6BD";
paths = (
{
closed = 1;
nodes = (
"608 0 LINE",
"733 710 LINE",
"650 710 LINE",
"525 0 LINE"
);
},
{
closed = 1;
nodes = (
"133 0 LINE",
"258 710 LINE",
"175 710 LINE",
"50 0 LINE"
);
},
{
closed = 1;
nodes = (
"632 325 LINE",
"644 395 LINE",
"163 395 LINE",
"151 325 LINE"
);
}
);
width = 746;
},
{
background = {
paths = (
{
closed = 1;
nodes = (
"649 0 LINE",
"775 710 LINE",
"619 710 LINE",
"493 0 LINE"
);
},
{
closed = 1;
nodes = (
"187 0 LINE",
"313 710 LINE",
"157 710 LINE",
"31 0 LINE"
);
},
{
closed = 1;
nodes = (
"641 290 LINE",
"665 426 LINE",
"155 426 LINE",
"131 290 LINE"
);
}
);
};
layerId = "014D4A40-7C7F-4023-B30E-1F55CE5EA091";
paths = (
{
closed = 1;
nodes = (
"649 0 LINE",
"774 710 LINE",
"618 710 LINE",
"493 0 LINE"
);
},
{
closed = 1;
nodes = (
"187 0 LINE",
"312 710 LINE",
"156 710 LINE",
"31 0 LINE"
);
},
{
closed = 1;
nodes = (
"641 290 LINE",
"665 426 LINE",
"155 426 LINE",
"131 290 LINE"
);
}
);
width = 770;
}
);
unicode = 0048;
},
{
color = 4;
glyphname = I;
lastChange = "2019-03-12 13:09:29 +0000";
layers = (
{
background = {
paths = (
{
closed = 1;
nodes = (
"172 0 LINE",
"172 710 LINE",
"89 710 LINE",
"89 0 LINE"
);
}
);
};
layerId = "A3B50665-EA37-4AC6-885C-1233CA61B6BD";
paths = (
{
closed = 1;
nodes = (
"177 0 LINE",
"177 710 LINE",
"94 710 LINE",
"94 0 LINE"
);
}
);
width = 271;
},
{
background = {
paths = (
{
closed = 1;
nodes = (
"320 0 LINE",
"320 710 LINE",
"164 710 LINE",
"164 0 LINE"
);
}
);
};
layerId = "014D4A40-7C7F-4023-B30E-1F55CE5EA091";
paths = (
{
closed = 1;
nodes = (
"232 0 LINE",
"232 710 LINE",
"76 710 LINE",
"76 0 LINE"
);
}
);
width = 308;
}
);
unicode = 0049;
},
{
color = 3;
glyphname = J;
lastChange = "2019-03-12 13:09:29 +0000";
layers = (
{
background = {
paths = (
{
closed = 1;
nodes = (
"320 -8 OFFCURVE",
"383 68 OFFCURVE",
"383 199 CURVE SMOOTH",
"383 710 LINE",
"300 710 LINE",
"300 195 LINE SMOOTH",
"300 109 OFFCURVE",
"266 64 OFFCURVE",
"191 64 CURVE SMOOTH",
"125 64 OFFCURVE",
"84 94 OFFCURVE",
"61 159 CURVE",
"-7 130 LINE",
"17 45 OFFCURVE",
"92 -8 OFFCURVE",
"188 -8 CURVE SMOOTH"
);
}
);
};
layerId = "A3B50665-EA37-4AC6-885C-1233CA61B6BD";
paths = (
{
closed = 1;
nodes = (
"325 -8 OFFCURVE",
"388 68 OFFCURVE",
"388 199 CURVE SMOOTH",
"388 710 LINE",
"305 710 LINE",
"305 195 LINE SMOOTH",
"305 109 OFFCURVE",
"271 65 OFFCURVE",
"196 65 CURVE SMOOTH",
"128 65 OFFCURVE",
"87 94 OFFCURVE",
"66 159 CURVE",
"-2 129 LINE",
"20 45 OFFCURVE",
"95 -8 OFFCURVE",
"193 -8 CURVE SMOOTH"
);
}
);
width = 480;
},
{
background = {
paths = (
{
closed = 1;
nodes = (
"358 -10 OFFCURVE",
"440 81 OFFCURVE",
"440 238 CURVE SMOOTH",
"440 710 LINE",
"284 710 LINE",
"284 218 LINE SMOOTH",
"284 157 OFFCURVE",
"256 127 OFFCURVE",
"208 127 CURVE SMOOTH",
"162 127 OFFCURVE",
"134 152 OFFCURVE",
"115 202 CURVE",
"-12 145 LINE",
"19 44 OFFCURVE",
"101 -10 OFFCURVE",
"211 -10 CURVE SMOOTH"
);
}
);
};
layerId = "014D4A40-7C7F-4023-B30E-1F55CE5EA091";
paths = (
{
closed = 1;
nodes = (
"357 -10 OFFCURVE",
"440 81 OFFCURVE",
"440 238 CURVE SMOOTH",
"440 710 LINE",
"284 710 LINE",
"284 221 LINE SMOOTH",
"284 157 OFFCURVE",
"255 127 OFFCURVE",
"206 127 CURVE SMOOTH",
"158 127 OFFCURVE",
"130 152 OFFCURVE",
"110 202 CURVE",
"-17 145 LINE",
"14 44 OFFCURVE",
"97 -10 OFFCURVE",
"208 -10 CURVE SMOOTH"
);
}
);
width = 514;
}
);
unicode = 004A;
},
{
color = 3;
glyphname = K;
lastChange = "2019-03-12 13:09:29 +0000";
layers = (
{
background = {
paths = (
{
closed = 1;
nodes = (
"1899 710 LINE",
"1794 710 LINE",
"1447 360 LINE",
"1445 256 LINE"
);
},
{
closed = 1;
nodes = (
"1472 0 LINE",
"1472 710 LINE",
"1389 710 LINE",
"1389 0 LINE"
);
},
{
closed = 1;
nodes = (
"1877 -6 OFFCURVE",
"1907 2 OFFCURVE",
"1929 18 CURVE",
"1911 82 LINE",
"1894 72 OFFCURVE",
"1875 66 OFFCURVE",
"1854 66 CURVE SMOOTH",
"1813 66 OFFCURVE",
"1787 81 OFFCURVE",
"1744 141 CURVE SMOOTH",
"1562 398 LINE",
"1504 340 LINE",
"1686 83 LINE SMOOTH",
"1732 18 OFFCURVE",
"1781 -6 OFFCURVE",
"1840 -6 CURVE SMOOTH"
);
},
{
closed = 1;
nodes = (
"872 0 LINE",
"872 710 LINE",
"789 710 LINE",
"789 0 LINE"
);
},
{
closed = 1;
nodes = (
"1276 77 LINE",
"1261 68 OFFCURVE",
"1243 63 OFFCURVE",
"1225 63 CURVE SMOOTH",
"1180 63 OFFCURVE",
"1150 86 OFFCURVE",
"1117 133 CURVE SMOOTH",
"994 307 LINE SMOOTH",
"959 356 OFFCURVE",
"929 377 OFFCURVE",
"904 377 CURVE",
"925 338 LINE",
"1304 710 LINE",
"1200 710 LINE",
"861 375 LINE",
"827 339 LINE",
"869 339 OFFCURVE",
"902 306 OFFCURVE",
"928 269 CURVE SMOOTH",
"1065 73 LINE SMOOTH",
"1104 17 OFFCURVE",
"1152 -8 OFFCURVE",
"1211 -8 CURVE SMOOTH",
"1243 -8 OFFCURVE",
"1270 -1 OFFCURVE",
"1296 13 CURVE"
);
},
{
closed = 1;
nodes = (
"609 72 OFFCURVE",
"590 66 OFFCURVE",
"569 66 CURVE SMOOTH",
"528 66 OFFCURVE",
"499 81 OFFCURVE",
"457 141 CURVE SMOOTH",
"375 258 LINE SMOOTH",
"337 312 OFFCURVE",
"308 331 OFFCURVE",
"263 331 CURVE",
"287 322 LINE",
"346 322 LINE SMOOTH",
"475 322 OFFCURVE",
"590 386 OFFCURVE",
"590 513 CURVE SMOOTH",
"590 636 OFFCURVE",
"495 711 OFFCURVE",
"336 711 CURVE SMOOTH",
"89 711 LINE",
"89 0 LINE",
"172 0 LINE",
"172 640 LINE",
"325 640 LINE SMOOTH",
"447 640 OFFCURVE",
"510 594 OFFCURVE",
"510 510 CURVE SMOOTH",
"510 424 OFFCURVE",
"444 387 OFFCURVE",
"315 387 CURVE SMOOTH",
"156 387 LINE",
"156 319 LINE",
"198 319 LINE SMOOTH",
"225 319 OFFCURVE",
"247 301 OFFCURVE",
"261 282 CURVE SMOOTH",
"401 83 LINE SMOOTH",
"447 18 OFFCURVE",
"496 -6 OFFCURVE",
"555 -6 CURVE SMOOTH",
"592 -6 OFFCURVE",
"622 2 OFFCURVE",
"644 18 CURVE",
"626 82 LINE"
);
}
);
};
guideLines = (
{
angle = 225.5093;
position = "{267, 483}";
}
);
layerId = "A3B50665-EA37-4AC6-885C-1233CA61B6BD";
paths = (
{
closed = 1;
nodes = (
"177 0 LINE",
"177 710 LINE",
"94 710 LINE",
"94 0 LINE"
);
},
{
closed = 1;
nodes = (
"588 76 LINE",
"572 68 OFFCURVE",
"554 63 OFFCURVE",
"536 63 CURVE SMOOTH",
"494 63 OFFCURVE",
"466 82 OFFCURVE",
"430 133 CURVE SMOOTH",
"318 293 LINE SMOOTH",
"282 344 OFFCURVE",
"243 372 OFFCURVE",
"208 372 CURVE",
"236 338 LINE",
"605 710 LINE",
"501 710 LINE",
"157 360 LINE",
"138 336 LINE",
"176 336 OFFCURVE",
"209 312 OFFCURVE",
"249 255 CURVE SMOOTH",
"376 73 LINE SMOOTH",
"414 19 OFFCURVE",
"461 -8 OFFCURVE",
"522 -8 CURVE SMOOTH",
"552 -8 OFFCURVE",
"579 -2 OFFCURVE",
"606 13 CURVE"
);
}
);
width = 610;
},
{
background = {
paths = (
{
closed = 1;
nodes = (
"1464 132 OFFCURVE",
"1440 127 OFFCURVE",
"1417 127 CURVE SMOOTH",
"1375 127 OFFCURVE",
"1341 146 OFFCURVE",
"1307 195 CURVE SMOOTH",
"1271 247 LINE SMOOTH",
"1241 290 OFFCURVE",
"1204 305 OFFCURVE",
"1132 305 CURVE",
"1147 294 LINE",
"1192 294 LINE SMOOTH",
"1340 294 OFFCURVE",
"1442 375 OFFCURVE",
"1442 496 CURVE SMOOTH",
"1442 629 OFFCURVE",
"1344 710 OFFCURVE",
"1171 710 CURVE SMOOTH",
"876 710 LINE",
"876 0 LINE",
"1032 0 LINE",
"1032 587 LINE",
"1143 587 LINE SMOOTH",
"1241 587 OFFCURVE",
"1286 557 OFFCURVE",
"1286 494 CURVE SMOOTH",
"1286 436 OFFCURVE",
"1245 407 OFFCURVE",
"1139 407 CURVE SMOOTH",
"996 407 LINE",
"996 289 LINE",
"1033 289 LINE SMOOTH",
"1053 289 OFFCURVE",
"1067 280 OFFCURVE",
"1078 263 CURVE SMOOTH",
"1186 97 LINE SMOOTH",
"1231 28 OFFCURVE",
"1294 -10 OFFCURVE",
"1384 -10 CURVE SMOOTH",
"1434 -10 OFFCURVE",
"1489 4 OFFCURVE",
"1519 27 CURVE",
"1487 147 LINE"
);
},
{
closed = 1;
nodes = (
"232 0 LINE",
"232 710 LINE",
"76 710 LINE",
"76 0 LINE"
);
},
{
closed = 1;
nodes = (
"693 147 LINE",
"672 132 OFFCURVE",
"650 127 OFFCURVE",
"627 127 CURVE SMOOTH",
"585 127 OFFCURVE",
"551 146 OFFCURVE",
"528 183 CURVE SMOOTH",
"459 296 LINE SMOOTH",
"425 351 OFFCURVE",
"377 378 OFFCURVE",
"322 378 CURVE",
"361 342 LINE",
"702 710 LINE",
"510 710 LINE",
"190 364 LINE",
"190 313 LINE",
"227 313 OFFCURVE",
"275 297 OFFCURVE",
"309 242 CURVE SMOOTH",
"397 99 LINE SMOOTH",
"441 28 OFFCURVE",
"504 -10 OFFCURVE",
"594 -10 CURVE SMOOTH",
"644 -10 OFFCURVE",
"696 3 OFFCURVE",
"725 27 CURVE"
);
}
);
};
guideLines = (
{
angle = 46.6112;
position = "{222, 445}";
}
);
layerId = "014D4A40-7C7F-4023-B30E-1F55CE5EA091";
paths = (
{
closed = 1;
nodes = (
"232 0 LINE",
"232 710 LINE",
"76 710 LINE",
"76 0 LINE"
);
},
{
closed = 1;
nodes = (
"690 143 LINE",
"671 133 OFFCURVE",
"651 127 OFFCURVE",
"624 127 CURVE SMOOTH",
"582 127 OFFCURVE",
"548 147 OFFCURVE",
"525 183 CURVE SMOOTH",
"463 283 LINE SMOOTH",
"430 336 OFFCURVE",
"382 365 OFFCURVE",
"330 365 CURVE",
"369 329 LINE",
"715 710 LINE",
"523 710 LINE",
"198 351 LINE",
"198 300 LINE",
"246 300 OFFCURVE",
"283 283 OFFCURVE",
"317 229 CURVE SMOOTH",
"398 99 LINE SMOOTH",
"445 23 OFFCURVE",
"505 -10 OFFCURVE",
"591 -10 CURVE SMOOTH",
"645 -10 OFFCURVE",
"695 4 OFFCURVE",
"721 23 CURVE"
);
}
);
width = 714;
}
);
unicode = 004B;
},
{
color = 4;
glyphname = L;
lastChange = "2019-03-12 13:09:29 +0000";
layers = (
{
background = {
paths = (
{
closed = 1;
nodes = (
"504 0 LINE",
"514 72 LINE",
"172 72 LINE",
"172 712 LINE",
"89 712 LINE",
"89 0 LINE"
);
}
);
};
layerId = "A3B50665-EA37-4AC6-885C-1233CA61B6BD";
paths = (
{
closed = 1;
nodes = (
"500 0 LINE",
"510 71 LINE",
"177 71 LINE",
"177 710 LINE",
"94 710 LINE",
"94 0 LINE"
);
}
);
width = 521;
},
{
background = {
paths = (
{
closed = 1;
nodes = (
"537 0 LINE",
"547 136 LINE",
"232 136 LINE",
"232 710 LINE",
"76 710 LINE",
"76 0 LINE"
);
}
);
};
layerId = "014D4A40-7C7F-4023-B30E-1F55CE5EA091";
paths = (
{
closed = 1;
nodes = (
"531 0 LINE",
"541 138 LINE",
"232 138 LINE",
"232 710 LINE",
"76 710 LINE",
"76 0 LINE"
);
}
);
width = 566;
}
);
unicode = 004C;
},
{
color = 3;
glyphname = M;
lastChange = "2019-03-12 13:09:29 +0000";
layers = (
{
background = {
paths = (
{
closed = 1;
nodes = (
"157 0 LINE",
"187 652 LINE",
"140 648 LINE",
"439 0 LINE",
"517 0 LINE",
"823 647 LINE",
"773 652 LINE",
"803 0 LINE",
"882 0 LINE",
"852 712 LINE",
"773 712 LINE",
"452 30 LINE",
"510 30 LINE",
"195 712 LINE",
"112 712 LINE",
"82 0 LINE"
);
}
);
};
layerId = "A3B50665-EA37-4AC6-885C-1233CA61B6BD";
paths = (
{
closed = 1;
nodes = (
"162 0 LINE",
"192 650 LINE",
"145 646 LINE",
"429 0 LINE",
"507 0 LINE",
"798 645 LINE",
"748 650 LINE",
"773 0 LINE",
"852 0 LINE",
"827 710 LINE",
"747 710 LINE",
"441 30 LINE",
"499 30 LINE",
"199 710 LINE",
"117 710 LINE",
"87 0 LINE"
);
}
);
width = 935;
},
{
background = {
paths = (
{
closed = 1;
nodes = (
"217 0 LINE",
"235 468 LINE",
"196 459 LINE",
"426 0 LINE",
"528 0 LINE",
"756 459 LINE",
"719 468 LINE",
"732 0 LINE",
"882 0 LINE",
"862 710 LINE",
"730 710 LINE",
"432 102 LINE",
"534 102 LINE",
"231 710 LINE",
"97 710 LINE",
"72 0 LINE"
);
}
);
};
guideLines = (
{
angle = -88.391;
position = "{740, 356}";
},
{
angle = 88.391;
position = "{239, 356}";
}
);
layerId = "014D4A40-7C7F-4023-B30E-1F55CE5EA091";
paths = (
{
closed = 1;
nodes = (
"217 0 LINE",
"239 586 LINE",
"155 540 LINE",
"426 0 LINE",
"528 0 LINE",
"803 553 LINE",
"716 573 LINE",
"732 0 LINE",
"882 0 LINE",
"862 710 LINE",
"730 710 LINE",
"432 102 LINE",
"534 102 LINE",
"231 710 LINE",
"97 710 LINE",
"72 0 LINE"
);
}
);
width = 955;
}
);
unicode = 004D;
},
{
color = 3;
glyphname = N;
lastChange = "2019-03-12 13:09:29 +0000";
layers = (
{
anchors = (
{
name = bottom;
position = "{371, 0}";
},
{
name = top;
position = "{371, 712}";
}
);
background = {
paths = (
{
closed = 1;
nodes = (
"567 84 LINE",
"602 89 LINE",
"156 710 LINE",
"89 710 LINE",
"89 0 LINE",
"166 0 LINE",
"166 627 LINE",
"131 621 LINE",
"577 0 LINE",
"644 0 LINE",
"644 710 LINE",
"567 710 LINE"
);
}
);
};
layerId = "A3B50665-EA37-4AC6-885C-1233CA61B6BD";
paths = (
{
closed = 1;
nodes = (
"572 84 LINE",
"607 92 LINE",
"161 710 LINE",
"94 710 LINE",
"94 0 LINE",
"171 0 LINE",
"171 627 LINE",
"136 618 LINE",
"582 0 LINE",
"649 0 LINE",
"649 710 LINE",
"572 710 LINE"
);
}
);
width = 743;
},
{
anchors = (
{
name = bottom;
position = "{385, 0}";
},
{
name = top;
position = "{384, 712}";
}
);
background = {
paths = (
{
closed = 1;
nodes = (
"536 141 LINE",
"590 184 LINE",
"212 710 LINE",
"76 710 LINE",
"76 0 LINE",
"224 0 LINE",
"224 569 LINE",
"170 526 LINE",
"548 0 LINE",
"684 0 LINE",
"684 710 LINE",
"536 710 LINE"
);
}
);
};
layerId = "014D4A40-7C7F-4023-B30E-1F55CE5EA091";
paths = (
{
closed = 1;
nodes = (
"536 141 LINE",
"590 175 LINE",
"212 710 LINE",
"76 710 LINE",
"76 0 LINE",
"224 0 LINE",
"224 569 LINE",
"170 535 LINE",
"548 0 LINE",
"684 0 LINE",
"684 710 LINE",
"536 710 LINE"
);
}
);
width = 760;
}
);
leftKerningGroup = H;
rightKerningGroup = H;
unicode = 004E;
},
{
color = 3;
glyphname = O;
lastChange = "2019-03-12 13:09:29 +0000";
layers = (
{
background = {
paths = (
{
closed = 1;
nodes = (
"1728 -8 OFFCURVE",
"1881 153 OFFCURVE",
"1881 361 CURVE SMOOTH",
"1881 569 OFFCURVE",
"1733 720 OFFCURVE",
"1527 720 CURVE SMOOTH",
"1315 720 OFFCURVE",
"1159 552 OFFCURVE",
"1159 345 CURVE SMOOTH",
"1159 141 OFFCURVE",
"1308 -8 OFFCURVE",
"1515 -8 CURVE SMOOTH"
);
},
{
closed = 1;
nodes = (
"1354 68 OFFCURVE",
"1242 188 OFFCURVE",
"1242 346 CURVE SMOOTH",
"1242 516 OFFCURVE",
"1361 644 OFFCURVE",
"1525 644 CURVE SMOOTH",
"1685 644 OFFCURVE",
"1798 518 OFFCURVE",
"1798 358 CURVE SMOOTH",
"1798 184 OFFCURVE",
"1680 68 OFFCURVE",
"1515 68 CURVE SMOOTH"
);
},
{
closed = 1;
nodes = (
"197 720 OFFCURVE",
"59 564 OFFCURVE",
"59 342 CURVE SMOOTH",
"59 130 OFFCURVE",
"185 -8 OFFCURVE",
"378 -8 CURVE SMOOTH",
"573 -8 OFFCURVE",
"713 149 OFFCURVE",
"713 369 CURVE SMOOTH",
"713 580 OFFCURVE",
"587 720 OFFCURVE",
"400 720 CURVE SMOOTH"
);
},
{
closed = 1;
nodes = (
"233 68 OFFCURVE",
"142 174 OFFCURVE",
"142 342 CURVE SMOOTH",
"142 524 OFFCURVE",
"247 645 OFFCURVE",
"401 645 CURVE SMOOTH",
"541 645 OFFCURVE",
"630 538 OFFCURVE",
"630 371 CURVE SMOOTH",
"630 191 OFFCURVE",
"528 68 OFFCURVE",
"377 68 CURVE SMOOTH"
);
},
{
closed = 1;
nodes = (
"665 0 LINE",
"665 710 LINE",
"582 710 LINE",
"582 0 LINE"
);
},
{
closed = 1;
nodes = (
"190 0 LINE",
"190 710 LINE",
"107 710 LINE",
"107 0 LINE"
);
},
{
closed = 1;
nodes = (
"631 325 LINE",
"631 395 LINE",
"150 395 LINE",
"150 325 LINE"
);
}
);
};
guideLines = (
{
angle = 90;
position = "{746, 356}";
},
{
angle = 90;
position = "{809, 356}";
}
);
layerId = "A3B50665-EA37-4AC6-885C-1233CA61B6BD";
paths = (
{
closed = 1;
nodes = (
"578 -8 OFFCURVE",
"717 139 OFFCURVE",
"717 369 CURVE SMOOTH",
"717 580 OFFCURVE",
"592 720 OFFCURVE",
"405 720 CURVE SMOOTH",
"204 720 OFFCURVE",
"64 564 OFFCURVE",
"64 342 CURVE SMOOTH",
"64 120 OFFCURVE",
"187 -8 OFFCURVE",
"387 -8 CURVE SMOOTH"
);
},
{
closed = 1;
nodes = (
"238 68 OFFCURVE",
"147 166 OFFCURVE",
"147 342 CURVE SMOOTH",
"147 524 OFFCURVE",
"255 645 OFFCURVE",
"406 645 CURVE SMOOTH",
"546 645 OFFCURVE",
"635 538 OFFCURVE",
"635 371 CURVE SMOOTH",
"635 179 OFFCURVE",
"533 68 OFFCURVE",
"387 68 CURVE SMOOTH"
);
}
);
width = 781;
},
{
background = {
paths = (
{
closed = 1;
nodes = (
"1541 -10 OFFCURVE",
"1681 174 OFFCURVE",
"1681 362 CURVE SMOOTH",
"1681 578 OFFCURVE",
"1526 720 OFFCURVE",
"1316 720 CURVE SMOOTH",
"1080 720 OFFCURVE",
"939 534 OFFCURVE",
"939 346 CURVE SMOOTH",
"939 131 OFFCURVE",
"1093 -10 OFFCURVE",
"1304 -10 CURVE SMOOTH"
);
},
{
closed = 1;
nodes = (
"1183 127 OFFCURVE",
"1098 210 OFFCURVE",
"1098 349 CURVE SMOOTH",
"1098 483 OFFCURVE",
"1183 585 OFFCURVE",
"1314 585 CURVE SMOOTH",
"1435 585 OFFCURVE",
"1522 499 OFFCURVE",
"1522 359 CURVE SMOOTH",
"1522 221 OFFCURVE",
"1442 127 OFFCURVE",
"1306 127 CURVE SMOOTH"
);
},
{
closed = 1;
nodes = (
"595 -8 OFFCURVE",
"745 139 OFFCURVE",
"745 369 CURVE SMOOTH",
"745 580 OFFCURVE",
"610 720 OFFCURVE",
"408 720 CURVE SMOOTH",
"190 720 OFFCURVE",
"39 564 OFFCURVE",
"39 342 CURVE SMOOTH",
"39 120 OFFCURVE",
"172 -8 OFFCURVE",
"388 -8 CURVE SMOOTH"
);
},
{
closed = 1;
nodes = (
"270 127 OFFCURVE",
"198 205 OFFCURVE",
"198 345 CURVE SMOOTH",
"198 489 OFFCURVE",
"284 585 OFFCURVE",
"404 585 CURVE SMOOTH",
"515 585 OFFCURVE",
"586 500 OFFCURVE",
"586 368 CURVE SMOOTH",
"586 215 OFFCURVE",
"505 127 OFFCURVE",
"389 127 CURVE SMOOTH"
);
},
{
closed = 1;
nodes = (
"545 426 LINE",
"239 426 LINE",
"239 710 LINE",
"83 710 LINE",
"83 0 LINE",
"239 0 LINE",
"239 290 LINE",
"545 290 LINE",
"545 0 LINE",
"701 0 LINE",
"701 710 LINE",
"545 710 LINE"
);
}
);
};
layerId = "014D4A40-7C7F-4023-B30E-1F55CE5EA091";
paths = (
{
closed = 1;
nodes = (
"598 -8 OFFCURVE",
"744 139 OFFCURVE",
"744 369 CURVE SMOOTH",
"744 580 OFFCURVE",
"610 720 OFFCURVE",
"408 720 CURVE SMOOTH",
"180 720 OFFCURVE",
"39 564 OFFCURVE",
"39 342 CURVE SMOOTH",
"39 120 OFFCURVE",
"172 -12 OFFCURVE",
"395 -10 CURVE SMOOTH"
);
},
{
closed = 1;
nodes = (
"270 129 OFFCURVE",
"198 207 OFFCURVE",
"198 345 CURVE SMOOTH",
"198 486 OFFCURVE",
"284 582 OFFCURVE",
"404 582 CURVE SMOOTH",
"515 582 OFFCURVE",
"586 497 OFFCURVE",
"586 368 CURVE SMOOTH",
"586 217 OFFCURVE",
"505 129 OFFCURVE",
"389 129 CURVE SMOOTH"
);
}
);
width = 783;
}
);
unicode = 004F;
},
{
color = 3;
glyphname = P;
lastChange = "2019-03-12 13:09:29 +0000";
layers = (
{
anchors = (
{
name = bottom;
position = "{347, 0}";
},
{
name = top;
position = "{346, 710}";
}
);
background = {
paths = (
{
closed = 1;
nodes = (
"872 640 LINE",
"1025 640 LINE SMOOTH",
"1145 640 OFFCURVE",
"1210 593 OFFCURVE",
"1210 495 CURVE SMOOTH",
"1210 400 OFFCURVE",
"1139 353 OFFCURVE",
"995 353 CURVE SMOOTH",
"940 353 OFFCURVE",
"898 357 OFFCURVE",
"856 365 CURVE",
"856 292 LINE",
"903 285 OFFCURVE",
"947 281 OFFCURVE",
"996 281 CURVE SMOOTH",
"1180 281 OFFCURVE",
"1290 360 OFFCURVE",
"1290 498 CURVE SMOOTH",
"1290 633 OFFCURVE",
"1192 711 OFFCURVE",
"1036 711 CURVE SMOOTH",
"789 711 LINE",
"789 0 LINE",
"872 0 LINE"
);
},
{
closed = 1;
nodes = (
"172 640 LINE",
"325 640 LINE SMOOTH",
"447 640 OFFCURVE",
"510 591 OFFCURVE",
"510 500 CURVE SMOOTH",
"510 407 OFFCURVE",
"454 363 OFFCURVE",
"345 363 CURVE SMOOTH",
"156 363 LINE",
"156 292 LINE",
"346 292 LINE SMOOTH",
"495 292 OFFCURVE",
"590 369 OFFCURVE",
"590 502 CURVE SMOOTH",
"590 631 OFFCURVE",
"495 711 OFFCURVE",
"336 711 CURVE SMOOTH",
"89 711 LINE",
"89 0 LINE",
"172 0 LINE"
);
}
);
};
layerId = "A3B50665-EA37-4AC6-885C-1233CA61B6BD";
paths = (
{
closed = 1;
nodes = (
"175 641 LINE",
"318 641 LINE SMOOTH",
"449 641 OFFCURVE",
"508 598 OFFCURVE",
"508 502 CURVE SMOOTH",
"508 405 OFFCURVE",
"451 356 OFFCURVE",
"324 356 CURVE SMOOTH",
"159 356 LINE",
"159 285 LINE",
"318 285 LINE SMOOTH",
"496 285 OFFCURVE",
"588 367 OFFCURVE",
"588 502 CURVE SMOOTH",
"588 638 OFFCURVE",
"492 711 OFFCURVE",
"326 711 CURVE SMOOTH",
"94 711 LINE",
"94 0 LINE",
"175 0 LINE"
);
}
);
width = 629;
},
{
anchors = (
{
name = bottom;
position = "{358, 0}";
},
{
name = top;
position = "{358, 710}";
}
);
background = {
paths = (
{
closed = 1;
nodes = (
"232 587 LINE",
"343 587 LINE SMOOTH",
"441 587 OFFCURVE",
"486 559 OFFCURVE",
"486 498 CURVE SMOOTH",
"486 438 OFFCURVE",
"446 407 OFFCURVE",
"370 407 CURVE SMOOTH",
"196 407 LINE",
"196 285 LINE",
"392 285 LINE SMOOTH",
"546 285 OFFCURVE",
"642 368 OFFCURVE",
"642 501 CURVE SMOOTH",
"642 634 OFFCURVE",
"544 710 OFFCURVE",
"371 710 CURVE SMOOTH",
"76 710 LINE",
"76 0 LINE",
"232 0 LINE"
);
},
{
closed = 1;
nodes = (
"624 -10 OFFCURVE",
"679 4 OFFCURVE",
"709 27 CURVE",
"677 147 LINE",
"654 132 OFFCURVE",
"630 127 OFFCURVE",
"607 127 CURVE SMOOTH",
"565 127 OFFCURVE",
"527 153 OFFCURVE",
"495 202 CURVE SMOOTH",
"382 375 LINE",
"236 312 LINE",
"376 97 LINE SMOOTH",
"421 28 OFFCURVE",
"484 -10 OFFCURVE",
"574 -10 CURVE SMOOTH"
);
}
);
};
layerId = "014D4A40-7C7F-4023-B30E-1F55CE5EA091";
paths = (
{
closed = 1;
nodes = (
"228 587 LINE",
"333 587 LINE SMOOTH",
"431 587 OFFCURVE",
"476 558 OFFCURVE",
"476 483 CURVE SMOOTH",
"476 410 OFFCURVE",
"426 377 OFFCURVE",
"340 377 CURVE SMOOTH",
"196 377 LINE",
"196 252 LINE",
"342 252 LINE SMOOTH",
"516 252 OFFCURVE",
"632 340 OFFCURVE",
"632 486 CURVE SMOOTH",
"632 632 OFFCURVE",
"531 710 OFFCURVE",
"346 710 CURVE SMOOTH",
"76 710 LINE",
"76 0 LINE",
"228 0 LINE"
);
}
);
width = 647;
}
);
unicode = 0050;
},
{
color = 3;
glyphname = Q;
lastChange = "2019-03-12 13:09:29 +0000";
layers = (
{
background = {
paths = (
{
closed = 1;
nodes = (
"573 -8 OFFCURVE",
"712 139 OFFCURVE",
"712 369 CURVE SMOOTH",
"712 580 OFFCURVE",
"587 720 OFFCURVE",
"400 720 CURVE SMOOTH",
"199 720 OFFCURVE",
"59 564 OFFCURVE",
"59 342 CURVE SMOOTH",
"59 120 OFFCURVE",
"182 -8 OFFCURVE",
"382 -8 CURVE SMOOTH"
);
},
{
closed = 1;
nodes = (
"233 68 OFFCURVE",
"142 166 OFFCURVE",
"142 342 CURVE SMOOTH",
"142 524 OFFCURVE",
"250 645 OFFCURVE",
"401 645 CURVE SMOOTH",
"541 645 OFFCURVE",
"630 538 OFFCURVE",
"630 371 CURVE SMOOTH",
"630 179 OFFCURVE",
"528 68 OFFCURVE",
"382 68 CURVE SMOOTH"
);
},
{
closed = 1;
nodes = (
"331 -10 LINE SMOOTH",
"331 -141 OFFCURVE",
"398 -208 OFFCURVE",
"519 -208 CURVE SMOOTH",
"607 -208 OFFCURVE",
"663 -160 OFFCURVE",
"673 -76 CURVE",
"608 -68 LINE",
"604 -112 OFFCURVE",
"568 -141 OFFCURVE",
"517 -141 CURVE SMOOTH",
"444 -141 OFFCURVE",
"409 -104 OFFCURVE",
"409 -2 CURVE SMOOTH",
"409 47 LINE",
"331 47 LINE"
);
}
);
};
guideLines = (
{
angle = 90;
position = "{746, 356}";
},
{
angle = 90;
position = "{809, 356}";
}
);
layerId = "A3B50665-EA37-4AC6-885C-1233CA61B6BD";
paths = (
{
closed = 1;
nodes = (
"578 -8 OFFCURVE",
"717 139 OFFCURVE",
"717 369 CURVE SMOOTH",
"717 580 OFFCURVE",
"592 720 OFFCURVE",
"405 720 CURVE SMOOTH",
"204 720 OFFCURVE",
"64 564 OFFCURVE",
"64 342 CURVE SMOOTH",
"64 120 OFFCURVE",
"187 -8 OFFCURVE",
"387 -8 CURVE SMOOTH"
);
},
{
closed = 1;
nodes = (
"238 68 OFFCURVE",
"147 166 OFFCURVE",
"147 342 CURVE SMOOTH",
"147 524 OFFCURVE",
"255 645 OFFCURVE",
"406 645 CURVE SMOOTH",
"546 645 OFFCURVE",
"635 538 OFFCURVE",
"635 371 CURVE SMOOTH",
"635 179 OFFCURVE",
"533 68 OFFCURVE",
"387 68 CURVE SMOOTH"
);
},
{
closed = 1;
nodes = (
"336 0 LINE SMOOTH",
"336 -141 OFFCURVE",
"403 -208 OFFCURVE",
"524 -208 CURVE SMOOTH",
"612 -208 OFFCURVE",
"668 -160 OFFCURVE",
"678 -76 CURVE",
"613 -68 LINE",
"609 -112 OFFCURVE",
"573 -141 OFFCURVE",
"522 -141 CURVE SMOOTH",
"449 -141 OFFCURVE",
"414 -104 OFFCURVE",
"414 -2 CURVE SMOOTH",
"414 47 LINE",
"336 47 LINE"
);
}
);
width = 781;
},
{
background = {
paths = (
{
closed = 1;
nodes = (
"598 -8 OFFCURVE",
"744 139 OFFCURVE",
"744 369 CURVE SMOOTH",
"744 580 OFFCURVE",
"610 720 OFFCURVE",
"408 720 CURVE SMOOTH",
"180 720 OFFCURVE",
"39 564 OFFCURVE",
"39 342 CURVE SMOOTH",
"39 120 OFFCURVE",
"172 -12 OFFCURVE",
"395 -10 CURVE SMOOTH"
);
},
{
closed = 1;
nodes = (
"270 129 OFFCURVE",
"198 207 OFFCURVE",
"198 345 CURVE SMOOTH",
"198 486 OFFCURVE",
"284 582 OFFCURVE",
"404 582 CURVE SMOOTH",
"515 582 OFFCURVE",
"586 497 OFFCURVE",
"586 368 CURVE SMOOTH",
"586 217 OFFCURVE",
"505 129 OFFCURVE",
"389 129 CURVE SMOOTH"
);
},
{
closed = 1;
nodes = (
"310 -15 LINE SMOOTH",
"310 -128 OFFCURVE",
"394 -210 OFFCURVE",
"527 -210 CURVE SMOOTH",
"635 -210 OFFCURVE",
"705 -161 OFFCURVE",
"717 -57 CURVE",
"591 -42 LINE",
"587 -71 OFFCURVE",
"564 -87 OFFCURVE",
"532 -87 CURVE SMOOTH",
"486 -87 OFFCURVE",
"465 -61 OFFCURVE",
"465 -4 CURVE SMOOTH",
"465 80 LINE",
"310 80 LINE"
);
}
);
};
layerId = "014D4A40-7C7F-4023-B30E-1F55CE5EA091";
paths = (
{
closed = 1;
nodes = (
"598 -8 OFFCURVE",
"744 139 OFFCURVE",
"744 369 CURVE SMOOTH",
"744 580 OFFCURVE",
"610 720 OFFCURVE",
"408 720 CURVE SMOOTH",
"180 720 OFFCURVE",
"39 564 OFFCURVE",
"39 342 CURVE SMOOTH",
"39 120 OFFCURVE",
"172 -12 OFFCURVE",
"395 -10 CURVE SMOOTH"
);
},
{
closed = 1;
nodes = (
"270 129 OFFCURVE",
"198 207 OFFCURVE",
"198 345 CURVE SMOOTH",
"198 486 OFFCURVE",
"284 582 OFFCURVE",
"404 582 CURVE SMOOTH",
"515 582 OFFCURVE",
"586 497 OFFCURVE",
"586 368 CURVE SMOOTH",
"586 217 OFFCURVE",
"505 129 OFFCURVE",
"389 129 CURVE SMOOTH"
);
},
{
closed = 1;
nodes = (
"310 5 LINE SMOOTH",
"310 -128 OFFCURVE",
"394 -210 OFFCURVE",
"527 -210 CURVE SMOOTH",
"631 -210 OFFCURVE",
"705 -161 OFFCURVE",
"717 -57 CURVE",
"591 -42 LINE",
"587 -71 OFFCURVE",
"564 -87 OFFCURVE",
"532 -87 CURVE SMOOTH",
"486 -87 OFFCURVE",
"465 -61 OFFCURVE",
"465 -4 CURVE SMOOTH",
"465 80 LINE",
"310 80 LINE"
);
}
);
width = 783;
}
);
unicode = 0051;
},
{
color = 3;
glyphname = R;
lastChange = "2019-03-12 13:09:29 +0000";
layers = (
{
anchors = (
{
name = bottom;
position = "{347, 0}";
},
{
name = top;
position = "{346, 712}";
}
);
background = {
paths = (
{
closed = 1;
nodes = (
"590 72 OFFCURVE",
"572 66 OFFCURVE",
"552 66 CURVE SMOOTH",
"507 66 OFFCURVE",
"488 79 OFFCURVE",
"451 134 CURVE SMOOTH",
"367 258 LINE SMOOTH",
"331 312 OFFCURVE",
"302 331 OFFCURVE",
"263 331 CURVE",
"257 321 LINE",
"296 321 LINE SMOOTH",
"433 321 OFFCURVE",
"539 386 OFFCURVE",
"539 513 CURVE SMOOTH",
"539 636 OFFCURVE",
"443 710 OFFCURVE",
"271 710 CURVE SMOOTH",
"89 710 LINE",
"89 0 LINE",
"172 0 LINE",
"172 641 LINE",
"265 641 LINE SMOOTH",
"395 641 OFFCURVE",
"458 594 OFFCURVE",
"458 510 CURVE SMOOTH",
"458 424 OFFCURVE",
"392 386 OFFCURVE",
"255 386 CURVE SMOOTH",
"156 386 LINE",
"156 319 LINE",
"192 319 LINE SMOOTH",
"218 319 OFFCURVE",
"243 301 OFFCURVE",
"261 275 CURVE SMOOTH",
"391 83 LINE SMOOTH",
"435 18 OFFCURVE",
"482 -6 OFFCURVE",
"539 -6 CURVE SMOOTH",
"574 -6 OFFCURVE",
"603 2 OFFCURVE",
"624 18 CURVE",
"606 82 LINE"
);
}
);
};
guideLines = (
{
angle = 124.1013;
position = "{430, 179}";
}
);
layerId = "A3B50665-EA37-4AC6-885C-1233CA61B6BD";
paths = (
{
closed = 1;
nodes = (
"595 72 OFFCURVE",
"577 66 OFFCURVE",
"557 66 CURVE SMOOTH",
"512 66 OFFCURVE",
"493 79 OFFCURVE",
"456 134 CURVE SMOOTH",
"372 258 LINE SMOOTH",
"336 312 OFFCURVE",
"307 331 OFFCURVE",
"268 331 CURVE",
"262 321 LINE",
"301 321 LINE SMOOTH",
"438 321 OFFCURVE",
"544 386 OFFCURVE",
"544 513 CURVE SMOOTH",
"544 636 OFFCURVE",
"448 710 OFFCURVE",
"296 710 CURVE SMOOTH",
"94 710 LINE",
"94 0 LINE",
"175 0 LINE",
"175 641 LINE",
"290 641 LINE SMOOTH",
"400 641 OFFCURVE",
"463 594 OFFCURVE",
"463 510 CURVE SMOOTH",
"463 424 OFFCURVE",
"397 386 OFFCURVE",
"280 386 CURVE SMOOTH",
"159 386 LINE",
"159 319 LINE",
"199 319 LINE SMOOTH",
"225 319 OFFCURVE",
"250 301 OFFCURVE",
"268 275 CURVE SMOOTH",
"398 83 LINE SMOOTH",
"442 18 OFFCURVE",
"489 -6 OFFCURVE",
"544 -6 CURVE SMOOTH",
"579 -6 OFFCURVE",
"608 2 OFFCURVE",
"629 18 CURVE",
"611 82 LINE"
);
}
);
width = 644;
},
{
anchors = (
{
name = bottom;
position = "{358, 0}";
},
{
name = top;
position = "{358, 712}";
}
);
background = {
paths = (
{
closed = 1;
nodes = (
"644 132 OFFCURVE",
"622 127 OFFCURVE",
"597 127 CURVE SMOOTH",
"560 127 OFFCURVE",
"536 141 OFFCURVE",
"512 177 CURVE SMOOTH",
"474 234 LINE SMOOTH",
"443 280 OFFCURVE",
"407 300 OFFCURVE",
"351 300 CURVE",
"327 282 LINE",
"352 282 LINE SMOOTH",
"494 282 OFFCURVE",
"597 357 OFFCURVE",
"597 491 CURVE SMOOTH",
"597 627 OFFCURVE",
"499 710 OFFCURVE",
"286 710 CURVE SMOOTH",
"76 710 LINE",
"76 0 LINE",
"232 0 LINE",
"232 587 LINE",
"278 587 LINE SMOOTH",
"396 587 OFFCURVE",
"441 555 OFFCURVE",
"441 489 CURVE SMOOTH",
"441 428 OFFCURVE",
"400 395 OFFCURVE",
"274 395 CURVE SMOOTH",
"196 395 LINE",
"196 279 LINE",
"220 279 LINE SMOOTH",
"248 279 OFFCURVE",
"270 270 OFFCURVE",
"293 234 CURVE SMOOTH",
"382 93 LINE SMOOTH",
"424 26 OFFCURVE",
"488 -10 OFFCURVE",
"574 -10 CURVE SMOOTH",
"621 -10 OFFCURVE",
"669 4 OFFCURVE",
"697 26 CURVE",
"665 146 LINE"
);
}
);
};
guideLines = (
{
angle = 122.1118;
position = "{521, 170}";
}
);
layerId = "014D4A40-7C7F-4023-B30E-1F55CE5EA091";
paths = (
{
closed = 1;
nodes = (
"644 132 OFFCURVE",
"622 127 OFFCURVE",
"597 127 CURVE SMOOTH",
"560 127 OFFCURVE",
"536 141 OFFCURVE",
"512 177 CURVE SMOOTH",
"474 234 LINE SMOOTH",
"443 280 OFFCURVE",
"407 300 OFFCURVE",
"351 300 CURVE",
"327 282 LINE",
"352 282 LINE SMOOTH",
"494 282 OFFCURVE",
"597 357 OFFCURVE",
"597 491 CURVE SMOOTH",
"597 627 OFFCURVE",
"499 710 OFFCURVE",
"306 710 CURVE SMOOTH",
"76 710 LINE",
"76 0 LINE",
"229 0 LINE",
"229 587 LINE",
"298 587 LINE SMOOTH",
"396 587 OFFCURVE",
"441 555 OFFCURVE",
"441 489 CURVE SMOOTH",
"441 428 OFFCURVE",
"400 395 OFFCURVE",
"294 395 CURVE SMOOTH",
"196 395 LINE",
"196 279 LINE",
"223 279 LINE SMOOTH",
"251 279 OFFCURVE",
"273 270 OFFCURVE",
"296 234 CURVE SMOOTH",
"385 93 LINE SMOOTH",
"427 26 OFFCURVE",
"491 -10 OFFCURVE",
"574 -10 CURVE SMOOTH",
"621 -10 OFFCURVE",
"669 4 OFFCURVE",
"697 26 CURVE",
"665 146 LINE"
);
}
);
width = 685;
}
);
unicode = 0052;
},
{
color = 3;
glyphname = S;
lastChange = "2019-03-12 13:09:29 +0000";
layers = (
{
background = {
paths = (
{
closed = 1;
nodes = (
"458 -8 OFFCURVE",
"540 74 OFFCURVE",
"540 186 CURVE SMOOTH",
"540 296 OFFCURVE",
"475 358 OFFCURVE",
"317 387 CURVE SMOOTH",
"201 408 OFFCURVE",
"160 442 OFFCURVE",
"160 517 CURVE SMOOTH",
"160 596 OFFCURVE",
"219 647 OFFCURVE",
"310 647 CURVE SMOOTH",
"397 647 OFFCURVE",
"442 605 OFFCURVE",
"460 518 CURVE",
"531 530 LINE",
"514 650 OFFCURVE",
"433 720 OFFCURVE",
"311 720 CURVE SMOOTH",
"174 720 OFFCURVE",
"79 635 OFFCURVE",
"79 514 CURVE SMOOTH",
"79 403 OFFCURVE",
"143 337 OFFCURVE",
"295 310 CURVE SMOOTH",
"410 290 OFFCURVE",
"459 253 OFFCURVE",
"459 184 CURVE SMOOTH",
"459 108 OFFCURVE",
"402 66 OFFCURVE",
"299 66 CURVE SMOOTH",
"184 66 OFFCURVE",
"132 113 OFFCURVE",
"114 221 CURVE",
"37 210 LINE",
"51 68 OFFCURVE",
"138 -8 OFFCURVE",
"298 -8 CURVE SMOOTH"
);
}
);
};
layerId = "A3B50665-EA37-4AC6-885C-1233CA61B6BD";
paths = (
{
closed = 1;
nodes = (
"449 -8 OFFCURVE",
"545 74 OFFCURVE",
"545 188 CURVE SMOOTH",
"545 296 OFFCURVE",
"475 356 OFFCURVE",
"322 384 CURVE SMOOTH",
"209 404 OFFCURVE",
"167 439 OFFCURVE",
"167 517 CURVE SMOOTH",
"167 596 OFFCURVE",
"226 647 OFFCURVE",
"314 647 CURVE SMOOTH",
"404 647 OFFCURVE",
"449 605 OFFCURVE",
"467 518 CURVE",
"538 530 LINE",
"523 650 OFFCURVE",
"440 720 OFFCURVE",
"316 720 CURVE SMOOTH",
"181 720 OFFCURVE",
"86 632 OFFCURVE",
"86 514 CURVE SMOOTH",
"86 403 OFFCURVE",
"144 339 OFFCURVE",
"300 311 CURVE SMOOTH",
"411 291 OFFCURVE",
"464 255 OFFCURVE",
"464 187 CURVE SMOOTH",
"464 110 OFFCURVE",
"404 65 OFFCURVE",
"307 65 CURVE SMOOTH",
"189 65 OFFCURVE",
"137 116 OFFCURVE",
"119 221 CURVE",
"42 210 LINE",
"58 67 OFFCURVE",
"143 -8 OFFCURVE",
"303 -8 CURVE SMOOTH"
);
}
);
width = 588;
},
{
background = {
paths = (
{
closed = 1;
nodes = (
"473 -9 OFFCURVE",
"585 80 OFFCURVE",
"585 210 CURVE SMOOTH",
"585 317 OFFCURVE",
"516 383 OFFCURVE",
"381 412 CURVE SMOOTH",
"265 436 OFFCURVE",
"229 459 OFFCURVE",
"229 509 CURVE SMOOTH",
"229 555 OFFCURVE",
"264 590 OFFCURVE",
"328 590 CURVE SMOOTH",
"392 590 OFFCURVE",
"431 556 OFFCURVE",
"442 500 CURVE",
"578 523 LINE",
"564 643 OFFCURVE",
"473 720 OFFCURVE",
"335 720 CURVE SMOOTH",
"174 720 OFFCURVE",
"69 625 OFFCURVE",
"69 493 CURVE SMOOTH",
"69 385 OFFCURVE",
"135 317 OFFCURVE",
"271 289 CURVE SMOOTH",
"386 264 OFFCURVE",
"425 242 OFFCURVE",
"425 197 CURVE SMOOTH",
"425 149 OFFCURVE",
"385 122 OFFCURVE",
"313 122 CURVE SMOOTH",
"225 122 OFFCURVE",
"179 163 OFFCURVE",
"170 233 CURVE",
"26 212 LINE",
"38 68 OFFCURVE",
"134 -9 OFFCURVE",
"305 -9 CURVE SMOOTH"
);
}
);
};
layerId = "014D4A40-7C7F-4023-B30E-1F55CE5EA091";
paths = (
{
closed = 1;
nodes = (
"473 -9 OFFCURVE",
"585 80 OFFCURVE",
"585 210 CURVE SMOOTH",
"585 312 OFFCURVE",
"516 380 OFFCURVE",
"381 409 CURVE SMOOTH",
"265 434 OFFCURVE",
"229 457 OFFCURVE",
"229 509 CURVE SMOOTH",
"229 555 OFFCURVE",
"264 590 OFFCURVE",
"328 590 CURVE SMOOTH",
"392 590 OFFCURVE",
"431 556 OFFCURVE",
"442 500 CURVE",
"578 523 LINE",
"564 643 OFFCURVE",
"473 720 OFFCURVE",
"335 720 CURVE SMOOTH",
"174 720 OFFCURVE",
"69 625 OFFCURVE",
"69 493 CURVE SMOOTH",
"69 395 OFFCURVE",
"135 318 OFFCURVE",
"271 290 CURVE SMOOTH",
"386 265 OFFCURVE",
"425 242 OFFCURVE",
"425 197 CURVE SMOOTH",
"425 149 OFFCURVE",
"385 122 OFFCURVE",
"313 122 CURVE SMOOTH",
"225 122 OFFCURVE",
"179 163 OFFCURVE",
"170 233 CURVE",
"26 212 LINE",
"38 68 OFFCURVE",
"134 -9 OFFCURVE",
"305 -9 CURVE SMOOTH"
);
}
);
width = 616;
}
);
note = s;
unicode = 0053;
},
{
color = 3;
glyphname = T;
lastChange = "2019-03-12 13:09:29 +0000";
layers = (
{
layerId = "A3B50665-EA37-4AC6-885C-1233CA61B6BD";
paths = (
{
closed = 1;
nodes = (
"17 710 LINE",
"17 639 LINE",
"249 639 LINE",
"249 0 LINE",
"332 0 LINE",
"332 639 LINE",
"559 639 LINE",
"569 710 LINE"
);
}
);
width = 581;
},
{
background = {
paths = (
{
closed = 1;
nodes = (
"10 710 LINE",
"10 574 LINE",
"236 574 LINE",
"236 0 LINE",
"392 0 LINE",
"392 574 LINE",
"618 574 LINE",
"618 710 LINE"
);
}
);
};
layerId = "014D4A40-7C7F-4023-B30E-1F55CE5EA091";
paths = (
{
closed = 1;
nodes = (
"10 710 LINE",
"10 576 LINE",
"236 576 LINE",
"236 0 LINE",
"392 0 LINE",
"392 576 LINE",
"608 576 LINE",
"628 710 LINE"
);
}
);
width = 628;
}
);
unicode = 0054;
},
{
color = 3;
glyphname = U;
lastChange = "2019-03-12 13:09:29 +0000";
layers = (
{
background = {
paths = (
{
closed = 1;
nodes = (
"578 345 LINE SMOOTH",
"579 155 OFFCURVE",
"512 68 OFFCURVE",
"367 68 CURVE SMOOTH",
"227 68 OFFCURVE",
"166 142 OFFCURVE",
"166 312 CURVE SMOOTH",
"166 710 LINE",
"82 710 LINE",
"82 308 LINE SMOOTH",
"82 92 OFFCURVE",
"179 -8 OFFCURVE",
"367 -8 CURVE SMOOTH",
"558 -8 OFFCURVE",
"661 115 OFFCURVE",
"660 343 CURVE SMOOTH",
"659 710 LINE",
"577 710 LINE"
);
}
);
};
guideLines = (
{
angle = 90;
position = "{749, 356}";
},
{
angle = 90;
position = "{812, 356}";
}
);
layerId = "A3B50665-EA37-4AC6-885C-1233CA61B6BD";
paths = (
{
closed = 1;
nodes = (
"578 342 LINE SMOOTH",
"579 155 OFFCURVE",
"517 68 OFFCURVE",
"372 68 CURVE SMOOTH",
"235 68 OFFCURVE",
"176 140 OFFCURVE",
"176 307 CURVE SMOOTH",
"176 710 LINE",
"92 710 LINE",
"92 303 LINE SMOOTH",
"92 88 OFFCURVE",
"184 -8 OFFCURVE",
"372 -8 CURVE SMOOTH",
"563 -8 OFFCURVE",
"661 115 OFFCURVE",
"660 340 CURVE SMOOTH",
"659 710 LINE",
"577 710 LINE"
);
}
);
width = 752;
},
{
background = {
paths = (
{
closed = 1;
nodes = (
"1549 -10 OFFCURVE",
"1689 174 OFFCURVE",
"1689 362 CURVE SMOOTH",
"1689 578 OFFCURVE",
"1534 720 OFFCURVE",
"1324 720 CURVE SMOOTH",
"1088 720 OFFCURVE",
"947 534 OFFCURVE",
"947 346 CURVE SMOOTH",
"947 131 OFFCURVE",
"1101 -10 OFFCURVE",
"1312 -10 CURVE SMOOTH"
);
},
{
closed = 1;
nodes = (
"1191 127 OFFCURVE",
"1106 210 OFFCURVE",
"1106 349 CURVE SMOOTH",
"1106 483 OFFCURVE",
"1191 585 OFFCURVE",
"1322 585 CURVE SMOOTH",
"1443 585 OFFCURVE",
"1530 499 OFFCURVE",
"1530 359 CURVE SMOOTH",
"1530 221 OFFCURVE",
"1450 127 OFFCURVE",
"1314 127 CURVE SMOOTH"
);
},
{
closed = 1;
nodes = (
"603 -8 OFFCURVE",
"753 139 OFFCURVE",
"753 369 CURVE SMOOTH",
"753 580 OFFCURVE",
"618 720 OFFCURVE",
"416 720 CURVE SMOOTH",
"198 720 OFFCURVE",
"47 564 OFFCURVE",
"47 342 CURVE SMOOTH",
"47 120 OFFCURVE",
"180 -8 OFFCURVE",
"396 -8 CURVE SMOOTH"
);
},
{
closed = 1;
nodes = (
"278 127 OFFCURVE",
"206 205 OFFCURVE",
"206 345 CURVE SMOOTH",
"206 489 OFFCURVE",
"292 585 OFFCURVE",
"412 585 CURVE SMOOTH",
"523 585 OFFCURVE",
"594 500 OFFCURVE",
"594 368 CURVE SMOOTH",
"594 215 OFFCURVE",
"513 127 OFFCURVE",
"397 127 CURVE SMOOTH"
);
},
{
closed = 1;
nodes = (
"553 426 LINE",
"247 426 LINE",
"247 710 LINE",
"91 710 LINE",
"91 0 LINE",
"247 0 LINE",
"247 290 LINE",
"553 290 LINE",
"553 0 LINE",
"709 0 LINE",
"709 710 LINE",
"553 710 LINE"
);
}
);
};
layerId = "014D4A40-7C7F-4023-B30E-1F55CE5EA091";
paths = (
{
closed = 1;
nodes = (
"546 336 LINE SMOOTH",
"547 194 OFFCURVE",
"491 129 OFFCURVE",
"390 129 CURVE SMOOTH",
"287 129 OFFCURVE",
"230 183 OFFCURVE",
"230 313 CURVE SMOOTH",
"230 710 LINE",
"74 710 LINE",
"74 300 LINE SMOOTH",
"74 94 OFFCURVE",
"183 -12 OFFCURVE",
"393 -10 CURVE SMOOTH",
"582 -8 OFFCURVE",
"703 123 OFFCURVE",
"702 327 CURVE SMOOTH",
"700 710 LINE",
"544 710 LINE"
);
}
);
width = 776;
}
);
unicode = 0055;
},
{
color = 3;
glyphname = V;
lastChange = "2019-03-12 13:09:29 +0000";
layers = (
{
background = {
paths = (
{
closed = 1;
nodes = (
"286 24 LINE",
"304 23 LINE",
"101 710 LINE",
"14 710 LINE",
"236 0 LINE",
"348 0 LINE",
"615 710 LINE",
"532 710 LINE"
);
}
);
};
layerId = "A3B50665-EA37-4AC6-885C-1233CA61B6BD";
paths = (
{
closed = 1;
nodes = (
"286 24 LINE",
"313 23 LINE",
"106 710 LINE",
"21 710 LINE",
"241 0 LINE",
"352 0 LINE",
"618 710 LINE",
"536 710 LINE"
);
}
);
width = 615;
},
{
background = {
paths = (
{
closed = 1;
nodes = (
"298 33 LINE",
"362 33 LINE",
"168 710 LINE",
"0 710 LINE",
"212 0 LINE",
"435 0 LINE",
"689 710 LINE",
"532 710 LINE"
);
}
);
};
guideLines = (
{
angle = 68.7799;
position = "{371, 235}";
}
);
layerId = "014D4A40-7C7F-4023-B30E-1F55CE5EA091";
paths = (
{
closed = 1;
nodes = (
"298 33 LINE",
"362 33 LINE",
"168 710 LINE",
"2 710 LINE",
"214 0 LINE",
"433 0 LINE",
"687 710 LINE",
"532 710 LINE"
);
}
);
width = 666;
}
);
unicode = 0056;
},
{
color = 3;
glyphname = W;
lastChange = "2019-03-12 13:09:29 +0000";
layers = (
{
background = {
paths = (
{
closed = 1;
nodes = (
"1600 24 LINE",
"1639 23 LINE",
"1495 497 LINE",
"1411 497 LINE",
"1236 24 LINE",
"1278 23 LINE",
"1136 497 LINE",
"1050 497 LINE",
"1206 0 LINE",
"1302 0 LINE",
"1462 427 LINE",
"1439 427 LINE",
"1571 0 LINE",
"1667 0 LINE",
"1852 497 LINE",
"1769 497 LINE"
);
},
{
closed = 1;
nodes = (
"655 71 LINE",
"722 70 LINE",
"575 710 LINE",
"390 710 LINE",
"213 71 LINE",
"285 70 LINE",
"134 710 LINE",
"-25 710 LINE",
"152 0 LINE",
"329 0 LINE",
"480 541 LINE",
"466 541 LINE",
"592 0 LINE",
"769 0 LINE",
"972 710 LINE",
"829 710 LINE"
);
}
);
};
layerId = "A3B50665-EA37-4AC6-885C-1233CA61B6BD";
paths = (
{
closed = 1;
nodes = (
"664 24 LINE",
"705 23 LINE",
"538 710 LINE",
"450 710 LINE",
"252 24 LINE",
"292 23 LINE",
"128 710 LINE",
"44 710 LINE",
"220 0 LINE",
"316 0 LINE",
"501 640 LINE",
"478 640 LINE",
"635 0 LINE",
"731 0 LINE",
"937 710 LINE",
"856 710 LINE"
);
}
);
width = 966;
},
{
background = {
paths = (
{
closed = 1;
nodes = (
"665 46 LINE",
"720 46 LINE",
"591 508 LINE",
"451 508 LINE",
"300 46 LINE",
"357 46 LINE",
"226 508 LINE",
"77 508 LINE",
"235 0 LINE",
"411 0 LINE",
"526 339 LINE",
"510 339 LINE",
"607 0 LINE",
"783 0 LINE",
"958 508 LINE",
"816 508 LINE"
);
}
);
};
layerId = "014D4A40-7C7F-4023-B30E-1F55CE5EA091";
paths = (
{
closed = 1;
nodes = (
"701 67 LINE",
"767 66 LINE",
"620 710 LINE",
"436 710 LINE",
"259 67 LINE",
"329 66 LINE",
"178 710 LINE",
"21 710 LINE",
"198 0 LINE",
"375 0 LINE",
"526 541 LINE",
"512 541 LINE",
"638 0 LINE",
"815 0 LINE",
"1020 710 LINE",
"877 710 LINE"
);
}
);
width = 1024;
}
);
unicode = 0057;
},
{
color = 3;
glyphname = X;
lastChange = "2019-03-12 13:09:29 +0000";
layers = (
{
background = {
paths = (
{
closed = 1;
nodes = (
"594 0 LINE",
"118 710 LINE",
"25 710 LINE",
"499 0 LINE"
);
},
{
closed = 1;
nodes = (
"583 710 LINE",
"496 710 LINE",
"13 0 LINE",
"104 0 LINE"
);
}
);
};
layerId = "A3B50665-EA37-4AC6-885C-1233CA61B6BD";
paths = (
{
closed = 1;
nodes = (
"599 0 LINE",
"354 365 LINE",
"312 428 LINE",
"126 710 LINE",
"33 710 LINE",
"264 361 LINE",
"308 296 LINE",
"504 0 LINE"
);
},
{
closed = 1;
nodes = (
"308 296 LINE",
"354 365 LINE",
"588 710 LINE",
"501 710 LINE",
"312 428 LINE",
"264 361 LINE",
"18 0 LINE",
"109 0 LINE"
);
}
);
width = 620;
},
{
background = {
paths = (
{
closed = 1;
nodes = (
"1345 0 LINE",
"892 710 LINE",
"721 710 LINE",
"1171 0 LINE"
);
},
{
closed = 1;
nodes = (
"1335 710 LINE",
"1173 710 LINE",
"709 0 LINE",
"872 0 LINE"
);
},
{
closed = 1;
nodes = (
"647 0 LINE",
"194 710 LINE",
"19 710 LINE",
"469 0 LINE"
);
},
{
closed = 1;
nodes = (
"637 710 LINE",
"471 710 LINE",
"7 0 LINE",
"174 0 LINE"
);
}
);
};
layerId = "014D4A40-7C7F-4023-B30E-1F55CE5EA091";
paths = (
{
closed = 1;
nodes = (
"645 0 LINE",
"412 367 LINE",
"332 491 LINE",
"195 710 LINE",
"20 710 LINE",
"243 359 LINE",
"326 232 LINE",
"467 0 LINE"
);
},
{
closed = 1;
nodes = (
"326 232 LINE",
"412 367 LINE",
"635 710 LINE",
"469 710 LINE",
"332 491 LINE",
"243 359 LINE",
"7 0 LINE",
"178 0 LINE"
);
}
);
width = 656;
}
);
unicode = 0058;
},
{
color = 3;
glyphname = Y;
lastChange = "2019-03-12 13:09:29 +0000";
layers = (
{
background = {
paths = (
{
closed = 1;
nodes = (
"293 422 LINE",
"103 710 LINE",
"10 710 LINE",
"262 329 LINE",
"311 323 LINE",
"565 710 LINE",
"478 710 LINE"
);
},
{
closed = 1;
nodes = (
"331 0 LINE",
"331 410 LINE",
"248 410 LINE",
"248 0 LINE"
);
}
);
};
layerId = "A3B50665-EA37-4AC6-885C-1233CA61B6BD";
paths = (
{
closed = 1;
nodes = (
"298 392 LINE",
"88 710 LINE",
"-5 710 LINE",
"267 299 LINE",
"316 293 LINE",
"589 710 LINE",
"502 710 LINE"
);
},
{
closed = 1;
nodes = (
"336 0 LINE",
"336 370 LINE",
"253 370 LINE",
"253 0 LINE"
);
}
);
width = 589;
},
{
background = {
paths = (
{
closed = 1;
nodes = (
"313 481 LINE",
"169 710 LINE",
"-6 710 LINE",
"255 299 LINE",
"349 289 LINE",
"609 710 LINE",
"443 710 LINE"
);
},
{
closed = 1;
nodes = (
"384 0 LINE",
"384 418 LINE",
"228 418 LINE",
"228 0 LINE"
);
}
);
};
layerId = "014D4A40-7C7F-4023-B30E-1F55CE5EA091";
paths = (
{
closed = 1;
nodes = (
"313 451 LINE",
"150 710 LINE",
"-25 710 LINE",
"255 269 LINE",
"349 259 LINE",
"626 710 LINE",
"460 710 LINE"
);
},
{
closed = 1;
nodes = (
"384 0 LINE",
"384 418 LINE",
"228 418 LINE",
"228 0 LINE"
);
}
);
width = 612;
}
);
unicode = 0059;
},
{
color = 3;
glyphname = Z;
lastChange = "2019-03-12 13:09:29 +0000";
layers = (
{
background = {
paths = (
{
closed = 1;
nodes = (
"580 0 LINE",
"580 67 LINE",
"118 67 LINE",
"123 27 LINE",
"575 655 LINE",
"575 710 LINE",
"64 710 LINE",
"64 645 LINE",
"509 645 LINE",
"501 683 LINE",
"49 55 LINE",
"49 0 LINE"
);
}
);
};
layerId = "A3B50665-EA37-4AC6-885C-1233CA61B6BD";
paths = (
{
closed = 1;
nodes = (
"585 0 LINE",
"585 71 LINE",
"123 71 LINE",
"126 27 LINE",
"580 650 LINE",
"580 710 LINE",
"69 710 LINE",
"69 641 LINE",
"514 641 LINE",
"508 683 LINE",
"54 60 LINE",
"54 0 LINE"
);
}
);
width = 628;
},
{
background = {
paths = (
{
closed = 1;
nodes = (
"669 0 LINE",
"669 710 LINE",
"513 710 LINE",
"513 0 LINE"
);
},
{
closed = 1;
nodes = (
"207 0 LINE",
"207 710 LINE",
"51 710 LINE",
"51 0 LINE"
);
},
{
closed = 1;
nodes = (
"609 290 LINE",
"609 426 LINE",
"99 426 LINE",
"99 290 LINE"
);
}
);
};
layerId = "014D4A40-7C7F-4023-B30E-1F55CE5EA091";
paths = (
{
closed = 1;
nodes = (
"622 0 LINE",
"622 135 LINE",
"196 135 LINE",
"215 84 LINE",
"620 598 LINE",
"620 710 LINE",
"69 710 LINE",
"69 575 LINE",
"473 575 LINE",
"456 626 LINE",
"51 112 LINE",
"51 0 LINE"
);
}
);
width = 664;
}
);
unicode = 005A;
},
{
color = 4;
glyphname = a;
lastChange = "2019-03-12 21:07:29 +0000";
layers = (
{
background = {
paths = (
{
closed = 1;
nodes = (
"301 -8 OFFCURVE",
"380 57 OFFCURVE",
"429 167 CURVE",
"416 154 LINE",
"403 104 OFFCURVE",
"396 53 OFFCURVE",
"396 0 CURVE",
"472 0 LINE",
"472 50 OFFCURVE",
"480 115 OFFCURVE",
"490 169 CURVE SMOOTH",
"517 322 LINE SMOOTH",
"527 381 OFFCURVE",
"539 439 OFFCURVE",
"552 498 CURVE",
"493 498 LINE",
"464 426 LINE",
"484 452 LINE",
"464 478 OFFCURVE",
"407 507 OFFCURVE",
"334 507 CURVE SMOOTH",
"165 507 OFFCURVE",
"41 349 OFFCURVE",
"41 170 CURVE SMOOTH",
"41 58 OFFCURVE",
"100 -8 OFFCURVE",
"208 -8 CURVE SMOOTH"
);
},
{
closed = 1;
nodes = (
"158 64 OFFCURVE",
"123 105 OFFCURVE",
"123 177 CURVE SMOOTH",
"123 306 OFFCURVE",
"202 436 OFFCURVE",
"330 436 CURVE SMOOTH",
"392 436 OFFCURVE",
"435 418 OFFCURVE",
"464 380 CURVE",
"456 415 LINE",
"433 289 LINE SMOOTH",
"410 162 OFFCURVE",
"319 64 OFFCURVE",
"222 64 CURVE SMOOTH"
);
}
);
};
layerId = "A3B50665-EA37-4AC6-885C-1233CA61B6BD";
paths = (
{
closed = 1;
nodes = (
"305 -8 OFFCURVE",
"385 57 OFFCURVE",
"434 167 CURVE",
"421 154 LINE",
"408 104 OFFCURVE",
"401 53 OFFCURVE",
"401 0 CURVE",
"477 0 LINE",
"477 50 OFFCURVE",
"485 115 OFFCURVE",
"495 169 CURVE SMOOTH",
"522 322 LINE SMOOTH",
"532 381 OFFCURVE",
"544 439 OFFCURVE",
"557 498 CURVE",
"498 498 LINE",
"469 426 LINE",
"489 452 LINE",
"469 478 OFFCURVE",
"412 507 OFFCURVE",
"339 507 CURVE SMOOTH",
"170 507 OFFCURVE",
"46 349 OFFCURVE",
"46 170 CURVE SMOOTH",
"46 58 OFFCURVE",
"104 -8 OFFCURVE",
"210 -8 CURVE SMOOTH"
);
},
{
closed = 1;
nodes = (
"163 64 OFFCURVE",
"128 105 OFFCURVE",
"128 177 CURVE SMOOTH",
"128 306 OFFCURVE",
"207 436 OFFCURVE",
"335 436 CURVE SMOOTH",
"397 436 OFFCURVE",
"440 418 OFFCURVE",
"469 380 CURVE",
"461 415 LINE",
"438 289 LINE SMOOTH",
"415 162 OFFCURVE",
"324 64 OFFCURVE",
"227 64 CURVE SMOOTH"
);
}
);
width = 592;
},
{
background = {
hints = (
{
horizontal = 1;
place = "{-8, 129}";
type = Stem;
},
{
horizontal = 1;
place = "{386, 129}";
type = Stem;
},
{
horizontal = 1;
place = "{672, -20}";
target = down;
type = TopGhost;
},
{
place = "{46, 134}";
type = Stem;
},
{
place = "{366, 134}";
type = Stem;
},
{
horizontal = 1;
place = "{0, 21}";
target = up;
type = BottomGhost;
},
{
place = "{385, 115}";
type = Stem;
}
);
paths = (
{
closed = 1;
nodes = (
"1902 506 LINE",
"1869 422 LINE",
"1886 442 LINE",
"1870 485 OFFCURVE",
"1820 516 OFFCURVE",
"1749 516 CURVE SMOOTH",
"1597 516 OFFCURVE",
"1464 398 OFFCURVE",
"1433 223 CURVE SMOOTH",
"1409 88 OFFCURVE",
"1463 -10 OFFCURVE",
"1603 -10 CURVE SMOOTH",
"1705 -10 OFFCURVE",
"1787 49 OFFCURVE",
"1836 155 CURVE",
"1805 155 LINE",
"1797 127 OFFCURVE",
"1784 67 OFFCURVE",
"1777 30 CURVE SMOOTH",
"1771 0 LINE",
"1917 0 LINE",
"2007 506 LINE"
);
},
{
closed = 1;
nodes = (
"1802 389 OFFCURVE",
"1833 347 OFFCURVE",
"1820 278 CURVE SMOOTH",
"1803 187 OFFCURVE",
"1736 118 OFFCURVE",
"1663 118 CURVE SMOOTH",
"1605 118 OFFCURVE",
"1577 160 OFFCURVE",
"1590 234 CURVE SMOOTH",
"1606 325 OFFCURVE",
"1665 389 OFFCURVE",
"1741 389 CURVE SMOOTH"
);
},
{
closed = 1;
nodes = (
"1207 506 LINE",
"1167 422 LINE",
"1211 466 LINE",
"1153 507 OFFCURVE",
"1100 516 OFFCURVE",
"1044 516 CURVE SMOOTH",
"875 516 OFFCURVE",
"731 377 OFFCURVE",
"731 184 CURVE SMOOTH",
"731 63 OFFCURVE",
"800 -10 OFFCURVE",
"914 -10 CURVE SMOOTH",
"1010 -10 OFFCURVE",
"1086 49 OFFCURVE",
"1130 177 CURVE",
"1114 155 LINE",
"1101 124 OFFCURVE",
"1084 65 OFFCURVE",
"1078 30 CURVE SMOOTH",
"1073 0 LINE",
"1218 0 LINE",
"1284 375 LINE SMOOTH",
"1291 415 OFFCURVE",
"1301 463 OFFCURVE",
"1312 506 CURVE"
);
},
{
closed = 1;
nodes = (
"1074 391 OFFCURVE",
"1108 384 OFFCURVE",
"1133 366 CURVE",
"1123 312 LINE SMOOTH",
"1102 197 OFFCURVE",
"1040 118 OFFCURVE",
"967 118 CURVE SMOOTH",
"916 118 OFFCURVE",
"888 150 OFFCURVE",
"888 208 CURVE SMOOTH",
"888 299 OFFCURVE",
"940 391 OFFCURVE",
"1043 391 CURVE SMOOTH"
);
},
{
closed = 1;
nodes = (
"168 516 OFFCURVE",
"32 373 OFFCURVE",
"32 190 CURVE SMOOTH",
"32 64 OFFCURVE",
"115 -10 OFFCURVE",
"247 -10 CURVE SMOOTH",
"431 -10 OFFCURVE",
"567 134 OFFCURVE",
"567 316 CURVE SMOOTH",
"567 442 OFFCURVE",
"483 516 OFFCURVE",
"354 516 CURVE SMOOTH"
);
},
{
closed = 1;
nodes = (
"214 117 OFFCURVE",
"184 152 OFFCURVE",
"184 209 CURVE SMOOTH",
"184 298 OFFCURVE",
"240 389 OFFCURVE",
"330 389 CURVE SMOOTH",
"385 389 OFFCURVE",
"416 356 OFFCURVE",
"416 298 CURVE SMOOTH",
"416 196 OFFCURVE",
"351 117 OFFCURVE",
"271 117 CURVE SMOOTH"
);
}
);
};
layerId = "014D4A40-7C7F-4023-B30E-1F55CE5EA091";
paths = (
{
closed = 1;
nodes = (
"312 -10 OFFCURVE",
"382 41 OFFCURVE",
"433 177 CURVE",
"411 155 LINE",
"395 116 OFFCURVE",
"383 51 OFFCURVE",
"383 0 CURVE",
"530 0 LINE",
"530 46 OFFCURVE",
"537 108 OFFCURVE",
"549 173 CURVE SMOOTH",
"576 325 LINE SMOOTH",
"587 385 OFFCURVE",
"601 459 OFFCURVE",
"612 506 CURVE",
"507 506 LINE",
"467 422 LINE",
"506 466 LINE",
"465 501 OFFCURVE",
"410 516 OFFCURVE",
"348 516 CURVE SMOOTH",
"171 516 OFFCURVE",
"31 372 OFFCURVE",
"31 184 CURVE SMOOTH",
"31 63 OFFCURVE",
"102 -10 OFFCURVE",
"218 -10 CURVE SMOOTH"
);
},
{
closed = 1;
nodes = (
"216 118 OFFCURVE",
"188 150 OFFCURVE",
"188 208 CURVE SMOOTH",
"188 299 OFFCURVE",
"244 391 OFFCURVE",
"347 391 CURVE SMOOTH",
"388 391 OFFCURVE",
"430 382 OFFCURVE",
"455 344 CURVE",
"440 408 LINE",
"423 312 LINE SMOOTH",
"403 197 OFFCURVE",
"340 118 OFFCURVE",
"267 118 CURVE SMOOTH"
);
}
);
width = 632;
}
);
leftKerningGroup = o;
note = d;
unicode = 0061;
},
{
color = 4;
glyphname = b;
lastChange = "2019-03-12 21:09:02 +0000";
layers = (
{
background = {
paths = (
{
closed = 1;
nodes = (
"698 0 LINE",
"722 83 LINE",
"713 81 LINE",
"721 29 OFFCURVE",
"771 -8 OFFCURVE",
"840 -8 CURVE SMOOTH",
"985 -8 OFFCURVE",
"1107 112 OFFCURVE",
"1137 282 CURVE SMOOTH",
"1160 414 OFFCURVE",
"1108 507 OFFCURVE",
"983 507 CURVE SMOOTH",
"888 507 OFFCURVE",
"803 443 OFFCURVE",
"752 339 CURVE",
"769 345 LINE",
"776 373 OFFCURVE",
"783 401 OFFCURVE",
"788 429 CURVE SMOOTH",
"843 740 LINE",
"765 740 LINE",
"634 0 LINE"
);
},
{
closed = 1;
nodes = (
"772 64 OFFCURVE",
"733 120 OFFCURVE",
"749 213 CURVE SMOOTH",
"771 340 OFFCURVE",
"863 436 OFFCURVE",
"960 436 CURVE SMOOTH",
"1036 436 OFFCURVE",
"1073 377 OFFCURVE",
"1055 277 CURVE SMOOTH",
"1032 149 OFFCURVE",
"953 64 OFFCURVE",
"853 64 CURVE SMOOTH"
);
},
{
closed = 1;
nodes = (
"281 507 OFFCURVE",
"202 442 OFFCURVE",
"153 332 CURVE",
"166 345 LINE",
"179 395 OFFCURVE",
"186 446 OFFCURVE",
"186 499 CURVE",
"110 499 LINE",
"110 449 OFFCURVE",
"102 384 OFFCURVE",
"92 330 CURVE SMOOTH",
"65 177 LINE SMOOTH",
"55 118 OFFCURVE",
"43 60 OFFCURVE",
"30 1 CURVE",
"89 1 LINE",
"118 73 LINE",
"98 47 LINE",
"118 21 OFFCURVE",
"175 -8 OFFCURVE",
"248 -8 CURVE SMOOTH",
"417 -8 OFFCURVE",
"541 150 OFFCURVE",
"541 329 CURVE SMOOTH",
"541 441 OFFCURVE",
"482 507 OFFCURVE",
"374 507 CURVE SMOOTH"
);
},
{
closed = 1;
nodes = (
"424 435 OFFCURVE",
"459 394 OFFCURVE",
"459 322 CURVE SMOOTH",
"459 193 OFFCURVE",
"380 63 OFFCURVE",
"252 63 CURVE SMOOTH",
"190 63 OFFCURVE",
"147 81 OFFCURVE",
"118 119 CURVE",
"126 84 LINE",
"149 210 LINE SMOOTH",
"172 337 OFFCURVE",
"263 435 OFFCURVE",
"360 435 CURVE SMOOTH"
);
}
);
};
layerId = "A3B50665-EA37-4AC6-885C-1233CA61B6BD";
paths = (
{
closed = 1;
nodes = (
"422 -8 OFFCURVE",
"546 150 OFFCURVE",
"546 329 CURVE SMOOTH",
"546 441 OFFCURVE",
"489 507 OFFCURVE",
"383 507 CURVE SMOOTH",
"288 507 OFFCURVE",
"207 442 OFFCURVE",
"158 332 CURVE",
"174 345 LINE",
"181 373 OFFCURVE",
"188 401 OFFCURVE",
"193 429 CURVE SMOOTH",
"248 740 LINE",
"170 740 LINE",
"70 177 LINE SMOOTH",
"60 118 OFFCURVE",
"48 60 OFFCURVE",
"35 0 CURVE",
"93 0 LINE",
"127 83 LINE",
"103 47 LINE",
"125 22 OFFCURVE",
"184 -8 OFFCURVE",
"253 -8 CURVE SMOOTH"
);
},
{
closed = 1;
nodes = (
"195 63 OFFCURVE",
"152 81 OFFCURVE",
"123 119 CURVE",
"131 84 LINE",
"154 210 LINE SMOOTH",
"177 337 OFFCURVE",
"268 435 OFFCURVE",
"365 435 CURVE SMOOTH",
"429 435 OFFCURVE",
"464 394 OFFCURVE",
"464 322 CURVE SMOOTH",
"464 193 OFFCURVE",
"385 63 OFFCURVE",
"257 63 CURVE SMOOTH"
);
}
);
width = 592;
},
{
background = {
paths = (
{
closed = 1;
nodes = (
"829 0 LINE",
"861 84 LINE",
"844 64 LINE",
"860 21 OFFCURVE",
"910 -10 OFFCURVE",
"981 -10 CURVE SMOOTH",
"1133 -10 OFFCURVE",
"1267 108 OFFCURVE",
"1298 283 CURVE SMOOTH",
"1322 418 OFFCURVE",
"1268 516 OFFCURVE",
"1128 516 CURVE SMOOTH",
"1026 516 OFFCURVE",
"943 457 OFFCURVE",
"895 351 CURVE",
"926 351 LINE",
"933 379 OFFCURVE",
"947 439 OFFCURVE",
"954 477 CURVE SMOOTH",
"1000 740 LINE",
"854 740 LINE",
"724 0 LINE"
);
},
{
closed = 1;
nodes = (
"928 118 OFFCURVE",
"898 160 OFFCURVE",
"910 229 CURVE SMOOTH",
"926 320 OFFCURVE",
"994 389 OFFCURVE",
"1067 389 CURVE SMOOTH",
"1125 389 OFFCURVE",
"1154 347 OFFCURVE",
"1141 273 CURVE SMOOTH",
"1125 182 OFFCURVE",
"1065 118 OFFCURVE",
"989 118 CURVE SMOOTH"
);
},
{
closed = 1;
nodes = (
"125 0 LINE",
"165 84 LINE",
"126 40 LINE",
"169 3 OFFCURVE",
"222 -10 OFFCURVE",
"284 -10 CURVE SMOOTH",
"457 -10 OFFCURVE",
"601 129 OFFCURVE",
"601 322 CURVE SMOOTH",
"601 443 OFFCURVE",
"530 516 OFFCURVE",
"414 516 CURVE SMOOTH",
"320 516 OFFCURVE",
"246 457 OFFCURVE",
"202 329 CURVE",
"220 351 LINE",
"236 390 OFFCURVE",
"248 455 OFFCURVE",
"248 506 CURVE",
"102 506 LINE",
"102 460 OFFCURVE",
"95 398 OFFCURVE",
"83 333 CURVE SMOOTH",
"56 181 LINE SMOOTH",
"45 121 OFFCURVE",
"31 47 OFFCURVE",
"20 0 CURVE"
);
},
{
closed = 1;
nodes = (
"244 115 OFFCURVE",
"202 124 OFFCURVE",
"177 162 CURVE",
"192 98 LINE",
"209 194 LINE SMOOTH",
"229 309 OFFCURVE",
"292 388 OFFCURVE",
"365 388 CURVE SMOOTH",
"416 388 OFFCURVE",
"444 356 OFFCURVE",
"444 298 CURVE SMOOTH",
"444 207 OFFCURVE",
"388 115 OFFCURVE",
"285 115 CURVE SMOOTH"
);
}
);
};
layerId = "014D4A40-7C7F-4023-B30E-1F55CE5EA091";
paths = (
{
closed = 1;
nodes = (
"457 -10 OFFCURVE",
"601 129 OFFCURVE",
"601 322 CURVE SMOOTH",
"601 443 OFFCURVE",
"530 516 OFFCURVE",
"414 516 CURVE SMOOTH",
"320 516 OFFCURVE",
"246 457 OFFCURVE",
"202 329 CURVE",
"227 351 LINE",
"234 379 OFFCURVE",
"248 439 OFFCURVE",
"255 477 CURVE SMOOTH",
"301 740 LINE",
"155 740 LINE",
"56 181 LINE SMOOTH",
"45 121 OFFCURVE",
"31 47 OFFCURVE",
"20 0 CURVE",
"125 0 LINE",
"165 84 LINE",
"126 40 LINE",
"169 3 OFFCURVE",
"222 -10 OFFCURVE",
"284 -10 CURVE SMOOTH"
);
},
{
closed = 1;
nodes = (
"244 115 OFFCURVE",
"202 124 OFFCURVE",
"177 162 CURVE",
"192 98 LINE",
"209 194 LINE SMOOTH",
"229 309 OFFCURVE",
"292 388 OFFCURVE",
"365 388 CURVE SMOOTH",
"416 388 OFFCURVE",
"444 356 OFFCURVE",
"444 298 CURVE SMOOTH",
"444 207 OFFCURVE",
"388 115 OFFCURVE",
"285 115 CURVE SMOOTH"
);
}
);
width = 632;
}
);
note = b;
rightKerningGroup = o;
unicode = 0062;
},
{
glyphname = c;
lastChange = "2019-03-12 13:09:29 +0000";
layers = (
{
background = {
paths = (
{
closed = 1;
nodes = (
"147 507 OFFCURVE",
"52 392 OFFCURVE",
"52 240 CURVE SMOOTH",
"52 87 OFFCURVE",
"137 -8 OFFCURVE",
"278 -8 CURVE SMOOTH",
"419 -8 OFFCURVE",
"515 107 OFFCURVE",
"515 259 CURVE SMOOTH",
"515 412 OFFCURVE",
"430 507 OFFCURVE",
"292 507 CURVE SMOOTH"
);
},
{
closed = 1;
nodes = (
"186 63 OFFCURVE",
"132 126 OFFCURVE",
"132 240 CURVE SMOOTH",
"132 356 OFFCURVE",
"195 436 OFFCURVE",
"293 436 CURVE SMOOTH",
"381 436 OFFCURVE",
"435 373 OFFCURVE",
"435 259 CURVE SMOOTH",
"435 142 OFFCURVE",
"372 63 OFFCURVE",
"278 63 CURVE SMOOTH"
);
},
{
closed = 1;
nodes = (
"975 -8 OFFCURVE",
"1041 18 OFFCURVE",
"1090 87 CURVE",
"1031 140 LINE",
"994 83 OFFCURVE",
"949 66 OFFCURVE",
"895 66 CURVE SMOOTH",
"795 66 OFFCURVE",
"734 123 OFFCURVE",
"734 240 CURVE SMOOTH",
"734 357 OFFCURVE",
"801 434 OFFCURVE",
"903 434 CURVE SMOOTH",
"949 434 OFFCURVE",
"994 418 OFFCURVE",
"1031 361 CURVE",
"1090 412 LINE",
"1042 486 OFFCURVE",
"975 507 OFFCURVE",
"905 507 CURVE SMOOTH",
"749 507 OFFCURVE",
"652 394 OFFCURVE",
"652 240 CURVE SMOOTH",
"652 84 OFFCURVE",
"742 -8 OFFCURVE",
"892 -8 CURVE SMOOTH"
);
}
);
};
guideLines = (
{
angle = 90;
position = "{446, 142}";
}
);
layerId = "A3B50665-EA37-4AC6-885C-1233CA61B6BD";
paths = (
{
closed = 1;
nodes = (
"376 -8 OFFCURVE",
"440 24 OFFCURVE",
"481 89 CURVE",
"424 134 LINE",
"394 86 OFFCURVE",
"348 65 OFFCURVE",
"295 65 CURVE SMOOTH",
"194 65 OFFCURVE",
"139 126 OFFCURVE",
"139 240 CURVE SMOOTH",
"139 358 OFFCURVE",
"204 435 OFFCURVE",
"302 435 CURVE SMOOTH",
"356 435 OFFCURVE",
"395 413 OFFCURVE",
"422 365 CURVE",
"481 410 LINE",
"443 475 OFFCURVE",
"385 507 OFFCURVE",
"304 507 CURVE SMOOTH",
"157 507 OFFCURVE",
"57 399 OFFCURVE",
"57 240 CURVE SMOOTH",
"57 84 OFFCURVE",
"145 -8 OFFCURVE",
"292 -8 CURVE SMOOTH"
);
}
);
width = 508;
},
{
background = {
paths = (
{
closed = 1;
nodes = (
"143 516 OFFCURVE",
"38 399 OFFCURVE",
"38 241 CURVE SMOOTH",
"38 87 OFFCURVE",
"130 -10 OFFCURVE",
"283 -10 CURVE SMOOTH",
"445 -10 OFFCURVE",
"551 107 OFFCURVE",
"551 265 CURVE SMOOTH",
"551 419 OFFCURVE",
"458 516 OFFCURVE",
"305 516 CURVE SMOOTH"
);
},
{
closed = 1;
nodes = (
"225 117 OFFCURVE",
"188 163 OFFCURVE",
"188 241 CURVE SMOOTH",
"188 331 OFFCURVE",
"232 389 OFFCURVE",
"301 389 CURVE SMOOTH",
"363 389 OFFCURVE",
"401 343 OFFCURVE",
"401 265 CURVE SMOOTH",
"401 175 OFFCURVE",
"357 117 OFFCURVE",
"290 117 CURVE SMOOTH"
);
},
{
closed = 1;
nodes = (
"-321 -10 OFFCURVE",
"-244 18 OFFCURVE",
"-193 95 CURVE",
"-293 176 LINE",
"-317 136 OFFCURVE",
"-353 120 OFFCURVE",
"-393 120 CURVE SMOOTH",
"-469 120 OFFCURVE",
"-510 164 OFFCURVE",
"-510 246 CURVE SMOOTH",
"-510 331 OFFCURVE",
"-459 387 OFFCURVE",
"-388 387 CURVE SMOOTH",
"-346 387 OFFCURVE",
"-316 368 OFFCURVE",
"-295 332 CURVE",
"-192 410 LINE",
"-236 484 OFFCURVE",
"-302 516 OFFCURVE",
"-391 516 CURVE SMOOTH",
"-552 516 OFFCURVE",
"-662 406 OFFCURVE",
"-662 244 CURVE SMOOTH",
"-662 84 OFFCURVE",
"-565 -10 OFFCURVE",
"-404 -10 CURVE SMOOTH"
);
}
);
};
layerId = "014D4A40-7C7F-4023-B30E-1F55CE5EA091";
paths = (
{
closed = 1;
nodes = (
"380 -10 OFFCURVE",
"457 18 OFFCURVE",
"503 95 CURVE",
"403 176 LINE",
"380 136 OFFCURVE",
"344 120 OFFCURVE",
"305 120 CURVE SMOOTH",
"230 120 OFFCURVE",
"190 164 OFFCURVE",
"190 246 CURVE SMOOTH",
"190 331 OFFCURVE",
"240 387 OFFCURVE",
"310 387 CURVE SMOOTH",
"351 387 OFFCURVE",
"380 368 OFFCURVE",
"401 332 CURVE",
"504 410 LINE",
"460 484 OFFCURVE",
"395 516 OFFCURVE",
"307 516 CURVE SMOOTH",
"147 516 OFFCURVE",
"38 406 OFFCURVE",
"38 244 CURVE SMOOTH",
"38 84 OFFCURVE",
"138 -10 OFFCURVE",
"294 -10 CURVE SMOOTH"
);
}
);
width = 507;
}
);
leftKerningGroup = o;
unicode = 0063;
},
{
color = 4;
glyphname = d;
lastChange = "2019-03-12 21:09:39 +0000";
layers = (
{
background = {
paths = (
{
closed = 1;
nodes = (
"301 -8 OFFCURVE",
"380 57 OFFCURVE",
"429 167 CURVE",
"416 154 LINE",
"403 104 OFFCURVE",
"396 53 OFFCURVE",
"396 0 CURVE",
"472 0 LINE",
"472 50 OFFCURVE",
"481 115 OFFCURVE",
"490 169 CURVE SMOOTH",
"591 740 LINE",
"513 740 LINE",
"472 507 LINE SMOOTH",
"468 483 OFFCURVE",
"464 450 OFFCURVE",
"461 426 CURVE",
"484 452 LINE",
"464 478 OFFCURVE",
"407 507 OFFCURVE",
"334 507 CURVE SMOOTH",
"165 507 OFFCURVE",
"41 349 OFFCURVE",
"41 170 CURVE SMOOTH",
"41 58 OFFCURVE",
"100 -8 OFFCURVE",
"208 -8 CURVE SMOOTH"
);
},
{
closed = 1;
nodes = (
"158 64 OFFCURVE",
"123 105 OFFCURVE",
"123 177 CURVE SMOOTH",
"123 306 OFFCURVE",
"202 436 OFFCURVE",
"330 436 CURVE SMOOTH",
"392 436 OFFCURVE",
"435 418 OFFCURVE",
"464 380 CURVE",
"456 415 LINE",
"433 289 LINE SMOOTH",
"410 162 OFFCURVE",
"319 64 OFFCURVE",
"222 64 CURVE SMOOTH"
);
}
);
};
layerId = "A3B50665-EA37-4AC6-885C-1233CA61B6BD";
paths = (
{
closed = 1;
nodes = (
"305 -8 OFFCURVE",
"385 57 OFFCURVE",
"434 167 CURVE",
"421 154 LINE",
"408 104 OFFCURVE",
"401 53 OFFCURVE",
"401 0 CURVE",
"477 0 LINE",
"477 50 OFFCURVE",
"486 115 OFFCURVE",
"495 169 CURVE SMOOTH",
"596 740 LINE",
"518 740 LINE",
"477 507 LINE SMOOTH",
"473 483 OFFCURVE",
"469 450 OFFCURVE",
"466 426 CURVE",
"489 452 LINE",
"469 478 OFFCURVE",
"412 507 OFFCURVE",
"339 507 CURVE SMOOTH",
"170 507 OFFCURVE",
"46 349 OFFCURVE",
"46 170 CURVE SMOOTH",
"46 58 OFFCURVE",
"104 -8 OFFCURVE",
"210 -8 CURVE SMOOTH"
);
},
{
closed = 1;
nodes = (
"163 64 OFFCURVE",
"128 105 OFFCURVE",
"128 177 CURVE SMOOTH",
"128 306 OFFCURVE",
"207 436 OFFCURVE",
"335 436 CURVE SMOOTH",
"397 436 OFFCURVE",
"440 418 OFFCURVE",
"469 380 CURVE",
"461 415 LINE",
"438 289 LINE SMOOTH",
"415 162 OFFCURVE",
"324 64 OFFCURVE",
"227 64 CURVE SMOOTH"
);
}
);
width = 592;
},
{
background = {
paths = (
{
closed = 1;
nodes = (
"1116 740 LINE",
"1116 549 LINE SMOOTH",
"1116 507 OFFCURVE",
"1120 454 OFFCURVE",
"1123 422 CURVE",
"1153 436 LINE",
"1129 483 OFFCURVE",
"1074 516 OFFCURVE",
"1003 516 CURVE SMOOTH",
"851 516 OFFCURVE",
"738 398 OFFCURVE",
"738 223 CURVE SMOOTH",
"738 88 OFFCURVE",
"809 -10 OFFCURVE",
"949 -10 CURVE SMOOTH",
"1051 -10 OFFCURVE",
"1123 49 OFFCURVE",
"1153 155 CURVE",
"1122 155 LINE",
"1119 127 OFFCURVE",
"1116 67 OFFCURVE",
"1116 29 CURVE SMOOTH",
"1116 0 LINE",
"1262 0 LINE",
"1262 740 LINE"
);
},
{
closed = 1;
nodes = (
"1078 389 OFFCURVE",
"1116 347 OFFCURVE",
"1116 278 CURVE SMOOTH",
"1116 187 OFFCURVE",
"1060 118 OFFCURVE",
"987 118 CURVE SMOOTH",
"929 118 OFFCURVE",
"893 160 OFFCURVE",
"893 234 CURVE SMOOTH",
"893 325 OFFCURVE",
"941 389 OFFCURVE",
"1017 389 CURVE SMOOTH"
);
},
{
closed = 1;
nodes = (
"507 506 LINE",
"467 422 LINE",
"506 466 LINE",
"463 503 OFFCURVE",
"410 516 OFFCURVE",
"348 516 CURVE SMOOTH",
"175 516 OFFCURVE",
"31 377 OFFCURVE",
"31 184 CURVE SMOOTH",
"31 63 OFFCURVE",
"102 -10 OFFCURVE",
"218 -10 CURVE SMOOTH",
"312 -10 OFFCURVE",
"386 49 OFFCURVE",
"430 177 CURVE",
"412 155 LINE",
"396 116 OFFCURVE",
"384 51 OFFCURVE",
"384 0 CURVE",
"530 0 LINE",
"530 46 OFFCURVE",
"537 108 OFFCURVE",
"549 173 CURVE SMOOTH",
"576 325 LINE SMOOTH",
"587 385 OFFCURVE",
"601 459 OFFCURVE",
"612 506 CURVE"
);
},
{
closed = 1;
nodes = (
"388 391 OFFCURVE",
"430 382 OFFCURVE",
"455 344 CURVE",
"440 408 LINE",
"423 312 LINE SMOOTH",
"403 197 OFFCURVE",
"340 118 OFFCURVE",
"267 118 CURVE SMOOTH",
"216 118 OFFCURVE",
"188 150 OFFCURVE",
"188 208 CURVE SMOOTH",
"188 299 OFFCURVE",
"244 391 OFFCURVE",
"347 391 CURVE SMOOTH"
);
}
);
};
layerId = "014D4A40-7C7F-4023-B30E-1F55CE5EA091";
paths = (
{
closed = 1;
nodes = (
"312 -10 OFFCURVE",
"383 40 OFFCURVE",
"430 177 CURVE",
"412 155 LINE",
"396 116 OFFCURVE",
"384 51 OFFCURVE",
"384 0 CURVE",
"530 0 LINE",
"530 46 OFFCURVE",
"538 108 OFFCURVE",
"549 173 CURVE SMOOTH",
"649 740 LINE",
"503 740 LINE",
"469 549 LINE SMOOTH",
"462 507 OFFCURVE",
"456 454 OFFCURVE",
"453 422 CURVE",
"506 466 LINE",
"463 503 OFFCURVE",
"410 516 OFFCURVE",
"348 516 CURVE SMOOTH",
"175 516 OFFCURVE",
"31 377 OFFCURVE",
"31 184 CURVE SMOOTH",
"31 63 OFFCURVE",
"102 -10 OFFCURVE",
"218 -10 CURVE SMOOTH"
);
},
{
closed = 1;
nodes = (
"216 118 OFFCURVE",
"188 150 OFFCURVE",
"188 208 CURVE SMOOTH",
"188 299 OFFCURVE",
"244 391 OFFCURVE",
"347 391 CURVE SMOOTH",
"388 391 OFFCURVE",
"430 382 OFFCURVE",
"455 344 CURVE",
"440 408 LINE",
"423 312 LINE SMOOTH",
"403 197 OFFCURVE",
"340 118 OFFCURVE",
"267 118 CURVE SMOOTH"
);
}
);
width = 632;
}
);
leftKerningGroup = o;
note = d;
unicode = 0064;
},
{
color = 4;
glyphname = e;
lastChange = "2019-03-12 21:10:44 +0000";
layers = (
{
background = {
paths = (
{
closed = 1;
nodes = (
"343 -8 OFFCURVE",
"412 16 OFFCURVE",
"466 82 CURVE",
"422 134 LINE",
"382 86 OFFCURVE",
"325 64 OFFCURVE",
"275 64 CURVE SMOOTH",
"166 64 OFFCURVE",
"109 126 OFFCURVE",
"130 241 CURVE SMOOTH",
"135 270 LINE SMOOTH",
"151 361 OFFCURVE",
"215 442 OFFCURVE",
"319 442 CURVE SMOOTH",
"403 442 OFFCURVE",
"456 391 OFFCURVE",
"425 272 CURVE",
"447 286 LINE",
"103 286 LINE",
"92 222 LINE",
"484 222 LINE",
"538 410 OFFCURVE",
"461 507 OFFCURVE",
"326 507 CURVE SMOOTH",
"153 507 OFFCURVE",
"47 360 OFFCURVE",
"47 195 CURVE SMOOTH",
"47 63 OFFCURVE",
"138 -8 OFFCURVE",
"263 -8 CURVE SMOOTH"
);
}
);
};
layerId = "A3B50665-EA37-4AC6-885C-1233CA61B6BD";
paths = (
{
closed = 1;
nodes = (
"348 -8 OFFCURVE",
"417 16 OFFCURVE",
"471 82 CURVE",
"428 133 LINE",
"390 86 OFFCURVE",
"330 64 OFFCURVE",
"280 64 CURVE SMOOTH",
"171 64 OFFCURVE",
"114 125 OFFCURVE",
"135 241 CURVE SMOOTH",
"140 270 LINE SMOOTH",
"156 361 OFFCURVE",
"220 442 OFFCURVE",
"329 442 CURVE SMOOTH",
"401 442 OFFCURVE",
"437 410 OFFCURVE",
"437 368 CURVE SMOOTH",
"437 322 OFFCURVE",
"415 288 OFFCURVE",
"322 283 CURVE SMOOTH",
"103 272 LINE",
"103 208 LINE",
"329 219 LINE SMOOTH",
"462 225 OFFCURVE",
"509 292 OFFCURVE",
"509 372 CURVE SMOOTH",
"509 447 OFFCURVE",
"450 507 OFFCURVE",
"335 507 CURVE SMOOTH",
"156 507 OFFCURVE",
"52 360 OFFCURVE",
"52 195 CURVE SMOOTH",
"52 63 OFFCURVE",
"143 -8 OFFCURVE",
"268 -8 CURVE SMOOTH"
);
}
);
width = 548;
},
{
background = {
paths = (
{
closed = 1;
nodes = (
"365 -10 OFFCURVE",
"440 19 OFFCURVE",
"484 71 CURVE",
"416 166 LINE",
"391 139 OFFCURVE",
"343 117 OFFCURVE",
"296 117 CURVE SMOOTH",
"211 117 OFFCURVE",
"171 163 OFFCURVE",
"182 225 CURVE SMOOTH",
"191 276 LINE SMOOTH",
"205 354 OFFCURVE",
"263 411 OFFCURVE",
"334 411 CURVE SMOOTH",
"372 411 OFFCURVE",
"400 394 OFFCURVE",
"400 360 CURVE SMOOTH",
"400 326 OFFCURVE",
"373 308 OFFCURVE",
"320 304 CURVE SMOOTH",
"142 292 LINE",
"142 195 LINE",
"334 208 LINE SMOOTH",
"472 218 OFFCURVE",
"527 286 OFFCURVE",
"527 366 CURVE SMOOTH",
"527 445 OFFCURVE",
"467 516 OFFCURVE",
"338 516 CURVE SMOOTH",
"163 516 OFFCURVE",
"35 379 OFFCURVE",
"34 198 CURVE SMOOTH",
"33 75 OFFCURVE",
"122 -10 OFFCURVE",
"269 -10 CURVE SMOOTH"
);
}
);
};
layerId = "014D4A40-7C7F-4023-B30E-1F55CE5EA091";
paths = (
{
closed = 1;
nodes = (
"365 -10 OFFCURVE",
"440 19 OFFCURVE",
"484 71 CURVE",
"420 164 LINE",
"393 137 OFFCURVE",
"343 115 OFFCURVE",
"296 115 CURVE SMOOTH",
"210 115 OFFCURVE",
"171 163 OFFCURVE",
"182 225 CURVE SMOOTH",
"191 276 LINE SMOOTH",
"205 354 OFFCURVE",
"263 411 OFFCURVE",
"334 411 CURVE SMOOTH",
"372 411 OFFCURVE",
"400 394 OFFCURVE",
"400 360 CURVE SMOOTH",
"400 326 OFFCURVE",
"373 308 OFFCURVE",
"320 304 CURVE SMOOTH",
"142 292 LINE",
"142 195 LINE",
"334 208 LINE SMOOTH",
"476 218 OFFCURVE",
"531 286 OFFCURVE",
"531 366 CURVE SMOOTH",
"531 445 OFFCURVE",
"471 516 OFFCURVE",
"341 516 CURVE SMOOTH",
"163 516 OFFCURVE",
"35 379 OFFCURVE",
"34 198 CURVE SMOOTH",
"33 75 OFFCURVE",
"122 -10 OFFCURVE",
"269 -10 CURVE SMOOTH"
);
}
);
width = 562;
}
);
leftKerningGroup = o;
note = e;
unicode = 0065;
},
{
color = 4;
glyphname = f;
lastChange = "2019-03-12 21:11:01 +0000";
layers = (
{
background = {
paths = (
{
closed = 1;
nodes = (
"136 0 LINE",
"216 454 LINE",
"221 489 LINE",
"230 540 LINE SMOOTH",
"247 636 OFFCURVE",
"296 683 OFFCURVE",
"364 683 CURVE SMOOTH",
"417 683 OFFCURVE",
"446 655 OFFCURVE",
"442 610 CURVE",
"509 618 LINE",
"517 702 OFFCURVE",
"470 750 OFFCURVE",
"377 750 CURVE SMOOTH",
"265 750 OFFCURVE",
"176 670 OFFCURVE",
"152 532 CURVE SMOOTH",
"58 0 LINE"
);
},
{
closed = 1;
nodes = (
"35 432 LINE",
"379 432 LINE",
"391 498 LINE",
"47 498 LINE"
);
}
);
};
layerId = "A3B50665-EA37-4AC6-885C-1233CA61B6BD";
paths = (
{
closed = 1;
nodes = (
"106 -200 LINE",
"221 454 LINE",
"226 489 LINE",
"237 550 LINE SMOOTH",
"253 639 OFFCURVE",
"297 683 OFFCURVE",
"369 683 CURVE SMOOTH",
"418 683 OFFCURVE",
"448 656 OFFCURVE",
"451 610 CURVE",
"518 618 LINE",
"513 703 OFFCURVE",
"461 750 OFFCURVE",
"374 750 CURVE SMOOTH",
"260 750 OFFCURVE",
"182 673 OFFCURVE",
"159 542 CURVE SMOOTH",
"28 -200 LINE"
);
},
{
closed = 1;
nodes = (
"384 432 LINE",
"396 498 LINE",
"52 498 LINE",
"40 432 LINE"
);
}
);
width = 360;
},
{
background = {
paths = (
{
closed = 1;
nodes = (
"136 -200 LINE",
"176 -89 OFFCURVE",
"199 23 OFFCURVE",
"227 184 CURVE SMOOTH",
"268 419 LINE",
"278 487 LINE",
"287 539 LINE SMOOTH",
"297 599 OFFCURVE",
"332 627 OFFCURVE",
"380 627 CURVE SMOOTH",
"410 627 OFFCURVE",
"431 611 OFFCURVE",
"434 582 CURVE",
"567 598 LINE",
"559 698 OFFCURVE",
"492 750 OFFCURVE",
"390 750 CURVE SMOOTH",
"261 750 OFFCURVE",
"167 673 OFFCURVE",
"143 536 CURVE SMOOTH",
"78 168 LINE SMOOTH",
"57 49 OFFCURVE",
"22 -91 OFFCURVE",
"-15 -200 CURVE"
);
},
{
closed = 1;
nodes = (
"21 389 LINE",
"400 389 LINE",
"422 510 LINE",
"43 510 LINE"
);
}
);
};
layerId = "014D4A40-7C7F-4023-B30E-1F55CE5EA091";
paths = (
{
closed = 1;
nodes = (
"159 -200 LINE",
"268 419 LINE",
"278 487 LINE",
"287 539 LINE SMOOTH",
"297 599 OFFCURVE",
"332 627 OFFCURVE",
"380 627 CURVE SMOOTH",
"410 627 OFFCURVE",
"431 611 OFFCURVE",
"434 582 CURVE",
"567 598 LINE",
"559 698 OFFCURVE",
"493 750 OFFCURVE",
"391 750 CURVE SMOOTH",
"262 750 OFFCURVE",
"167 673 OFFCURVE",
"143 536 CURVE SMOOTH",
"13 -200 LINE"
);
},
{
closed = 1;
nodes = (
"400 389 LINE",
"422 510 LINE",
"43 510 LINE",
"21 389 LINE"
);
}
);
width = 393;
}
);
unicode = 0066;
},
{
color = 4;
glyphname = g;
lastChange = "2019-03-12 21:11:17 +0000";
layers = (
{
background = {
paths = (
{
closed = 1;
nodes = (
"338 -210 OFFCURVE",
"443 -117 OFFCURVE",
"476 70 CURVE SMOOTH",
"552 498 LINE",
"488 498 LINE",
"465 416 LINE",
"474 420 LINE",
"467 471 OFFCURVE",
"412 507 OFFCURVE",
"344 507 CURVE SMOOTH",
"198 507 OFFCURVE",
"76 390 OFFCURVE",
"46 223 CURVE SMOOTH",
"23 93 OFFCURVE",
"77 2 OFFCURVE",
"203 2 CURVE SMOOTH",
"299 2 OFFCURVE",
"385 65 OFFCURVE",
"435 167 CURVE",
"418 154 LINE",
"411 126 OFFCURVE",
"402 88 OFFCURVE",
"399 70 CURVE SMOOTH",
"374 -79 OFFCURVE",
"308 -138 OFFCURVE",
"174 -138 CURVE SMOOTH",
"123 -138 OFFCURVE",
"72 -127 OFFCURVE",
"30 -106 CURVE",
"-2 -176 LINE",
"42 -199 OFFCURVE",
"105 -210 OFFCURVE",
"160 -210 CURVE SMOOTH"
);
},
{
closed = 1;
nodes = (
"414 436 OFFCURVE",
"454 382 OFFCURVE",
"438 291 CURVE SMOOTH",
"416 167 OFFCURVE",
"324 74 OFFCURVE",
"226 74 CURVE SMOOTH",
"149 74 OFFCURVE",
"111 131 OFFCURVE",
"128 229 CURVE SMOOTH",
"150 353 OFFCURVE",
"231 436 OFFCURVE",
"332 436 CURVE SMOOTH"
);
}
);
};
layerId = "A3B50665-EA37-4AC6-885C-1233CA61B6BD";
paths = (
{
closed = 1;
nodes = (
"350 -210 OFFCURVE",
"448 -127 OFFCURVE",
"482 70 CURVE SMOOTH",
"526 322 LINE SMOOTH",
"536 381 OFFCURVE",
"548 439 OFFCURVE",
"561 498 CURVE",
"502 498 LINE",
"473 426 LINE",
"493 453 LINE",
"473 479 OFFCURVE",
"415 507 OFFCURVE",
"342 507 CURVE SMOOTH",
"171 507 OFFCURVE",
"46 352 OFFCURVE",
"46 177 CURVE SMOOTH",
"46 67 OFFCURVE",
"109 2 OFFCURVE",
"213 2 CURVE SMOOTH",
"309 2 OFFCURVE",
"388 66 OFFCURVE",
"438 174 CURVE",
"423 154 LINE",
"416 126 OFFCURVE",
"407 88 OFFCURVE",
"404 70 CURVE SMOOTH",
"379 -83 OFFCURVE",
"313 -138 OFFCURVE",
"179 -138 CURVE SMOOTH",
"128 -138 OFFCURVE",
"77 -127 OFFCURVE",
"35 -106 CURVE",
"10 -176 LINE",
"54 -199 OFFCURVE",
"117 -210 OFFCURVE",
"172 -210 CURVE SMOOTH"
);
},
{
closed = 1;
nodes = (
"163 74 OFFCURVE",
"128 114 OFFCURVE",
"128 184 CURVE SMOOTH",
"128 309 OFFCURVE",
"208 436 OFFCURVE",
"337 436 CURVE SMOOTH",
"400 436 OFFCURVE",
"444 418 OFFCURVE",
"473 382 CURVE",
"465 416 LINE",
"443 293 LINE SMOOTH",
"421 169 OFFCURVE",
"326 74 OFFCURVE",
"228 74 CURVE SMOOTH"
);
}
);
width = 596;
},
{
background = {
paths = (
{
closed = 1;
nodes = (
"383 -210 OFFCURVE",
"506 -105 OFFCURVE",
"541 96 CURVE SMOOTH",
"581 325 LINE SMOOTH",
"591 385 OFFCURVE",
"606 459 OFFCURVE",
"617 506 CURVE",
"512 506 LINE",
"472 422 LINE",
"513 468 LINE",
"469 503 OFFCURVE",
"414 516 OFFCURVE",
"352 516 CURVE SMOOTH",
"178 516 OFFCURVE",
"33 382 OFFCURVE",
"33 196 CURVE SMOOTH",
"33 79 OFFCURVE",
"105 9 OFFCURVE",
"221 9 CURVE SMOOTH",
"320 9 OFFCURVE",
"396 68 OFFCURVE",
"438 196 CURVE",
"419 173 LINE",
"399 112 OFFCURVE",
"392 74 OFFCURVE",
"388 53 CURVE SMOOTH",
"372 -38 OFFCURVE",
"306 -84 OFFCURVE",
"200 -84 CURVE SMOOTH",
"141 -84 OFFCURVE",
"84 -72 OFFCURVE",
"40 -50 CURVE",
"-6 -169 LINE",
"36 -194 OFFCURVE",
"111 -210 OFFCURVE",
"183 -210 CURVE SMOOTH"
);
},
{
closed = 1;
nodes = (
"393 391 OFFCURVE",
"435 383 OFFCURVE",
"460 347 CURVE",
"445 408 LINE",
"428 317 LINE SMOOTH",
"408 210 OFFCURVE",
"345 137 OFFCURVE",
"270 137 CURVE SMOOTH",
"218 137 OFFCURVE",
"190 167 OFFCURVE",
"190 221 CURVE SMOOTH",
"190 305 OFFCURVE",
"246 391 OFFCURVE",
"350 391 CURVE SMOOTH"
);
}
);
};
layerId = "014D4A40-7C7F-4023-B30E-1F55CE5EA091";
paths = (
{
closed = 1;
nodes = (
"383 -210 OFFCURVE",
"506 -105 OFFCURVE",
"541 96 CURVE SMOOTH",
"581 325 LINE SMOOTH",
"591 385 OFFCURVE",
"606 459 OFFCURVE",
"617 506 CURVE",
"512 506 LINE",
"472 422 LINE",
"513 468 LINE",
"469 503 OFFCURVE",
"414 516 OFFCURVE",
"352 516 CURVE SMOOTH",
"154 516 OFFCURVE",
"33 359 OFFCURVE",
"33 196 CURVE SMOOTH",
"33 79 OFFCURVE",
"105 9 OFFCURVE",
"221 9 CURVE SMOOTH",
"320 9 OFFCURVE",
"396 68 OFFCURVE",
"438 196 CURVE",
"419 173 LINE",
"399 112 OFFCURVE",
"392 74 OFFCURVE",
"388 53 CURVE SMOOTH",
"372 -38 OFFCURVE",
"306 -84 OFFCURVE",
"200 -84 CURVE SMOOTH",
"141 -84 OFFCURVE",
"84 -72 OFFCURVE",
"40 -50 CURVE",
"-6 -169 LINE",
"36 -194 OFFCURVE",
"111 -210 OFFCURVE",
"183 -210 CURVE SMOOTH"
);
},
{
closed = 1;
nodes = (
"218 137 OFFCURVE",
"190 167 OFFCURVE",
"190 221 CURVE SMOOTH",
"190 314 OFFCURVE",
"257 391 OFFCURVE",
"352 391 CURVE SMOOTH",
"394 391 OFFCURVE",
"435 384 OFFCURVE",
"460 349 CURVE",
"445 408 LINE",
"428 317 LINE SMOOTH",
"408 210 OFFCURVE",
"345 137 OFFCURVE",
"270 137 CURVE SMOOTH"
);
}
);
width = 636;
}
);
leftKerningGroup = o;
note = g;
unicode = 0067;
},
{
color = 4;
glyphname = h;
lastChange = "2019-03-12 21:26:02 +0000";
layers = (
{
background = {
paths = (
{
closed = 1;
nodes = (
"116 0 LINE",
"127 60 LINE SMOOTH",
"177 345 OFFCURVE",
"287 434 OFFCURVE",
"374 434 CURVE SMOOTH",
"439 434 OFFCURVE",
"464 395 OFFCURVE",
"448 310 CURVE SMOOTH",
"413 125 LINE SMOOTH",
"405 83 OFFCURVE",
"400 42 OFFCURVE",
"400 0 CURVE",
"479 0 LINE",
"479 44 OFFCURVE",
"484 87 OFFCURVE",
"492 131 CURVE SMOOTH",
"528 319 LINE SMOOTH",
"552 443 OFFCURVE",
"503 507 OFFCURVE",
"403 507 CURVE SMOOTH",
"291 507 OFFCURVE",
"196 417 OFFCURVE",
"156 299 CURVE",
"169 324 LINE",
"180 366 OFFCURVE",
"186 396 OFFCURVE",
"192 428 CURVE SMOOTH",
"247 740 LINE",
"169 740 LINE",
"39 0 LINE"
);
}
);
};
layerId = "A3B50665-EA37-4AC6-885C-1233CA61B6BD";
paths = (
{
closed = 1;
nodes = (
"116 0 LINE",
"127 60 LINE SMOOTH",
"177 345 OFFCURVE",
"287 434 OFFCURVE",
"374 434 CURVE SMOOTH",
"439 434 OFFCURVE",
"465 395 OFFCURVE",
"448 310 CURVE SMOOTH",
"411 125 LINE SMOOTH",
"403 83 OFFCURVE",
"398 42 OFFCURVE",
"398 0 CURVE",
"477 0 LINE",
"477 44 OFFCURVE",
"481 87 OFFCURVE",
"490 131 CURVE SMOOTH",
"528 319 LINE SMOOTH",
"553 443 OFFCURVE",
"503 507 OFFCURVE",
"403 507 CURVE SMOOTH",
"291 507 OFFCURVE",
"196 417 OFFCURVE",
"156 299 CURVE",
"169 324 LINE",
"180 366 OFFCURVE",
"186 396 OFFCURVE",
"192 428 CURVE SMOOTH",
"247 740 LINE",
"169 740 LINE",
"39 0 LINE"
);
}
);
width = 594;
},
{
background = {
paths = (
{
closed = 1;
nodes = (
"170 0 LINE",
"177 40 LINE SMOOTH",
"223 301 OFFCURVE",
"318 381 OFFCURVE",
"386 381 CURVE SMOOTH",
"432 381 OFFCURVE",
"448 349 OFFCURVE",
"433 280 CURVE SMOOTH",
"401 130 LINE SMOOTH",
"392 87 OFFCURVE",
"387 43 OFFCURVE",
"386 0 CURVE",
"536 0 LINE",
"536 46 OFFCURVE",
"542 92 OFFCURVE",
"551 138 CURVE SMOOTH",
"583 301 LINE SMOOTH",
"610 438 OFFCURVE",
"561 516 OFFCURVE",
"451 516 CURVE SMOOTH",
"348 516 OFFCURVE",
"226 440 OFFCURVE",
"185 271 CURVE",
"220 337 LINE",
"238 389 OFFCURVE",
"242 403 OFFCURVE",
"255 478 CURVE SMOOTH",
"301 740 LINE",
"155 740 LINE",
"24 0 LINE"
);
}
);
};
layerId = "014D4A40-7C7F-4023-B30E-1F55CE5EA091";
paths = (
{
closed = 1;
nodes = (
"170 0 LINE",
"177 40 LINE SMOOTH",
"223 301 OFFCURVE",
"318 381 OFFCURVE",
"386 381 CURVE SMOOTH",
"432 381 OFFCURVE",
"449 349 OFFCURVE",
"433 280 CURVE SMOOTH",
"399 130 LINE SMOOTH",
"389 87 OFFCURVE",
"385 43 OFFCURVE",
"384 0 CURVE",
"534 0 LINE",
"534 46 OFFCURVE",
"539 92 OFFCURVE",
"549 138 CURVE SMOOTH",
"583 301 LINE SMOOTH",
"612 438 OFFCURVE",
"561 516 OFFCURVE",
"451 516 CURVE SMOOTH",
"348 516 OFFCURVE",
"226 440 OFFCURVE",
"185 271 CURVE",
"220 337 LINE",
"238 389 OFFCURVE",
"242 403 OFFCURVE",
"255 478 CURVE SMOOTH",
"301 740 LINE",
"155 740 LINE",
"24 0 LINE"
);
}
);
width = 636;
}
);
note = h;
unicode = 0068;
},
{
glyphname = i;
lastChange = "2019-03-12 21:12:50 +0000";
layers = (
{
background = {
paths = (
{
closed = 1;
nodes = (
"127 498 LINE",
"39 0 LINE",
"116 0 LINE",
"204 498 LINE"
);
},
{
closed = 1;
nodes = (
"229 604 OFFCURVE",
"250 629 OFFCURVE",
"250 660 CURVE SMOOTH",
"250 690 OFFCURVE",
"229 715 OFFCURVE",
"194 715 CURVE SMOOTH",
"159 715 OFFCURVE",
"137 690 OFFCURVE",
"137 660 CURVE SMOOTH",
"137 629 OFFCURVE",
"159 604 OFFCURVE",
"194 604 CURVE SMOOTH"
);
}
);
};
guideLines = (
{
angle = 79.9789;
position = "{83, 249}";
},
{
angle = 79.9789;
position = "{160, 249}";
}
);
layerId = "A3B50665-EA37-4AC6-885C-1233CA61B6BD";
paths = (
{
closed = 1;
nodes = (
"156 715 OFFCURVE",
"134 690 OFFCURVE",
"134 660 CURVE SMOOTH",
"134 629 OFFCURVE",
"156 604 OFFCURVE",
"191 604 CURVE SMOOTH",
"226 604 OFFCURVE",
"247 629 OFFCURVE",
"247 660 CURVE SMOOTH",
"247 690 OFFCURVE",
"226 715 OFFCURVE",
"191 715 CURVE SMOOTH"
);
},
{
closed = 1;
nodes = (
"61 125 LINE SMOOTH",
"54 83 OFFCURVE",
"48 42 OFFCURVE",
"48 0 CURVE",
"127 0 LINE",
"127 44 OFFCURVE",
"131 87 OFFCURVE",
"139 131 CURVE SMOOTH",
"173 322 LINE SMOOTH",
"181 366 OFFCURVE",
"194 440 OFFCURVE",
"198 498 CURVE",
"119 498 LINE",
"115 440 OFFCURVE",
"106 382 OFFCURVE",
"96 324 CURVE SMOOTH"
);
}
);
width = 243;
},
{
background = {
paths = (
{
closed = 1;
nodes = (
"114 508 LINE",
"24 0 LINE",
"170 0 LINE",
"260 508 LINE"
);
},
{
closed = 1;
nodes = (
"273 568 OFFCURVE",
"310 609 OFFCURVE",
"310 660 CURVE SMOOTH",
"310 711 OFFCURVE",
"273 752 OFFCURVE",
"214 752 CURVE SMOOTH",
"155 752 OFFCURVE",
"118 711 OFFCURVE",
"118 660 CURVE SMOOTH",
"118 609 OFFCURVE",
"155 568 OFFCURVE",
"214 568 CURVE SMOOTH"
);
}
);
};
guideLines = (
{
angle = 79.9534;
position = "{69, 254}";
},
{
angle = 79.9534;
position = "{215, 254}";
}
);
layerId = "014D4A40-7C7F-4023-B30E-1F55CE5EA091";
paths = (
{
closed = 1;
nodes = (
"155 752 OFFCURVE",
"118 711 OFFCURVE",
"118 660 CURVE SMOOTH",
"118 609 OFFCURVE",
"155 568 OFFCURVE",
"214 568 CURVE SMOOTH",
"273 568 OFFCURVE",
"310 609 OFFCURVE",
"310 660 CURVE SMOOTH",
"310 711 OFFCURVE",
"273 752 OFFCURVE",
"214 752 CURVE SMOOTH"
);
},
{
closed = 1;
nodes = (
"47 130 LINE SMOOTH",
"39 87 OFFCURVE",
"32 41 OFFCURVE",
"32 0 CURVE",
"180 0 LINE",
"180 46 OFFCURVE",
"187 92 OFFCURVE",
"195 138 CURVE SMOOTH",
"230 337 LINE SMOOTH",
"240 392 OFFCURVE",
"251 453 OFFCURVE",
"255 508 CURVE",
"108 508 LINE",
"104 462 OFFCURVE",
"97 416 OFFCURVE",
"84 340 CURVE SMOOTH"
);
}
);
width = 284;
}
);
note = i;
unicode = 0069;
},
{
glyphname = j;
lastChange = "2019-03-12 13:09:29 +0000";
layers = (
{
background = {
paths = (
{
closed = 1;
nodes = (
"96 -200 OFFCURVE",
"170 -124 OFFCURVE",
"170 6 CURVE SMOOTH",
"170 498 LINE",
"93 498 LINE",
"93 10 LINE SMOOTH",
"93 -77 OFFCURVE",
"60 -130 OFFCURVE",
"-22 -130 CURVE SMOOTH",
"-49 -130 OFFCURVE",
"-76 -125 OFFCURVE",
"-101 -114 CURVE",
"-119 -180 LINE",
"-94 -194 OFFCURVE",
"-56 -200 OFFCURVE",
"-20 -200 CURVE SMOOTH"
);
},
{
closed = 1;
nodes = (
"165 604 OFFCURVE",
"188 627 OFFCURVE",
"188 660 CURVE SMOOTH",
"188 692 OFFCURVE",
"165 715 OFFCURVE",
"132 715 CURVE SMOOTH",
"99 715 OFFCURVE",
"75 692 OFFCURVE",
"75 660 CURVE SMOOTH",
"75 627 OFFCURVE",
"99 604 OFFCURVE",
"132 604 CURVE SMOOTH"
);
}
);
};
layerId = "A3B50665-EA37-4AC6-885C-1233CA61B6BD";
paths = (
{
closed = 1;
nodes = (
"101 -210 OFFCURVE",
"175 -134 OFFCURVE",
"175 -4 CURVE SMOOTH",
"175 498 LINE",
"98 498 LINE",
"98 0 LINE SMOOTH",
"98 -87 OFFCURVE",
"65 -140 OFFCURVE",
"-17 -140 CURVE SMOOTH",
"-44 -140 OFFCURVE",
"-71 -135 OFFCURVE",
"-96 -124 CURVE",
"-114 -190 LINE",
"-89 -204 OFFCURVE",
"-51 -210 OFFCURVE",
"-15 -210 CURVE SMOOTH"
);
},
{
closed = 1;
nodes = (
"170 604 OFFCURVE",
"193 627 OFFCURVE",
"193 660 CURVE SMOOTH",
"193 692 OFFCURVE",
"170 715 OFFCURVE",
"137 715 CURVE SMOOTH",
"104 715 OFFCURVE",
"80 692 OFFCURVE",
"80 660 CURVE SMOOTH",
"80 627 OFFCURVE",
"104 604 OFFCURVE",
"137 604 CURVE SMOOTH"
);
}
);
width = 257;
},
{
background = {
paths = (
{
closed = 1;
nodes = (
"127 -200 OFFCURVE",
"220 -119 OFFCURVE",
"220 27 CURVE SMOOTH",
"220 508 LINE",
"74 508 LINE",
"74 26 LINE SMOOTH",
"74 -44 OFFCURVE",
"46 -76 OFFCURVE",
"-17 -76 CURVE SMOOTH",
"-49 -76 OFFCURVE",
"-83 -69 OFFCURVE",
"-104 -63 CURVE",
"-125 -183 LINE",
"-96 -194 OFFCURVE",
"-55 -200 OFFCURVE",
"-12 -200 CURVE SMOOTH"
);
},
{
closed = 1;
nodes = (
"203 558 OFFCURVE",
"243 596 OFFCURVE",
"243 650 CURVE SMOOTH",
"243 704 OFFCURVE",
"203 742 OFFCURVE",
"147 742 CURVE SMOOTH",
"91 742 OFFCURVE",
"51 704 OFFCURVE",
"51 650 CURVE SMOOTH",
"51 596 OFFCURVE",
"91 558 OFFCURVE",
"147 558 CURVE SMOOTH"
);
}
);
};
layerId = "014D4A40-7C7F-4023-B30E-1F55CE5EA091";
paths = (
{
closed = 1;
nodes = (
"127 -200 OFFCURVE",
"220 -119 OFFCURVE",
"220 27 CURVE SMOOTH",
"220 508 LINE",
"74 508 LINE",
"74 26 LINE SMOOTH",
"74 -44 OFFCURVE",
"46 -76 OFFCURVE",
"-17 -76 CURVE SMOOTH",
"-49 -76 OFFCURVE",
"-83 -69 OFFCURVE",
"-104 -63 CURVE",
"-125 -183 LINE",
"-96 -194 OFFCURVE",
"-55 -200 OFFCURVE",
"-12 -200 CURVE SMOOTH"
);
},
{
closed = 1;
nodes = (
"203 568 OFFCURVE",
"243 606 OFFCURVE",
"243 660 CURVE SMOOTH",
"243 714 OFFCURVE",
"203 752 OFFCURVE",
"147 752 CURVE SMOOTH",
"91 752 OFFCURVE",
"51 714 OFFCURVE",
"51 660 CURVE SMOOTH",
"51 606 OFFCURVE",
"91 568 OFFCURVE",
"147 568 CURVE SMOOTH"
);
}
);
width = 286;
}
);
unicode = 006A;
},
{
glyphname = k;
lastChange = "2019-03-12 13:09:29 +0000";
layers = (
{
background = {
paths = (
{
closed = 1;
nodes = (
"476 72 LINE",
"462 65 OFFCURVE",
"445 61 OFFCURVE",
"428 61 CURVE SMOOTH",
"386 61 OFFCURVE",
"357 83 OFFCURVE",
"326 127 CURVE SMOOTH",
"268 209 LINE SMOOTH",
"245 241 OFFCURVE",
"228 259 OFFCURVE",
"206 277 CURVE",
"203 238 LINE",
"466 497 LINE",
"368 497 LINE",
"142 273 LINE",
"142 239 LINE",
"166 221 OFFCURVE",
"190 193 OFFCURVE",
"219 152 CURVE SMOOTH",
"277 70 LINE SMOOTH",
"314 17 OFFCURVE",
"359 -6 OFFCURVE",
"415 -6 CURVE SMOOTH",
"445 -6 OFFCURVE",
"471 0 OFFCURVE",
"489 11 CURVE"
);
},
{
closed = 1;
nodes = (
"155 0 LINE",
"155 740 LINE",
"77 740 LINE",
"77 0 LINE"
);
}
);
};
guideLines = (
{
angle = 128.8201;
position = "{314, 161}";
}
);
layerId = "A3B50665-EA37-4AC6-885C-1233CA61B6BD";
paths = (
{
closed = 1;
nodes = (
"481 74 LINE",
"467 66 OFFCURVE",
"450 61 OFFCURVE",
"433 61 CURVE SMOOTH",
"391 61 OFFCURVE",
"362 83 OFFCURVE",
"331 127 CURVE SMOOTH",
"273 209 LINE SMOOTH",
"239 257 OFFCURVE",
"211 275 OFFCURVE",
"188 275 CURVE",
"208 238 LINE",
"471 497 LINE",
"373 497 LINE",
"147 273 LINE",
"115 239 LINE",
"155 239 OFFCURVE",
"184 209 OFFCURVE",
"210 173 CURVE SMOOTH",
"282 70 LINE SMOOTH",
"319 17 OFFCURVE",
"364 -6 OFFCURVE",
"420 -6 CURVE SMOOTH",
"450 -6 OFFCURVE",
"476 0 OFFCURVE",
"500 14 CURVE"
);
},
{
closed = 1;
nodes = (
"160 0 LINE",
"160 740 LINE",
"82 740 LINE",
"82 0 LINE"
);
}
);
width = 503;
},
{
background = {
paths = (
{
closed = 1;
nodes = (
"570 126 LINE",
"553 117 OFFCURVE",
"535 112 OFFCURVE",
"514 112 CURVE SMOOTH",
"477 112 OFFCURVE",
"449 128 OFFCURVE",
"424 167 CURVE SMOOTH",
"391 218 LINE SMOOTH",
"372 247 OFFCURVE",
"349 273 OFFCURVE",
"328 288 CURVE",
"327 239 LINE",
"580 508 LINE",
"404 508 LINE",
"193 284 LINE",
"193 227 LINE",
"216 220 OFFCURVE",
"238 196 OFFCURVE",
"273 141 CURVE SMOOTH",
"306 90 LINE SMOOTH",
"351 19 OFFCURVE",
"402 -8 OFFCURVE",
"486 -10 CURVE SMOOTH",
"528 -11 OFFCURVE",
"566 -3 OFFCURVE",
"602 19 CURVE"
);
},
{
closed = 1;
nodes = (
"212 0 LINE",
"212 740 LINE",
"66 740 LINE",
"66 0 LINE"
);
}
);
};
guideLines = (
{
angle = 126.1496;
position = "{420, 166}";
}
);
layerId = "014D4A40-7C7F-4023-B30E-1F55CE5EA091";
paths = (
{
closed = 1;
nodes = (
"570 126 LINE",
"553 117 OFFCURVE",
"535 112 OFFCURVE",
"514 112 CURVE SMOOTH",
"477 112 OFFCURVE",
"449 128 OFFCURVE",
"424 167 CURVE SMOOTH",
"391 218 LINE SMOOTH",
"365 258 OFFCURVE",
"318 288 OFFCURVE",
"282 288 CURVE",
"327 239 LINE",
"580 508 LINE",
"404 508 LINE",
"193 284 LINE",
"170 226 LINE",
"204 226 OFFCURVE",
"229 210 OFFCURVE",
"264 155 CURVE SMOOTH",
"306 90 LINE SMOOTH",
"351 19 OFFCURVE",
"402 -8 OFFCURVE",
"486 -10 CURVE SMOOTH",
"528 -11 OFFCURVE",
"566 -3 OFFCURVE",
"602 19 CURVE"
);
},
{
closed = 1;
nodes = (
"212 0 LINE",
"212 740 LINE",
"66 740 LINE",
"66 0 LINE"
);
}
);
width = 589;
}
);
note = k;
unicode = 006B;
},
{
glyphname = l;
lastChange = "2019-03-12 13:09:29 +0000";
layers = (
{
background = {
paths = (
{
closed = 1;
nodes = (
"238 -8 OFFCURVE",
"270 2 OFFCURVE",
"290 22 CURVE",
"258 79 LINE",
"247 72 OFFCURVE",
"232 62 OFFCURVE",
"211 62 CURVE SMOOTH",
"176 62 OFFCURVE",
"155 87 OFFCURVE",
"155 133 CURVE SMOOTH",
"155 710 LINE",
"77 710 LINE",
"77 130 LINE SMOOTH",
"77 42 OFFCURVE",
"123 -8 OFFCURVE",
"202 -8 CURVE SMOOTH"
);
}
);
};
layerId = "A3B50665-EA37-4AC6-885C-1233CA61B6BD";
paths = (
{
closed = 1;
nodes = (
"238 -8 OFFCURVE",
"272 2 OFFCURVE",
"290 22 CURVE",
"269 76 LINE",
"258 69 OFFCURVE",
"237 60 OFFCURVE",
"216 60 CURVE SMOOTH",
"181 60 OFFCURVE",
"160 85 OFFCURVE",
"160 124 CURVE SMOOTH",
"160 740 LINE",
"82 740 LINE",
"82 114 LINE SMOOTH",
"82 42 OFFCURVE",
"123 -8 OFFCURVE",
"207 -8 CURVE SMOOTH"
);
}
);
width = 282;
},
{
background = {
paths = (
{
closed = 1;
nodes = (
"865 -10 OFFCURVE",
"908 2 OFFCURVE",
"929 18 CURVE",
"895 129 LINE",
"885 122 OFFCURVE",
"871 117 OFFCURVE",
"855 117 CURVE SMOOTH",
"825 117 OFFCURVE",
"812 137 OFFCURVE",
"812 162 CURVE SMOOTH",
"812 710 LINE",
"666 709 LINE",
"666 139 LINE SMOOTH",
"666 51 OFFCURVE",
"722 -10 OFFCURVE",
"821 -10 CURVE SMOOTH"
);
},
{
closed = 1;
nodes = (
"274 -8 OFFCURVE",
"308 2 OFFCURVE",
"326 22 CURVE",
"305 76 LINE",
"294 69 OFFCURVE",
"273 59 OFFCURVE",
"252 59 CURVE SMOOTH",
"217 59 OFFCURVE",
"196 85 OFFCURVE",
"196 134 CURVE SMOOTH",
"196 710 LINE",
"118 710 LINE",
"118 124 LINE SMOOTH",
"118 42 OFFCURVE",
"159 -8 OFFCURVE",
"243 -8 CURVE SMOOTH"
);
}
);
};
layerId = "014D4A40-7C7F-4023-B30E-1F55CE5EA091";
paths = (
{
closed = 1;
nodes = (
"268 -10 OFFCURVE",
"310 4 OFFCURVE",
"332 27 CURVE",
"297 127 LINE",
"286 119 OFFCURVE",
"272 115 OFFCURVE",
"257 115 CURVE SMOOTH",
"228 115 OFFCURVE",
"212 132 OFFCURVE",
"212 162 CURVE SMOOTH",
"212 740 LINE",
"66 739 LINE",
"66 152 LINE SMOOTH",
"66 47 OFFCURVE",
"122 -10 OFFCURVE",
"223 -10 CURVE SMOOTH"
);
}
);
width = 319;
}
);
note = l;
unicode = 006C;
},
{
glyphname = m;
lastChange = "2019-03-12 13:09:29 +0000";
layers = (
{
background = {
paths = (
{
closed = 1;
nodes = (
"154 0 LINE",
"154 80 LINE SMOOTH",
"154 358 OFFCURVE",
"245 434 OFFCURVE",
"323 434 CURVE SMOOTH",
"393 434 OFFCURVE",
"423 385 OFFCURVE",
"423 290 CURVE SMOOTH",
"423 0 LINE",
"501 0 LINE",
"501 299 LINE SMOOTH",
"501 433 OFFCURVE",
"446 507 OFFCURVE",
"336 507 CURVE SMOOTH",
"248 507 OFFCURVE",
"162 437 OFFCURVE",
"140 310 CURVE",
"151 334 LINE",
"153 364 OFFCURVE",
"155 400 OFFCURVE",
"155 428 CURVE SMOOTH",
"155 498 LINE",
"77 498 LINE",
"77 0 LINE"
);
},
{
closed = 1;
nodes = (
"501 80 LINE",
"501 357 OFFCURVE",
"592 434 OFFCURVE",
"670 434 CURVE SMOOTH",
"740 434 OFFCURVE",
"770 385 OFFCURVE",
"770 290 CURVE SMOOTH",
"770 0 LINE",
"848 0 LINE",
"848 299 LINE SMOOTH",
"848 433 OFFCURVE",
"793 507 OFFCURVE",
"683 507 CURVE SMOOTH",
"595 507 OFFCURVE",
"502 437 OFFCURVE",
"480 310 CURVE"
);
}
);
};
layerId = "A3B50665-EA37-4AC6-885C-1233CA61B6BD";
paths = (
{
closed = 1;
nodes = (
"159 0 LINE",
"159 80 LINE SMOOTH",
"159 358 OFFCURVE",
"250 434 OFFCURVE",
"328 434 CURVE SMOOTH",
"398 434 OFFCURVE",
"428 385 OFFCURVE",
"428 290 CURVE SMOOTH",
"428 0 LINE",
"506 0 LINE",
"506 80 LINE SMOOTH",
"506 357 OFFCURVE",
"597 434 OFFCURVE",
"675 434 CURVE SMOOTH",
"745 434 OFFCURVE",
"775 385 OFFCURVE",
"775 290 CURVE SMOOTH",
"775 0 LINE",
"853 0 LINE",
"853 299 LINE SMOOTH",
"853 433 OFFCURVE",
"798 507 OFFCURVE",
"688 507 CURVE SMOOTH",
"600 507 OFFCURVE",
"506 433 OFFCURVE",
"485 310 CURVE",
"506 318 LINE",
"500 443 OFFCURVE",
"442 507 OFFCURVE",
"341 507 CURVE SMOOTH",
"253 507 OFFCURVE",
"167 437 OFFCURVE",
"145 310 CURVE",
"156 334 LINE",
"158 364 OFFCURVE",
"160 400 OFFCURVE",
"160 428 CURVE SMOOTH",
"160 498 LINE",
"82 498 LINE",
"82 0 LINE"
);
}
);
width = 933;
},
{
background = {
paths = (
{
closed = 1;
nodes = (
"211 0 LINE",
"211 70 LINE SMOOTH",
"211 314 OFFCURVE",
"281 381 OFFCURVE",
"346 381 CURVE SMOOTH",
"397 381 OFFCURVE",
"418 341 OFFCURVE",
"418 270 CURVE SMOOTH",
"418 0 LINE",
"564 0 LINE",
"564 281 LINE SMOOTH",
"564 431 OFFCURVE",
"506 516 OFFCURVE",
"386 516 CURVE SMOOTH",
"293 516 OFFCURVE",
"199 449 OFFCURVE",
"178 321 CURVE",
"106 349 LINE",
"109 392 OFFCURVE",
"112 435 OFFCURVE",
"112 478 CURVE SMOOTH",
"112 508 LINE",
"66 508 LINE",
"66 0 LINE"
);
},
{
closed = 1;
nodes = (
"564 70 LINE",
"564 314 OFFCURVE",
"634 381 OFFCURVE",
"699 381 CURVE SMOOTH",
"750 381 OFFCURVE",
"771 341 OFFCURVE",
"771 270 CURVE SMOOTH",
"771 0 LINE",
"917 0 LINE",
"917 281 LINE SMOOTH",
"917 431 OFFCURVE",
"859 516 OFFCURVE",
"739 516 CURVE SMOOTH",
"646 516 OFFCURVE",
"542 449 OFFCURVE",
"521 321 CURVE"
);
}
);
};
layerId = "014D4A40-7C7F-4023-B30E-1F55CE5EA091";
paths = (
{
closed = 1;
nodes = (
"211 0 LINE",
"211 70 LINE SMOOTH",
"211 314 OFFCURVE",
"281 381 OFFCURVE",
"346 381 CURVE SMOOTH",
"397 381 OFFCURVE",
"418 341 OFFCURVE",
"418 270 CURVE SMOOTH",
"418 0 LINE",
"564 0 LINE",
"564 70 LINE SMOOTH",
"564 314 OFFCURVE",
"634 381 OFFCURVE",
"699 381 CURVE SMOOTH",
"750 381 OFFCURVE",
"771 341 OFFCURVE",
"771 270 CURVE SMOOTH",
"771 0 LINE",
"917 0 LINE",
"917 281 LINE SMOOTH",
"917 431 OFFCURVE",
"859 516 OFFCURVE",
"739 516 CURVE SMOOTH",
"646 516 OFFCURVE",
"542 449 OFFCURVE",
"521 321 CURVE",
"562 327 LINE",
"551 460 OFFCURVE",
"481 516 OFFCURVE",
"386 516 CURVE SMOOTH",
"293 516 OFFCURVE",
"199 449 OFFCURVE",
"178 321 CURVE",
"206 349 LINE",
"209 392 OFFCURVE",
"212 435 OFFCURVE",
"212 478 CURVE SMOOTH",
"212 508 LINE",
"66 508 LINE",
"66 0 LINE"
);
}
);
width = 981;
}
);
note = m;
unicode = 006D;
},
{
color = 4;
glyphname = n;
lastChange = "2019-03-12 21:26:07 +0000";
layers = (
{
background = {
paths = (
{
closed = 1;
nodes = (
"116 0 LINE",
"127 60 LINE SMOOTH",
"177 345 OFFCURVE",
"287 434 OFFCURVE",
"374 434 CURVE SMOOTH",
"439 434 OFFCURVE",
"464 395 OFFCURVE",
"448 310 CURVE SMOOTH",
"413 125 LINE SMOOTH",
"405 83 OFFCURVE",
"400 42 OFFCURVE",
"400 0 CURVE",
"479 0 LINE",
"479 44 OFFCURVE",
"484 87 OFFCURVE",
"492 131 CURVE SMOOTH",
"528 319 LINE SMOOTH",
"552 443 OFFCURVE",
"503 507 OFFCURVE",
"403 507 CURVE SMOOTH",
"291 507 OFFCURVE",
"196 417 OFFCURVE",
"156 299 CURVE",
"169 324 LINE",
"180 366 OFFCURVE",
"192 440 OFFCURVE",
"196 498 CURVE",
"119 498 LINE",
"115 440 OFFCURVE",
"106 382 OFFCURVE",
"96 324 CURVE SMOOTH",
"39 0 LINE"
);
}
);
};
layerId = "A3B50665-EA37-4AC6-885C-1233CA61B6BD";
paths = (
{
closed = 1;
nodes = (
"116 0 LINE",
"127 60 LINE SMOOTH",
"177 345 OFFCURVE",
"287 434 OFFCURVE",
"374 434 CURVE SMOOTH",
"439 434 OFFCURVE",
"465 395 OFFCURVE",
"448 310 CURVE SMOOTH",
"411 125 LINE SMOOTH",
"403 83 OFFCURVE",
"398 42 OFFCURVE",
"398 0 CURVE",
"477 0 LINE",
"477 44 OFFCURVE",
"481 87 OFFCURVE",
"490 131 CURVE SMOOTH",
"528 319 LINE SMOOTH",
"553 443 OFFCURVE",
"503 507 OFFCURVE",
"403 507 CURVE SMOOTH",
"291 507 OFFCURVE",
"196 417 OFFCURVE",
"156 299 CURVE",
"169 324 LINE",
"180 366 OFFCURVE",
"192 440 OFFCURVE",
"196 498 CURVE",
"119 498 LINE",
"115 440 OFFCURVE",
"106 382 OFFCURVE",
"96 324 CURVE SMOOTH",
"39 0 LINE"
);
}
);
width = 594;
},
{
background = {
paths = (
{
closed = 1;
nodes = (
"169 0 LINE",
"176 40 LINE SMOOTH",
"222 301 OFFCURVE",
"317 381 OFFCURVE",
"385 381 CURVE SMOOTH",
"431 381 OFFCURVE",
"447 349 OFFCURVE",
"432 280 CURVE SMOOTH",
"400 130 LINE SMOOTH",
"391 87 OFFCURVE",
"385 41 OFFCURVE",
"385 0 CURVE",
"535 0 LINE",
"535 46 OFFCURVE",
"541 92 OFFCURVE",
"550 138 CURVE SMOOTH",
"582 301 LINE SMOOTH",
"609 438 OFFCURVE",
"560 516 OFFCURVE",
"450 516 CURVE SMOOTH",
"347 516 OFFCURVE",
"225 440 OFFCURVE",
"184 271 CURVE",
"219 337 LINE",
"237 389 OFFCURVE",
"250 453 OFFCURVE",
"254 508 CURVE",
"108 508 LINE",
"104 462 OFFCURVE",
"97 416 OFFCURVE",
"84 340 CURVE SMOOTH",
"23 0 LINE"
);
}
);
};
layerId = "014D4A40-7C7F-4023-B30E-1F55CE5EA091";
paths = (
{
closed = 1;
nodes = (
"169 0 LINE",
"176 40 LINE SMOOTH",
"222 301 OFFCURVE",
"317 381 OFFCURVE",
"385 381 CURVE SMOOTH",
"431 381 OFFCURVE",
"448 349 OFFCURVE",
"432 280 CURVE SMOOTH",
"398 130 LINE SMOOTH",
"388 87 OFFCURVE",
"383 41 OFFCURVE",
"383 0 CURVE",
"533 0 LINE",
"533 46 OFFCURVE",
"538 92 OFFCURVE",
"548 138 CURVE SMOOTH",
"582 301 LINE SMOOTH",
"611 438 OFFCURVE",
"560 516 OFFCURVE",
"450 516 CURVE SMOOTH",
"347 516 OFFCURVE",
"225 440 OFFCURVE",
"184 271 CURVE",
"219 337 LINE",
"237 389 OFFCURVE",
"250 453 OFFCURVE",
"254 508 CURVE",
"108 508 LINE",
"104 462 OFFCURVE",
"97 416 OFFCURVE",
"84 340 CURVE SMOOTH",
"23 0 LINE"
);
}
);
width = 635;
}
);
note = n;
unicode = 006E;
},
{
color = 4;
glyphname = o;
lastChange = "2019-03-12 21:07:14 +0000";
layers = (
{
background = {
paths = (
{
closed = 1;
nodes = (
"791 507 OFFCURVE",
"676 392 OFFCURVE",
"649 240 CURVE SMOOTH",
"622 87 OFFCURVE",
"691 -8 OFFCURVE",
"832 -8 CURVE SMOOTH",
"973 -8 OFFCURVE",
"1089 107 OFFCURVE",
"1116 259 CURVE SMOOTH",
"1143 412 OFFCURVE",
"1074 507 OFFCURVE",
"936 507 CURVE SMOOTH"
);
},
{
closed = 1;
nodes = (
"752 63 OFFCURVE",
"709 126 OFFCURVE",
"729 240 CURVE SMOOTH",
"749 356 OFFCURVE",
"827 436 OFFCURVE",
"925 436 CURVE SMOOTH",
"1013 436 OFFCURVE",
"1056 373 OFFCURVE",
"1036 259 CURVE SMOOTH",
"1015 142 OFFCURVE",
"938 63 OFFCURVE",
"844 63 CURVE SMOOTH"
);
},
{
closed = 1;
nodes = (
"186 507 OFFCURVE",
"78 402 OFFCURVE",
"51 248 CURVE SMOOTH",
"22 87 OFFCURVE",
"101 -8 OFFCURVE",
"237 -8 CURVE SMOOTH",
"378 -8 OFFCURVE",
"487 97 OFFCURVE",
"514 251 CURVE SMOOTH",
"543 412 OFFCURVE",
"465 507 OFFCURVE",
"331 507 CURVE SMOOTH"
);
},
{
closed = 1;
nodes = (
"153 63 OFFCURVE",
"109 126 OFFCURVE",
"129 240 CURVE SMOOTH",
"151 365 OFFCURVE",
"226 436 OFFCURVE",
"323 436 CURVE SMOOTH",
"412 436 OFFCURVE",
"456 373 OFFCURVE",
"436 259 CURVE SMOOTH",
"414 133 OFFCURVE",
"339 63 OFFCURVE",
"246 63 CURVE SMOOTH"
);
}
);
};
layerId = "A3B50665-EA37-4AC6-885C-1233CA61B6BD";
paths = (
{
closed = 1;
nodes = (
"151 507 OFFCURVE",
"50 341 OFFCURVE",
"50 183 CURVE SMOOTH",
"50 61 OFFCURVE",
"126 -8 OFFCURVE",
"244 -8 CURVE SMOOTH",
"403 -8 OFFCURVE",
"525 131 OFFCURVE",
"525 315 CURVE SMOOTH",
"525 437 OFFCURVE",
"451 507 OFFCURVE",
"336 507 CURVE SMOOTH"
);
},
{
closed = 1;
nodes = (
"173 63 OFFCURVE",
"129 108 OFFCURVE",
"129 190 CURVE SMOOTH",
"129 314 OFFCURVE",
"202 436 OFFCURVE",
"328 436 CURVE SMOOTH",
"403 436 OFFCURVE",
"446 392 OFFCURVE",
"446 310 CURVE SMOOTH",
"446 187 OFFCURVE",
"374 63 OFFCURVE",
"250 63 CURVE SMOOTH"
);
}
);
width = 575;
},
{
background = {
paths = (
{
closed = 1;
nodes = (
"169 516 OFFCURVE",
"33 373 OFFCURVE",
"33 190 CURVE SMOOTH",
"33 64 OFFCURVE",
"116 -10 OFFCURVE",
"248 -10 CURVE SMOOTH",
"432 -10 OFFCURVE",
"568 134 OFFCURVE",
"568 316 CURVE SMOOTH",
"568 442 OFFCURVE",
"484 516 OFFCURVE",
"355 516 CURVE SMOOTH"
);
},
{
closed = 1;
nodes = (
"204 117 OFFCURVE",
"175 166 OFFCURVE",
"188 243 CURVE SMOOTH",
"203 331 OFFCURVE",
"259 389 OFFCURVE",
"331 389 CURVE SMOOTH",
"386 389 OFFCURVE",
"417 356 OFFCURVE",
"417 298 CURVE SMOOTH",
"417 210 OFFCURVE",
"361 117 OFFCURVE",
"272 117 CURVE SMOOTH"
);
}
);
};
layerId = "014D4A40-7C7F-4023-B30E-1F55CE5EA091";
paths = (
{
closed = 1;
nodes = (
"158 516 OFFCURVE",
"33 361 OFFCURVE",
"33 190 CURVE SMOOTH",
"33 64 OFFCURVE",
"118 -10 OFFCURVE",
"250 -10 CURVE SMOOTH",
"434 -10 OFFCURVE",
"568 134 OFFCURVE",
"568 316 CURVE SMOOTH",
"568 442 OFFCURVE",
"484 516 OFFCURVE",
"355 516 CURVE SMOOTH"
);
},
{
closed = 1;
nodes = (
"215 117 OFFCURVE",
"185 152 OFFCURVE",
"185 209 CURVE SMOOTH",
"185 299 OFFCURVE",
"241 389 OFFCURVE",
"331 389 CURVE SMOOTH",
"386 389 OFFCURVE",
"417 356 OFFCURVE",
"417 298 CURVE SMOOTH",
"417 196 OFFCURVE",
"352 117 OFFCURVE",
"272 117 CURVE SMOOTH"
);
}
);
width = 601;
}
);
leftKerningGroup = o;
note = o;
rightKerningGroup = o;
unicode = 006F;
},
{
glyphname = p;
lastChange = "2019-03-12 13:09:29 +0000";
layers = (
{
background = {
paths = (
{
closed = 1;
nodes = (
"154 -190 LINE",
"154 83 LINE",
"142 78 LINE",
"160 27 OFFCURVE",
"218 -8 OFFCURVE",
"286 -8 CURVE SMOOTH",
"427 -8 OFFCURVE",
"524 109 OFFCURVE",
"524 279 CURVE SMOOTH",
"524 418 OFFCURVE",
"447 507 OFFCURVE",
"328 507 CURVE SMOOTH",
"236 507 OFFCURVE",
"163 446 OFFCURVE",
"134 345 CURVE",
"153 345 LINE",
"153 499 LINE",
"77 499 LINE",
"77 -190 LINE"
);
},
{
closed = 1;
nodes = (
"201 64 OFFCURVE",
"154 120 OFFCURVE",
"154 215 CURVE SMOOTH",
"154 340 OFFCURVE",
"225 435 OFFCURVE",
"318 435 CURVE SMOOTH",
"396 435 OFFCURVE",
"443 375 OFFCURVE",
"443 273 CURVE SMOOTH",
"443 146 OFFCURVE",
"380 64 OFFCURVE",
"282 64 CURVE SMOOTH"
);
}
);
};
layerId = "A3B50665-EA37-4AC6-885C-1233CA61B6BD";
paths = (
{
closed = 1;
nodes = (
"160 -200 LINE",
"160 -8 LINE SMOOTH",
"160 19 OFFCURVE",
"159 56 OFFCURVE",
"157 83 CURVE",
"146 81 LINE",
"163 29 OFFCURVE",
"220 -8 OFFCURVE",
"289 -8 CURVE SMOOTH",
"434 -8 OFFCURVE",
"535 111 OFFCURVE",
"535 282 CURVE SMOOTH",
"535 414 OFFCURVE",
"466 507 OFFCURVE",
"341 507 CURVE SMOOTH",
"246 507 OFFCURVE",
"172 443 OFFCURVE",
"140 339 CURVE",
"156 345 LINE",
"158 373 OFFCURVE",
"160 401 OFFCURVE",
"160 429 CURVE SMOOTH",
"160 498 LINE",
"82 498 LINE",
"82 -200 LINE"
);
},
{
closed = 1;
nodes = (
"208 63 OFFCURVE",
"159 119 OFFCURVE",
"159 212 CURVE SMOOTH",
"159 339 OFFCURVE",
"234 435 OFFCURVE",
"331 435 CURVE SMOOTH",
"407 435 OFFCURVE",
"454 376 OFFCURVE",
"454 276 CURVE SMOOTH",
"454 148 OFFCURVE",
"389 63 OFFCURVE",
"289 63 CURVE SMOOTH"
);
}
);
width = 592;
},
{
background = {
paths = (
{
closed = 1;
nodes = (
"212 -190 LINE",
"212 84 LINE",
"175 64 LINE",
"195 21 OFFCURVE",
"256 -10 OFFCURVE",
"327 -10 CURVE SMOOTH",
"467 -10 OFFCURVE",
"584 101 OFFCURVE",
"584 283 CURVE SMOOTH",
"584 425 OFFCURVE",
"501 516 OFFCURVE",
"373 516 CURVE SMOOTH",
"274 516 OFFCURVE",
"198 457 OFFCURVE",
"166 351 CURVE",
"211 351 LINE",
"211 508 LINE",
"66 508 LINE",
"66 -190 LINE"
);
},
{
closed = 1;
nodes = (
"247 118 OFFCURVE",
"212 159 OFFCURVE",
"212 228 CURVE SMOOTH",
"212 319 OFFCURVE",
"265 388 OFFCURVE",
"335 388 CURVE SMOOTH",
"394 388 OFFCURVE",
"429 344 OFFCURVE",
"429 270 CURVE SMOOTH",
"429 178 OFFCURVE",
"381 118 OFFCURVE",
"308 118 CURVE SMOOTH"
);
}
);
};
layerId = "014D4A40-7C7F-4023-B30E-1F55CE5EA091";
paths = (
{
closed = 1;
nodes = (
"212 -200 LINE",
"212 -43 LINE SMOOTH",
"212 -1 OFFCURVE",
"208 52 OFFCURVE",
"205 84 CURVE",
"175 70 LINE",
"199 23 OFFCURVE",
"254 -10 OFFCURVE",
"325 -10 CURVE SMOOTH",
"477 -10 OFFCURVE",
"590 108 OFFCURVE",
"590 283 CURVE SMOOTH",
"590 418 OFFCURVE",
"519 516 OFFCURVE",
"379 516 CURVE SMOOTH",
"277 516 OFFCURVE",
"205 457 OFFCURVE",
"175 351 CURVE",
"206 351 LINE",
"209 379 OFFCURVE",
"212 439 OFFCURVE",
"212 477 CURVE SMOOTH",
"212 508 LINE",
"66 508 LINE",
"66 -200 LINE"
);
},
{
closed = 1;
nodes = (
"250 117 OFFCURVE",
"212 159 OFFCURVE",
"212 228 CURVE SMOOTH",
"212 319 OFFCURVE",
"268 388 OFFCURVE",
"341 388 CURVE SMOOTH",
"399 388 OFFCURVE",
"435 346 OFFCURVE",
"435 272 CURVE SMOOTH",
"435 181 OFFCURVE",
"387 117 OFFCURVE",
"311 117 CURVE SMOOTH"
);
}
);
width = 628;
}
);
note = p;
unicode = 0070;
},
{
glyphname = q;
lastChange = "2019-03-12 13:09:29 +0000";
layers = (
{
background = {
paths = (
{
closed = 1;
nodes = (
"435 498 LINE",
"427 416 LINE",
"434 421 LINE",
"416 472 OFFCURVE",
"358 507 OFFCURVE",
"290 507 CURVE SMOOTH",
"149 507 OFFCURVE",
"52 390 OFFCURVE",
"52 220 CURVE SMOOTH",
"52 81 OFFCURVE",
"129 -8 OFFCURVE",
"248 -8 CURVE SMOOTH",
"340 -8 OFFCURVE",
"413 53 OFFCURVE",
"442 154 CURVE",
"421 155 LINE",
"421 -190 LINE",
"499 -190 LINE",
"499 498 LINE"
);
},
{
closed = 1;
nodes = (
"375 435 OFFCURVE",
"422 379 OFFCURVE",
"422 284 CURVE SMOOTH",
"422 159 OFFCURVE",
"351 64 OFFCURVE",
"258 64 CURVE SMOOTH",
"180 64 OFFCURVE",
"133 124 OFFCURVE",
"133 226 CURVE SMOOTH",
"133 353 OFFCURVE",
"196 435 OFFCURVE",
"294 435 CURVE SMOOTH"
);
}
);
};
layerId = "A3B50665-EA37-4AC6-885C-1233CA61B6BD";
paths = (
{
closed = 1;
nodes = (
"510 -200 LINE",
"510 498 LINE",
"446 498 LINE",
"437 416 LINE",
"446 418 LINE",
"429 470 OFFCURVE",
"372 507 OFFCURVE",
"303 507 CURVE SMOOTH",
"158 507 OFFCURVE",
"57 387 OFFCURVE",
"57 217 CURVE SMOOTH",
"57 85 OFFCURVE",
"126 -8 OFFCURVE",
"251 -8 CURVE SMOOTH",
"346 -8 OFFCURVE",
"420 56 OFFCURVE",
"452 160 CURVE",
"436 154 LINE",
"434 126 OFFCURVE",
"432 98 OFFCURVE",
"432 70 CURVE SMOOTH",
"432 -200 LINE"
);
},
{
closed = 1;
nodes = (
"185 63 OFFCURVE",
"138 122 OFFCURVE",
"138 222 CURVE SMOOTH",
"138 350 OFFCURVE",
"203 435 OFFCURVE",
"303 435 CURVE SMOOTH",
"384 435 OFFCURVE",
"433 379 OFFCURVE",
"433 286 CURVE SMOOTH",
"433 159 OFFCURVE",
"358 63 OFFCURVE",
"261 63 CURVE SMOOTH"
);
}
);
width = 592;
},
{
background = {
paths = (
{
closed = 1;
nodes = (
"451 506 LINE",
"433 422 LINE",
"447 442 LINE",
"427 485 OFFCURVE",
"366 516 OFFCURVE",
"295 516 CURVE SMOOTH",
"155 516 OFFCURVE",
"38 405 OFFCURVE",
"38 223 CURVE SMOOTH",
"38 81 OFFCURVE",
"121 -10 OFFCURVE",
"249 -10 CURVE SMOOTH",
"348 -10 OFFCURVE",
"424 49 OFFCURVE",
"456 155 CURVE",
"410 155 LINE",
"410 -190 LINE",
"556 -190 LINE",
"556 506 LINE"
);
},
{
closed = 1;
nodes = (
"375 388 OFFCURVE",
"410 347 OFFCURVE",
"410 278 CURVE SMOOTH",
"410 187 OFFCURVE",
"357 118 OFFCURVE",
"287 118 CURVE SMOOTH",
"228 118 OFFCURVE",
"193 162 OFFCURVE",
"193 236 CURVE SMOOTH",
"193 328 OFFCURVE",
"241 388 OFFCURVE",
"314 388 CURVE SMOOTH"
);
}
);
};
layerId = "014D4A40-7C7F-4023-B30E-1F55CE5EA091";
paths = (
{
closed = 1;
nodes = (
"562 -200 LINE",
"562 508 LINE",
"457 508 LINE",
"439 424 LINE",
"453 442 LINE",
"429 485 OFFCURVE",
"374 516 OFFCURVE",
"303 516 CURVE SMOOTH",
"151 516 OFFCURVE",
"38 398 OFFCURVE",
"38 223 CURVE SMOOTH",
"38 88 OFFCURVE",
"109 -10 OFFCURVE",
"249 -10 CURVE SMOOTH",
"351 -10 OFFCURVE",
"423 49 OFFCURVE",
"453 155 CURVE",
"422 155 LINE",
"419 127 OFFCURVE",
"416 67 OFFCURVE",
"416 29 CURVE SMOOTH",
"416 -200 LINE"
);
},
{
closed = 1;
nodes = (
"229 117 OFFCURVE",
"193 159 OFFCURVE",
"193 233 CURVE SMOOTH",
"193 324 OFFCURVE",
"241 388 OFFCURVE",
"317 388 CURVE SMOOTH",
"378 388 OFFCURVE",
"416 346 OFFCURVE",
"416 277 CURVE SMOOTH",
"416 186 OFFCURVE",
"360 117 OFFCURVE",
"287 117 CURVE SMOOTH"
);
}
);
width = 628;
}
);
note = q;
unicode = 0071;
},
{
color = 4;
glyphname = r;
lastChange = "2019-03-12 21:13:13 +0000";
layers = (
{
background = {
paths = (
{
closed = 1;
nodes = (
"111 0 LINE",
"122 60 LINE SMOOTH",
"172 345 OFFCURVE",
"282 434 OFFCURVE",
"369 434 CURVE SMOOTH",
"434 434 OFFCURVE",
"459 395 OFFCURVE",
"443 310 CURVE SMOOTH",
"408 125 LINE SMOOTH",
"400 83 OFFCURVE",
"395 42 OFFCURVE",
"395 0 CURVE",
"474 0 LINE",
"474 44 OFFCURVE",
"479 87 OFFCURVE",
"487 131 CURVE SMOOTH",
"523 319 LINE SMOOTH",
"547 443 OFFCURVE",
"498 507 OFFCURVE",
"398 507 CURVE SMOOTH",
"286 507 OFFCURVE",
"191 417 OFFCURVE",
"151 299 CURVE",
"164 324 LINE",
"175 366 OFFCURVE",
"187 440 OFFCURVE",
"191 498 CURVE",
"114 498 LINE",
"110 440 OFFCURVE",
"101 382 OFFCURVE",
"91 324 CURVE SMOOTH",
"34 0 LINE"
);
}
);
};
layerId = "A3B50665-EA37-4AC6-885C-1233CA61B6BD";
paths = (
{
closed = 1;
nodes = (
"421 500 LINE",
"411 504 OFFCURVE",
"394 507 OFFCURVE",
"376 507 CURVE SMOOTH",
"265 507 OFFCURVE",
"188 405 OFFCURVE",
"152 287 CURVE",
"159 286 LINE",
"179 367 OFFCURVE",
"188 428 OFFCURVE",
"194 498 CURVE",
"119 498 LINE",
"115 440 OFFCURVE",
"106 382 OFFCURVE",
"96 324 CURVE SMOOTH",
"39 0 LINE",
"117 0 LINE",
"128 60 LINE SMOOTH",
"181 362 OFFCURVE",
"276 431 OFFCURVE",
"359 431 CURVE SMOOTH",
"374 431 OFFCURVE",
"386 430 OFFCURVE",
"401 425 CURVE"
);
}
);
width = 382;
},
{
background = {
paths = (
{
closed = 1;
nodes = (
"981 507 LINE",
"965 515 OFFCURVE",
"946 516 OFFCURVE",
"927 516 CURVE SMOOTH",
"843 516 OFFCURVE",
"745 456 OFFCURVE",
"694 301 CURVE",
"720 349 LINE",
"733 392 OFFCURVE",
"745 435 OFFCURVE",
"752 478 CURVE SMOOTH",
"757 508 LINE",
"613 508 LINE",
"524 0 LINE",
"670 0 LINE",
"682 70 LINE SMOOTH",
"725 318 OFFCURVE",
"810 375 OFFCURVE",
"883 375 CURVE SMOOTH",
"902 375 OFFCURVE",
"919 372 OFFCURVE",
"931 366 CURVE"
);
},
{
closed = 1;
nodes = (
"169 0 LINE",
"176 40 LINE SMOOTH",
"222 301 OFFCURVE",
"317 381 OFFCURVE",
"385 381 CURVE SMOOTH",
"431 381 OFFCURVE",
"447 349 OFFCURVE",
"432 280 CURVE SMOOTH",
"400 130 LINE SMOOTH",
"391 87 OFFCURVE",
"386 43 OFFCURVE",
"385 0 CURVE",
"535 0 LINE",
"535 46 OFFCURVE",
"541 92 OFFCURVE",
"550 138 CURVE SMOOTH",
"582 301 LINE SMOOTH",
"609 438 OFFCURVE",
"560 516 OFFCURVE",
"450 516 CURVE SMOOTH",
"347 516 OFFCURVE",
"225 440 OFFCURVE",
"184 271 CURVE",
"219 337 LINE",
"237 389 OFFCURVE",
"246 432 OFFCURVE",
"254 508 CURVE",
"109 508 LINE",
"104 462 OFFCURVE",
"97 416 OFFCURVE",
"84 340 CURVE SMOOTH",
"23 0 LINE"
);
}
);
};
layerId = "014D4A40-7C7F-4023-B30E-1F55CE5EA091";
paths = (
{
closed = 1;
nodes = (
"477 509 LINE",
"462 514 OFFCURVE",
"443 516 OFFCURVE",
"429 516 CURVE SMOOTH",
"343 516 OFFCURVE",
"245 456 OFFCURVE",
"191 287 CURVE",
"220 349 LINE",
"236 402 OFFCURVE",
"244 441 OFFCURVE",
"251 508 CURVE",
"109 508 LINE",
"104 462 OFFCURVE",
"97 416 OFFCURVE",
"84 340 CURVE SMOOTH",
"24 0 LINE",
"170 0 LINE",
"179 51 LINE SMOOTH",
"218 275 OFFCURVE",
"281 375 OFFCURVE",
"384 375 CURVE SMOOTH",
"402 375 OFFCURVE",
"420 372 OFFCURVE",
"433 367 CURVE"
);
}
);
width = 438;
}
);
note = r;
unicode = 0072;
},
{
color = 4;
glyphname = s;
lastChange = "2019-03-12 21:13:48 +0000";
layers = (
{
background = {
paths = (
{
closed = 1;
nodes = (
"324 -8 OFFCURVE",
"398 67 OFFCURVE",
"398 151 CURVE SMOOTH",
"398 211 OFFCURVE",
"364 249 OFFCURVE",
"262 275 CURVE SMOOTH",
"189 294 OFFCURVE",
"169 315 OFFCURVE",
"169 353 CURVE SMOOTH",
"169 397 OFFCURVE",
"202 439 OFFCURVE",
"275 439 CURVE SMOOTH",
"330 439 OFFCURVE",
"361 411 OFFCURVE",
"361 362 CURVE",
"431 372 LINE",
"434 455 OFFCURVE",
"372 506 OFFCURVE",
"283 506 CURVE SMOOTH",
"171 506 OFFCURVE",
"91 437 OFFCURVE",
"91 345 CURVE SMOOTH",
"91 272 OFFCURVE",
"130 236 OFFCURVE",
"236 208 CURVE SMOOTH",
"297 192 OFFCURVE",
"319 173 OFFCURVE",
"319 140 CURVE SMOOTH",
"319 86 OFFCURVE",
"267 60 OFFCURVE",
"208 60 CURVE SMOOTH",
"130 60 OFFCURVE",
"97 88 OFFCURVE",
"97 156 CURVE",
"26 146 LINE",
"21 42 OFFCURVE",
"94 -8 OFFCURVE",
"205 -8 CURVE SMOOTH"
);
}
);
};
layerId = "A3B50665-EA37-4AC6-885C-1233CA61B6BD";
paths = (
{
closed = 1;
nodes = (
"339 -8 OFFCURVE",
"415 67 OFFCURVE",
"415 151 CURVE SMOOTH",
"415 211 OFFCURVE",
"381 249 OFFCURVE",
"274 275 CURVE SMOOTH",
"197 294 OFFCURVE",
"173 315 OFFCURVE",
"173 353 CURVE SMOOTH",
"173 397 OFFCURVE",
"208 439 OFFCURVE",
"287 439 CURVE SMOOTH",
"348 439 OFFCURVE",
"380 411 OFFCURVE",
"380 362 CURVE",
"449 372 LINE",
"452 455 OFFCURVE",
"389 506 OFFCURVE",
"296 506 CURVE SMOOTH",
"178 506 OFFCURVE",
"95 437 OFFCURVE",
"95 345 CURVE SMOOTH",
"95 272 OFFCURVE",
"135 236 OFFCURVE",
"246 208 CURVE SMOOTH",
"310 192 OFFCURVE",
"336 173 OFFCURVE",
"336 140 CURVE SMOOTH",
"336 86 OFFCURVE",
"284 60 OFFCURVE",
"220 60 CURVE SMOOTH",
"134 60 OFFCURVE",
"98 88 OFFCURVE",
"97 156 CURVE",
"26 146 LINE",
"21 42 OFFCURVE",
"98 -8 OFFCURVE",
"214 -8 CURVE SMOOTH"
);
}
);
width = 476;
},
{
background = {
paths = (
{
closed = 1;
nodes = (
"343 -10 OFFCURVE",
"430 71 OFFCURVE",
"430 175 CURVE SMOOTH",
"430 234 OFFCURVE",
"394 277 OFFCURVE",
"296 304 CURVE SMOOTH",
"229 322 OFFCURVE",
"215 335 OFFCURVE",
"215 359 CURVE SMOOTH",
"215 383 OFFCURVE",
"237 404 OFFCURVE",
"280 404 CURVE SMOOTH",
"318 404 OFFCURVE",
"340 382 OFFCURVE",
"342 352 CURVE",
"467 374 LINE",
"462 458 OFFCURVE",
"399 516 OFFCURVE",
"296 516 CURVE SMOOTH",
"171 516 OFFCURVE",
"73 446 OFFCURVE",
"73 334 CURVE SMOOTH",
"73 272 OFFCURVE",
"111 224 OFFCURVE",
"206 198 CURVE SMOOTH",
"275 179 OFFCURVE",
"287 168 OFFCURVE",
"287 145 CURVE SMOOTH",
"287 118 OFFCURVE",
"262 103 OFFCURVE",
"216 103 CURVE SMOOTH",
"166 103 OFFCURVE",
"138 129 OFFCURVE",
"136 169 CURVE",
"8 151 LINE",
"13 47 OFFCURVE",
"86 -10 OFFCURVE",
"215 -10 CURVE SMOOTH"
);
}
);
};
layerId = "014D4A40-7C7F-4023-B30E-1F55CE5EA091";
paths = (
{
closed = 1;
nodes = (
"365 -10 OFFCURVE",
"458 67 OFFCURVE",
"458 164 CURVE SMOOTH",
"458 230 OFFCURVE",
"420 280 OFFCURVE",
"315 304 CURVE SMOOTH",
"235 322 OFFCURVE",
"221 335 OFFCURVE",
"221 359 CURVE SMOOTH",
"221 383 OFFCURVE",
"244 404 OFFCURVE",
"297 404 CURVE SMOOTH",
"346 404 OFFCURVE",
"369 382 OFFCURVE",
"372 352 CURVE",
"497 374 LINE",
"492 458 OFFCURVE",
"425 516 OFFCURVE",
"305 516 CURVE SMOOTH",
"182 516 OFFCURVE",
"77 456 OFFCURVE",
"77 339 CURVE SMOOTH",
"77 275 OFFCURVE",
"117 219 OFFCURVE",
"219 198 CURVE SMOOTH",
"300 181 OFFCURVE",
"313 168 OFFCURVE",
"313 145 CURVE SMOOTH",
"313 118 OFFCURVE",
"287 103 OFFCURVE",
"230 103 CURVE SMOOTH",
"168 103 OFFCURVE",
"138 129 OFFCURVE",
"137 169 CURVE",
"8 151 LINE",
"13 47 OFFCURVE",
"91 -10 OFFCURVE",
"229 -10 CURVE SMOOTH"
);
}
);
width = 506;
}
);
note = s;
unicode = 0073;
},
{
glyphname = t;
lastChange = "2019-03-12 13:09:29 +0000";
layers = (
{
background = {
paths = (
{
closed = 1;
nodes = (
"314 -10 OFFCURVE",
"353 1 OFFCURVE",
"384 21 CURVE",
"362 81 LINE",
"332 66 OFFCURVE",
"307 60 OFFCURVE",
"274 60 CURVE SMOOTH",
"206 60 OFFCURVE",
"174 104 OFFCURVE",
"175 180 CURVE SMOOTH",
"179 600 LINE",
"117 600 LINE",
"100 497 LINE",
"98 171 LINE SMOOTH",
"97 59 OFFCURVE",
"156 -10 OFFCURVE",
"273 -10 CURVE SMOOTH"
);
},
{
closed = 1;
nodes = (
"351 432 LINE",
"351 498 LINE",
"12 498 LINE",
"12 432 LINE"
);
}
);
};
layerId = "A3B50665-EA37-4AC6-885C-1233CA61B6BD";
paths = (
{
closed = 1;
nodes = (
"317 -8 OFFCURVE",
"360 3 OFFCURVE",
"389 28 CURVE",
"364 90 LINE",
"334 68 OFFCURVE",
"310 62 OFFCURVE",
"279 62 CURVE SMOOTH",
"211 62 OFFCURVE",
"180 106 OFFCURVE",
"181 172 CURVE SMOOTH",
"185 600 LINE",
"122 600 LINE",
"105 477 LINE",
"103 163 LINE SMOOTH",
"102 61 OFFCURVE",
"159 -8 OFFCURVE",
"275 -8 CURVE SMOOTH"
);
},
{
closed = 1;
nodes = (
"356 432 LINE",
"356 498 LINE",
"17 498 LINE",
"17 432 LINE"
);
}
);
width = 396;
},
{
background = {
paths = (
{
closed = 1;
nodes = (
"357 -10 OFFCURVE",
"407 4 OFFCURVE",
"441 28 CURVE",
"406 144 LINE",
"366 127 OFFCURVE",
"345 121 OFFCURVE",
"318 121 CURVE SMOOTH",
"259 121 OFFCURVE",
"236 151 OFFCURVE",
"237 228 CURVE SMOOTH",
"242 600 LINE",
"116 600 LINE",
"95 508 LINE",
"91 215 LINE SMOOTH",
"89 72 OFFCURVE",
"167 -10 OFFCURVE",
"305 -10 CURVE SMOOTH"
);
},
{
closed = 1;
nodes = (
"402 385 LINE",
"402 508 LINE",
"10 508 LINE",
"10 385 LINE"
);
}
);
};
guideLines = (
{
angle = 268.9258;
position = "{234, 307}";
}
);
layerId = "014D4A40-7C7F-4023-B30E-1F55CE5EA091";
paths = (
{
closed = 1;
nodes = (
"357 -10 OFFCURVE",
"412 4 OFFCURVE",
"442 30 CURVE",
"400 143 LINE",
"371 122 OFFCURVE",
"345 116 OFFCURVE",
"318 116 CURVE SMOOTH",
"263 116 OFFCURVE",
"236 146 OFFCURVE",
"237 207 CURVE SMOOTH",
"242 610 LINE",
"124 610 LINE",
"95 488 LINE",
"91 195 LINE SMOOTH",
"89 62 OFFCURVE",
"169 -10 OFFCURVE",
"301 -10 CURVE SMOOTH"
);
},
{
closed = 1;
nodes = (
"402 387 LINE",
"402 508 LINE",
"10 508 LINE",
"10 387 LINE"
);
}
);
width = 452;
}
);
unicode = 0074;
},
{
color = 4;
glyphname = u;
lastChange = "2019-03-12 21:14:08 +0000";
layers = (
{
background = {
paths = (
{
closed = 1;
nodes = (
"466 498 LINE",
"453 429 LINE SMOOTH",
"403 141 OFFCURVE",
"299 65 OFFCURVE",
"219 65 CURVE SMOOTH",
"154 65 OFFCURVE",
"126 104 OFFCURVE",
"146 209 CURVE SMOOTH",
"199 498 LINE",
"121 498 LINE",
"66 200 LINE SMOOTH",
"40 56 OFFCURVE",
"88 -8 OFFCURVE",
"194 -8 CURVE SMOOTH",
"278 -8 OFFCURVE",
"381 62 OFFCURVE",
"426 194 CURVE",
"414 177 LINE",
"406 141 OFFCURVE",
"396 99 OFFCURVE",
"391 71 CURVE SMOOTH",
"379 0 LINE",
"453 0 LINE",
"541 498 LINE"
);
}
);
};
layerId = "A3B50665-EA37-4AC6-885C-1233CA61B6BD";
paths = (
{
closed = 1;
nodes = (
"471 498 LINE",
"460 438 LINE SMOOTH",
"408 153 OFFCURVE",
"300 64 OFFCURVE",
"217 64 CURVE SMOOTH",
"155 64 OFFCURVE",
"129 100 OFFCURVE",
"144 178 CURVE SMOOTH",
"181 373 LINE SMOOTH",
"189 415 OFFCURVE",
"194 456 OFFCURVE",
"194 498 CURVE",
"115 498 LINE",
"115 454 OFFCURVE",
"110 411 OFFCURVE",
"102 367 CURVE SMOOTH",
"64 169 LINE SMOOTH",
"42 55 OFFCURVE",
"93 -9 OFFCURVE",
"191 -9 CURVE SMOOTH",
"298 -9 OFFCURVE",
"391 81 OFFCURVE",
"431 204 CURVE",
"417 179 LINE",
"407 132 OFFCURVE",
"395 58 OFFCURVE",
"391 0 CURVE",
"466 0 LINE",
"471 58 OFFCURVE",
"479 116 OFFCURVE",
"489 174 CURVE SMOOTH",
"546 498 LINE"
);
}
);
width = 584;
},
{
background = {
paths = (
{
closed = 1;
nodes = (
"462 508 LINE",
"451 446 LINE SMOOTH",
"406 192 OFFCURVE",
"331 125 OFFCURVE",
"258 125 CURVE SMOOTH",
"207 125 OFFCURVE",
"191 155 OFFCURVE",
"207 236 CURVE SMOOTH",
"257 508 LINE",
"111 508 LINE",
"59 225 LINE SMOOTH",
"29 64 OFFCURVE",
"74 -10 OFFCURVE",
"195 -10 CURVE SMOOTH",
"287 -10 OFFCURVE",
"393 57 OFFCURVE",
"439 195 CURVE",
"408 164 LINE",
"397 119 OFFCURVE",
"386 71 OFFCURVE",
"378 30 CURVE SMOOTH",
"373 0 LINE",
"513 0 LINE",
"603 508 LINE"
);
}
);
};
layerId = "014D4A40-7C7F-4023-B30E-1F55CE5EA091";
paths = (
{
closed = 1;
nodes = (
"462 508 LINE",
"455 468 LINE SMOOTH",
"409 204 OFFCURVE",
"315 127 OFFCURVE",
"249 127 CURVE SMOOTH",
"205 127 OFFCURVE",
"190 159 OFFCURVE",
"203 218 CURVE SMOOTH",
"238 378 LINE SMOOTH",
"247 421 OFFCURVE",
"251 465 OFFCURVE",
"252 508 CURVE",
"102 508 LINE",
"102 462 OFFCURVE",
"97 416 OFFCURVE",
"88 370 CURVE SMOOTH",
"51 187 LINE SMOOTH",
"27 70 OFFCURVE",
"76 -8 OFFCURVE",
"184 -8 CURVE SMOOTH",
"285 -8 OFFCURVE",
"405 63 OFFCURVE",
"447 237 CURVE",
"412 171 LINE",
"394 119 OFFCURVE",
"385 76 OFFCURVE",
"377 0 CURVE",
"517 0 LINE",
"522 46 OFFCURVE",
"528 92 OFFCURVE",
"542 168 CURVE SMOOTH",
"603 508 LINE"
);
}
);
width = 626;
}
);
note = u;
unicode = 0075;
},
{
glyphname = v;
lastChange = "2019-03-12 13:09:29 +0000";
layers = (
{
background = {
paths = (
{
closed = 1;
nodes = (
"249 24 LINE",
"277 23 LINE",
"129 498 LINE",
"41 498 LINE",
"200 0 LINE",
"320 0 LINE",
"512 498 LINE",
"428 498 LINE"
);
}
);
};
layerId = "A3B50665-EA37-4AC6-885C-1233CA61B6BD";
paths = (
{
closed = 1;
nodes = (
"254 24 LINE",
"282 23 LINE",
"134 498 LINE",
"48 498 LINE",
"207 0 LINE",
"324 0 LINE",
"516 498 LINE",
"433 498 LINE"
);
}
);
width = 534;
},
{
background = {
paths = (
{
closed = 1;
nodes = (
"270 71 LINE",
"302 70 LINE",
"173 508 LINE",
"15 508 LINE",
"174 0 LINE",
"384 0 LINE",
"570 508 LINE",
"425 508 LINE"
);
}
);
};
guideLines = (
{
angle = 68.7799;
position = "{325, 235}";
}
);
layerId = "014D4A40-7C7F-4023-B30E-1F55CE5EA091";
paths = (
{
closed = 1;
nodes = (
"257 35 LINE",
"312 35 LINE",
"173 508 LINE",
"15 508 LINE",
"174 0 LINE",
"384 0 LINE",
"570 508 LINE",
"425 508 LINE"
);
}
);
width = 556;
}
);
unicode = 0076;
},
{
glyphname = w;
lastChange = "2019-03-12 13:09:29 +0000";
layers = (
{
background = {
paths = (
{
closed = 1;
nodes = (
"597 24 LINE",
"636 23 LINE",
"492 497 LINE",
"408 497 LINE",
"233 24 LINE",
"275 23 LINE",
"133 497 LINE",
"47 497 LINE",
"203 0 LINE",
"299 0 LINE",
"459 427 LINE",
"436 427 LINE",
"568 0 LINE",
"664 0 LINE",
"849 497 LINE",
"766 497 LINE"
);
}
);
};
layerId = "A3B50665-EA37-4AC6-885C-1233CA61B6BD";
paths = (
{
closed = 1;
nodes = (
"602 24 LINE",
"641 23 LINE",
"497 497 LINE",
"413 497 LINE",
"238 24 LINE",
"280 23 LINE",
"138 497 LINE",
"52 497 LINE",
"208 0 LINE",
"304 0 LINE",
"464 427 LINE",
"441 427 LINE",
"573 0 LINE",
"669 0 LINE",
"854 497 LINE",
"771 497 LINE"
);
}
);
width = 876;
},
{
background = {
paths = (
{
closed = 1;
nodes = (
"614 71 LINE",
"654 70 LINE",
"532 508 LINE",
"392 508 LINE",
"249 71 LINE",
"291 70 LINE",
"167 508 LINE",
"18 508 LINE",
"176 0 LINE",
"352 0 LINE",
"467 339 LINE",
"451 339 LINE",
"548 0 LINE",
"724 0 LINE",
"899 508 LINE",
"757 508 LINE"
);
}
);
};
layerId = "014D4A40-7C7F-4023-B30E-1F55CE5EA091";
paths = (
{
closed = 1;
nodes = (
"606 46 LINE",
"661 46 LINE",
"532 508 LINE",
"392 508 LINE",
"241 46 LINE",
"298 46 LINE",
"167 508 LINE",
"18 508 LINE",
"176 0 LINE",
"352 0 LINE",
"467 339 LINE",
"451 339 LINE",
"548 0 LINE",
"724 0 LINE",
"899 508 LINE",
"757 508 LINE"
);
}
);
width = 892;
}
);
unicode = 0077;
},
{
glyphname = x;
lastChange = "2019-03-12 13:09:29 +0000";
layers = (
{
background = {
paths = (
{
closed = 1;
nodes = (
"459 0 LINE",
"103 498 LINE",
"10 498 LINE",
"365 0 LINE"
);
},
{
closed = 1;
nodes = (
"449 498 LINE",
"363 498 LINE",
"0 0 LINE",
"86 0 LINE"
);
}
);
};
layerId = "A3B50665-EA37-4AC6-885C-1233CA61B6BD";
paths = (
{
closed = 1;
nodes = (
"462 0 LINE",
"279 258 LINE",
"236 316 LINE",
"108 498 LINE",
"15 498 LINE",
"190 253 LINE",
"233 195 LINE",
"368 0 LINE"
);
},
{
closed = 1;
nodes = (
"233 195 LINE",
"279 258 LINE",
"454 498 LINE",
"368 498 LINE",
"236 316 LINE",
"190 253 LINE",
"8 0 LINE",
"94 0 LINE"
);
}
);
width = 469;
},
{
background = {
paths = (
{
closed = 1;
nodes = (
"1231 0 LINE",
"867 508 LINE",
"690 508 LINE",
"1053 0 LINE"
);
},
{
closed = 1;
nodes = (
"1219 508 LINE",
"1050 508 LINE",
"675 0 LINE",
"845 0 LINE"
);
},
{
closed = 1;
nodes = (
"150 0 LINE",
"150 70 LINE SMOOTH",
"150 314 OFFCURVE",
"223 381 OFFCURVE",
"290 381 CURVE SMOOTH",
"343 381 OFFCURVE",
"365 341 OFFCURVE",
"365 270 CURVE SMOOTH",
"365 0 LINE",
"511 0 LINE",
"511 281 LINE SMOOTH",
"511 432 OFFCURVE",
"452 516 OFFCURVE",
"329 516 CURVE SMOOTH",
"235 516 OFFCURVE",
"139 449 OFFCURVE",
"117 321 CURVE",
"145 349 LINE",
"148 392 OFFCURVE",
"151 435 OFFCURVE",
"151 478 CURVE SMOOTH",
"151 508 LINE",
"5 508 LINE",
"5 0 LINE"
);
}
);
};
layerId = "014D4A40-7C7F-4023-B30E-1F55CE5EA091";
paths = (
{
closed = 1;
nodes = (
"526 0 LINE",
"339 266 LINE",
"257 381 LINE",
"167 508 LINE",
"-10 508 LINE",
"168 260 LINE",
"251 145 LINE",
"348 0 LINE"
);
},
{
closed = 1;
nodes = (
"251 145 LINE",
"339 266 LINE",
"518 508 LINE",
"349 508 LINE",
"257 381 LINE",
"168 260 LINE",
"-20 0 LINE",
"149 0 LINE"
);
}
);
width = 506;
}
);
unicode = 0078;
},
{
glyphname = y;
lastChange = "2019-03-12 13:09:30 +0000";
layers = (
{
background = {
paths = (
{
closed = 1;
nodes = (
"1119 -210 OFFCURVE",
"1206 -117 OFFCURVE",
"1206 64 CURVE SMOOTH",
"1206 498 LINE",
"1130 498 LINE",
"1130 419 LINE SMOOTH",
"1130 147 OFFCURVE",
"1039 75 OFFCURVE",
"962 75 CURVE SMOOTH",
"890 75 OFFCURVE",
"857 124 OFFCURVE",
"858 229 CURVE SMOOTH",
"860 498 LINE",
"782 498 LINE",
"780 220 LINE SMOOTH",
"779 76 OFFCURVE",
"837 2 OFFCURVE",
"950 2 CURVE SMOOTH",
"1039 2 OFFCURVE",
"1124 72 OFFCURVE",
"1145 199 CURVE",
"1131 156 LINE",
"1131 74 LINE SMOOTH",
"1131 -79 OFFCURVE",
"1077 -139 OFFCURVE",
"953 -139 CURVE SMOOTH",
"902 -139 OFFCURVE",
"849 -127 OFFCURVE",
"803 -106 CURVE",
"783 -176 LINE",
"831 -199 OFFCURVE",
"896 -210 OFFCURVE",
"951 -210 CURVE SMOOTH"
);
},
{
closed = 1;
nodes = (
"429 -210 OFFCURVE",
"518 -117 OFFCURVE",
"518 70 CURVE SMOOTH",
"518 498 LINE",
"454 498 LINE",
"446 416 LINE",
"454 420 LINE",
"438 471 OFFCURVE",
"377 507 OFFCURVE",
"309 507 CURVE SMOOTH",
"163 507 OFFCURVE",
"61 390 OFFCURVE",
"61 223 CURVE SMOOTH",
"61 93 OFFCURVE",
"131 2 OFFCURVE",
"257 2 CURVE SMOOTH",
"353 2 OFFCURVE",
"428 65 OFFCURVE",
"460 167 CURVE",
"445 154 LINE",
"443 126 OFFCURVE",
"441 88 OFFCURVE",
"441 70 CURVE SMOOTH",
"441 -79 OFFCURVE",
"387 -138 OFFCURVE",
"253 -138 CURVE SMOOTH",
"202 -138 OFFCURVE",
"149 -127 OFFCURVE",
"103 -106 CURVE",
"83 -176 LINE",
"131 -199 OFFCURVE",
"196 -210 OFFCURVE",
"251 -210 CURVE SMOOTH"
);
},
{
closed = 1;
nodes = (
"391 436 OFFCURVE",
"441 382 OFFCURVE",
"441 291 CURVE SMOOTH",
"441 167 OFFCURVE",
"365 74 OFFCURVE",
"267 74 CURVE SMOOTH",
"190 74 OFFCURVE",
"142 131 OFFCURVE",
"142 229 CURVE SMOOTH",
"142 353 OFFCURVE",
"208 436 OFFCURVE",
"309 436 CURVE SMOOTH"
);
}
);
};
layerId = "A3B50665-EA37-4AC6-885C-1233CA61B6BD";
paths = (
{
closed = 1;
nodes = (
"422 -210 OFFCURVE",
"507 -117 OFFCURVE",
"507 69 CURVE SMOOTH",
"507 498 LINE",
"432 498 LINE",
"432 439 LINE SMOOTH",
"432 151 OFFCURVE",
"340 75 OFFCURVE",
"259 75 CURVE SMOOTH",
"192 75 OFFCURVE",
"157 114 OFFCURVE",
"158 219 CURVE SMOOTH",
"160 498 LINE",
"82 498 LINE",
"80 210 LINE SMOOTH",
"79 66 OFFCURVE",
"139 2 OFFCURVE",
"247 2 CURVE SMOOTH",
"332 2 OFFCURVE",
"424 72 OFFCURVE",
"446 204 CURVE",
"437 187 LINE",
"435 151 OFFCURVE",
"433 99 OFFCURVE",
"433 64 CURVE SMOOTH",
"433 -79 OFFCURVE",
"382 -138 OFFCURVE",
"255 -138 CURVE SMOOTH",
"206 -138 OFFCURVE",
"153 -127 OFFCURVE",
"108 -106 CURVE",
"88 -176 LINE",
"134 -199 OFFCURVE",
"199 -210 OFFCURVE",
"253 -210 CURVE SMOOTH"
);
}
);
width = 589;
},
{
background = {
paths = (
{
closed = 1;
nodes = (
"1143 -210 OFFCURVE",
"1264 -114 OFFCURVE",
"1264 86 CURVE SMOOTH",
"1264 508 LINE",
"1121 508 LINE",
"1121 445 LINE SMOOTH",
"1121 207 OFFCURVE",
"1051 144 OFFCURVE",
"991 144 CURVE SMOOTH",
"936 144 OFFCURVE",
"912 184 OFFCURVE",
"913 275 CURVE SMOOTH",
"915 508 LINE",
"769 508 LINE",
"767 264 LINE SMOOTH",
"766 93 OFFCURVE",
"827 9 OFFCURVE",
"949 9 CURVE SMOOTH",
"1033 9 OFFCURVE",
"1125 69 OFFCURVE",
"1152 194 CURVE",
"1122 157 LINE",
"1122 79 LINE SMOOTH",
"1122 -38 OFFCURVE",
"1065 -77 OFFCURVE",
"954 -77 CURVE SMOOTH",
"910 -77 OFFCURVE",
"848 -64 OFFCURVE",
"802 -41 CURVE",
"767 -171 LINE",
"821 -199 OFFCURVE",
"890 -210 OFFCURVE",
"952 -210 CURVE SMOOTH"
);
},
{
closed = 1;
nodes = (
"443 -210 OFFCURVE",
"562 -114 OFFCURVE",
"562 96 CURVE SMOOTH",
"562 506 LINE",
"457 506 LINE",
"439 422 LINE",
"453 445 LINE",
"429 486 OFFCURVE",
"373 516 OFFCURVE",
"302 516 CURVE SMOOTH",
"148 516 OFFCURVE",
"34 402 OFFCURVE",
"34 234 CURVE SMOOTH",
"34 103 OFFCURVE",
"106 9 OFFCURVE",
"247 9 CURVE SMOOTH",
"350 9 OFFCURVE",
"423 66 OFFCURVE",
"453 168 CURVE",
"422 145 LINE",
"419 117 OFFCURVE",
"417 74 OFFCURVE",
"417 53 CURVE SMOOTH",
"417 -30 OFFCURVE",
"371 -84 OFFCURVE",
"247 -84 CURVE SMOOTH",
"200 -84 OFFCURVE",
"144 -71 OFFCURVE",
"99 -50 CURVE",
"67 -171 LINE",
"112 -195 OFFCURVE",
"187 -210 OFFCURVE",
"248 -210 CURVE SMOOTH"
);
},
{
closed = 1;
nodes = (
"377 389 OFFCURVE",
"416 350 OFFCURVE",
"416 286 CURVE SMOOTH",
"416 201 OFFCURVE",
"359 137 OFFCURVE",
"285 137 CURVE SMOOTH",
"226 137 OFFCURVE",
"189 176 OFFCURVE",
"189 245 CURVE SMOOTH",
"189 329 OFFCURVE",
"238 389 OFFCURVE",
"315 389 CURVE SMOOTH"
);
}
);
};
guideLines = (
{
angle = 68.7799;
position = "{329, 235}";
}
);
layerId = "014D4A40-7C7F-4023-B30E-1F55CE5EA091";
paths = (
{
closed = 1;
nodes = (
"443 -210 OFFCURVE",
"562 -114 OFFCURVE",
"562 96 CURVE SMOOTH",
"562 508 LINE",
"421 508 LINE",
"421 465 LINE SMOOTH",
"421 211 OFFCURVE",
"357 144 OFFCURVE",
"283 144 CURVE SMOOTH",
"231 144 OFFCURVE",
"209 174 OFFCURVE",
"210 255 CURVE SMOOTH",
"212 508 LINE",
"66 508 LINE",
"64 244 LINE SMOOTH",
"63 83 OFFCURVE",
"122 9 OFFCURVE",
"244 9 CURVE SMOOTH",
"337 9 OFFCURVE",
"432 76 OFFCURVE",
"454 214 CURVE",
"427 183 LINE",
"424 138 OFFCURVE",
"421 100 OFFCURVE",
"421 79 CURVE SMOOTH",
"421 -30 OFFCURVE",
"374 -84 OFFCURVE",
"247 -84 CURVE SMOOTH",
"203 -84 OFFCURVE",
"144 -71 OFFCURVE",
"99 -50 CURVE",
"67 -171 LINE",
"112 -195 OFFCURVE",
"187 -210 OFFCURVE",
"248 -210 CURVE SMOOTH"
);
}
);
width = 628;
}
);
unicode = 0079;
},
{
glyphname = z;
lastChange = "2019-03-12 13:09:30 +0000";
layers = (
{
layerId = "A3B50665-EA37-4AC6-885C-1233CA61B6BD";
paths = (
{
closed = 1;
nodes = (
"428 0 LINE",
"428 67 LINE",
"122 67 LINE",
"127 27 LINE",
"430 443 LINE",
"430 498 LINE",
"65 498 LINE",
"65 433 LINE",
"364 433 LINE",
"356 471 LINE",
"53 55 LINE",
"53 0 LINE"
);
}
);
width = 478;
},
{
background = {
paths = (
{
closed = 1;
nodes = (
"463 0 LINE",
"463 121 LINE",
"191 121 LINE",
"196 84 LINE",
"463 403 LINE",
"463 508 LINE",
"56 508 LINE",
"56 387 LINE",
"318 387 LINE",
"310 424 LINE",
"48 110 LINE",
"48 0 LINE"
);
}
);
};
layerId = "014D4A40-7C7F-4023-B30E-1F55CE5EA091";
paths = (
{
closed = 1;
nodes = (
"463 0 LINE",
"463 121 LINE",
"193 121 LINE",
"201 84 LINE",
"463 403 LINE",
"463 508 LINE",
"56 508 LINE",
"56 387 LINE",
"316 387 LINE",
"310 424 LINE",
"48 110 LINE",
"48 0 LINE"
);
}
);
width = 498;
}
);
unicode = 007A;
},
{
color = 3;
export = 0;
glyphname = B.ss01;
lastChange = "2019-03-12 19:46:46 +0000";
layers = (
{
anchors = (
{
name = bottom;
position = "{428, 0}";
},
{
name = top;
position = "{427, 712}";
}
);
background = {
paths = (
{
closed = 1;
nodes = (
"449 0 LINE SMOOTH",
"606 0 OFFCURVE",
"699 74 OFFCURVE",
"699 198 CURVE SMOOTH",
"699 284 OFFCURVE",
"644 349 OFFCURVE",
"561 368 CURVE",
"565 356 LINE",
"645 384 OFFCURVE",
"692 445 OFFCURVE",
"692 522 CURVE SMOOTH",
"692 641 OFFCURVE",
"599 710 OFFCURVE",
"438 710 CURVE SMOOTH",
"175 710 LINE",
"175 0 LINE"
);
},
{
closed = 1;
nodes = (
"258 325 LINE",
"443 325 LINE SMOOTH",
"562 325 OFFCURVE",
"619 284 OFFCURVE",
"619 198 CURVE SMOOTH",
"619 112 OFFCURVE",
"562 71 OFFCURVE",
"443 71 CURVE SMOOTH",
"258 71 LINE"
);
},
{
closed = 1;
nodes = (
"258 640 LINE",
"427 640 LINE SMOOTH",
"550 640 OFFCURVE",
"612 599 OFFCURVE",
"612 518 CURVE SMOOTH",
"612 434 OFFCURVE",
"556 395 OFFCURVE",
"437 395 CURVE SMOOTH",
"258 395 LINE"
);
}
);
};
layerId = "A3B50665-EA37-4AC6-885C-1233CA61B6BD";
paths = (
{
closed = 1;
nodes = (
"449 0 LINE SMOOTH",
"606 0 OFFCURVE",
"699 74 OFFCURVE",
"699 198 CURVE SMOOTH",
"699 284 OFFCURVE",
"643 349 OFFCURVE",
"564 368 CURVE",
"568 356 LINE",
"644 384 OFFCURVE",
"692 445 OFFCURVE",
"692 522 CURVE SMOOTH",
"692 641 OFFCURVE",
"599 710 OFFCURVE",
"438 710 CURVE SMOOTH",
"175 710 LINE",
"175 0 LINE"
);
},
{
closed = 1;
nodes = (
"258 325 LINE",
"443 325 LINE SMOOTH",
"562 325 OFFCURVE",
"619 284 OFFCURVE",
"619 198 CURVE SMOOTH",
"619 112 OFFCURVE",
"562 71 OFFCURVE",
"443 71 CURVE SMOOTH",
"258 71 LINE"
);
},
{
closed = 1;
nodes = (
"258 640 LINE",
"427 640 LINE SMOOTH",
"550 640 OFFCURVE",
"612 598 OFFCURVE",
"612 517 CURVE SMOOTH",
"612 433 OFFCURVE",
"556 395 OFFCURVE",
"437 395 CURVE SMOOTH",
"258 395 LINE"
);
}
);
width = 754;
},
{
anchors = (
{
name = bottom;
position = "{438, 0}";
},
{
name = top;
position = "{438, 712}";
}
);
background = {
paths = (
{
closed = 1;
nodes = (
"474 0 LINE SMOOTH",
"632 0 OFFCURVE",
"734 84 OFFCURVE",
"734 207 CURVE SMOOTH",
"734 285 OFFCURVE",
"687 344 OFFCURVE",
"630 365 CURVE",
"630 357 LINE",
"686 382 OFFCURVE",
"729 446 OFFCURVE",
"729 513 CURVE SMOOTH",
"729 632 OFFCURVE",
"638 710 OFFCURVE",
"478 710 CURVE SMOOTH",
"156 710 LINE",
"156 0 LINE"
);
},
{
closed = 1;
nodes = (
"312 296 LINE",
"455 296 LINE SMOOTH",
"545 296 OFFCURVE",
"578 266 OFFCURVE",
"578 208 CURVE SMOOTH",
"578 151 OFFCURVE",
"532 124 OFFCURVE",
"458 124 CURVE SMOOTH",
"312 124 LINE"
);
},
{
closed = 1;
nodes = (
"312 587 LINE",
"450 587 LINE SMOOTH",
"537 587 OFFCURVE",
"573 555 OFFCURVE",
"573 505 CURVE SMOOTH",
"573 452 OFFCURVE",
"536 420 OFFCURVE",
"462 420 CURVE SMOOTH",
"312 420 LINE"
);
}
);
};
layerId = "014D4A40-7C7F-4023-B30E-1F55CE5EA091";
paths = (
{
closed = 1;
nodes = (
"474 0 LINE SMOOTH",
"632 0 OFFCURVE",
"734 84 OFFCURVE",
"734 207 CURVE SMOOTH",
"734 285 OFFCURVE",
"687 344 OFFCURVE",
"630 365 CURVE",
"630 357 LINE",
"686 382 OFFCURVE",
"729 446 OFFCURVE",
"729 513 CURVE SMOOTH",
"729 632 OFFCURVE",
"638 710 OFFCURVE",
"478 710 CURVE SMOOTH",
"156 710 LINE",
"156 0 LINE"
);
},
{
closed = 1;
nodes = (
"312 296 LINE",
"455 296 LINE SMOOTH",
"545 296 OFFCURVE",
"578 269 OFFCURVE",
"578 208 CURVE SMOOTH",
"578 151 OFFCURVE",
"532 124 OFFCURVE",
"458 124 CURVE SMOOTH",
"312 124 LINE"
);
},
{
closed = 1;
nodes = (
"312 587 LINE",
"450 587 LINE SMOOTH",
"537 587 OFFCURVE",
"573 554 OFFCURVE",
"573 503 CURVE SMOOTH",
"573 451 OFFCURVE",
"536 420 OFFCURVE",
"462 420 CURVE SMOOTH",
"312 420 LINE"
);
}
);
width = 770;
}
);
leftMetricsKey = H;
},
{
color = 3;
export = 0;
glyphname = K.ss01;
lastChange = "2019-03-12 19:46:46 +0000";
layers = (
{
background = {
paths = (
{
closed = 1;
nodes = (
"675 710 LINE",
"570 710 LINE",
"223 360 LINE",
"221 256 LINE"
);
},
{
closed = 1;
nodes = (
"258 0 LINE",
"258 710 LINE",
"175 710 LINE",
"175 0 LINE"
);
},
{
closed = 1;
nodes = (
"653 -6 OFFCURVE",
"687 6 OFFCURVE",
"708 22 CURVE",
"688 83 LINE",
"671 70 OFFCURVE",
"649 66 OFFCURVE",
"628 66 CURVE SMOOTH",
"587 66 OFFCURVE",
"566 80 OFFCURVE",
"530 127 CURVE SMOOTH",
"324 398 LINE",
"268 340 LINE",
"474 69 LINE SMOOTH",
"513 18 OFFCURVE",
"554 -6 OFFCURVE",
"616 -6 CURVE SMOOTH"
);
}
);
};
guideLines = (
{
angle = 225.5093;
position = "{343, 483}";
}
);
layerId = "A3B50665-EA37-4AC6-885C-1233CA61B6BD";
paths = (
{
closed = 1;
nodes = (
"685 710 LINE",
"580 710 LINE",
"233 360 LINE",
"231 256 LINE"
);
},
{
closed = 1;
nodes = (
"258 0 LINE",
"258 710 LINE",
"175 710 LINE",
"175 0 LINE"
);
},
{
closed = 1;
nodes = (
"663 -6 OFFCURVE",
"693 2 OFFCURVE",
"715 18 CURVE",
"697 82 LINE",
"680 72 OFFCURVE",
"661 66 OFFCURVE",
"640 66 CURVE SMOOTH",
"599 66 OFFCURVE",
"573 81 OFFCURVE",
"530 141 CURVE SMOOTH",
"348 398 LINE",
"290 340 LINE",
"472 83 LINE SMOOTH",
"518 18 OFFCURVE",
"567 -6 OFFCURVE",
"626 -6 CURVE SMOOTH"
);
}
);
width = 691;
},
{
background = {
paths = (
{
closed = 1;
nodes = (
"1453 710 LINE",
"1258 710 LINE",
"951 387 LINE",
"942 180 LINE"
);
},
{
closed = 1;
nodes = (
"1012 0 LINE",
"1012 710 LINE",
"856 710 LINE",
"856 0 LINE"
);
},
{
closed = 1;
nodes = (
"1396 -10 OFFCURVE",
"1453 6 OFFCURVE",
"1481 34 CURVE",
"1445 150 LINE",
"1423 133 OFFCURVE",
"1396 125 OFFCURVE",
"1368 125 CURVE SMOOTH",
"1331 125 OFFCURVE",
"1303 141 OFFCURVE",
"1270 188 CURVE SMOOTH",
"1109 417 LINE",
"995 312 LINE",
"1156 83 LINE SMOOTH",
"1201 19 OFFCURVE",
"1254 -10 OFFCURVE",
"1346 -10 CURVE SMOOTH"
);
},
{
closed = 1;
nodes = (
"753 710 LINE",
"558 710 LINE",
"251 387 LINE",
"242 180 LINE"
);
},
{
closed = 1;
nodes = (
"312 0 LINE",
"312 710 LINE",
"156 710 LINE",
"156 0 LINE"
);
},
{
closed = 1;
nodes = (
"690 -10 OFFCURVE",
"747 6 OFFCURVE",
"777 34 CURVE",
"747 150 LINE",
"724 133 OFFCURVE",
"697 125 OFFCURVE",
"669 125 CURVE SMOOTH",
"632 125 OFFCURVE",
"605 141 OFFCURVE",
"574 188 CURVE SMOOTH",
"425 417 LINE",
"306 312 LINE",
"455 83 LINE SMOOTH",
"496 19 OFFCURVE",
"548 -10 OFFCURVE",
"640 -10 CURVE SMOOTH"
);
}
);
};
guideLines = (
{
angle = 46.6112;
position = "{302, 445}";
}
);
layerId = "014D4A40-7C7F-4023-B30E-1F55CE5EA091";
paths = (
{
closed = 1;
nodes = (
"763 710 LINE",
"568 710 LINE",
"261 387 LINE",
"252 180 LINE"
);
},
{
closed = 1;
nodes = (
"312 0 LINE",
"312 710 LINE",
"156 710 LINE",
"156 0 LINE"
);
},
{
closed = 1;
nodes = (
"704 -10 OFFCURVE",
"759 4 OFFCURVE",
"789 27 CURVE",
"757 147 LINE",
"734 132 OFFCURVE",
"710 127 OFFCURVE",
"687 127 CURVE SMOOTH",
"645 127 OFFCURVE",
"609 153 OFFCURVE",
"577 202 CURVE SMOOTH",
"437 417 LINE",
"316 312 LINE",
"456 97 LINE SMOOTH",
"501 28 OFFCURVE",
"564 -10 OFFCURVE",
"654 -10 CURVE SMOOTH"
);
}
);
width = 771;
}
);
leftMetricsKey = H;
},
{
color = 3;
export = 0;
glyphname = R.ss01;
lastChange = "2019-03-12 19:46:46 +0000";
layers = (
{
anchors = (
{
name = bottom;
position = "{428, 0}";
},
{
name = top;
position = "{427, 712}";
}
);
background = {
paths = (
{
closed = 1;
nodes = (
"258 640 LINE",
"411 640 LINE SMOOTH",
"533 640 OFFCURVE",
"596 597 OFFCURVE",
"596 513 CURVE SMOOTH",
"596 427 OFFCURVE",
"540 387 OFFCURVE",
"421 387 CURVE SMOOTH",
"242 387 LINE",
"242 318 LINE",
"422 318 LINE SMOOTH",
"581 318 OFFCURVE",
"676 388 OFFCURVE",
"676 515 CURVE SMOOTH",
"676 638 OFFCURVE",
"581 711 OFFCURVE",
"422 711 CURVE SMOOTH",
"175 711 LINE",
"175 0 LINE",
"258 0 LINE"
);
},
{
closed = 1;
nodes = (
"668 -6 OFFCURVE",
"698 2 OFFCURVE",
"720 18 CURVE",
"702 82 LINE",
"685 72 OFFCURVE",
"666 66 OFFCURVE",
"645 66 CURVE SMOOTH",
"604 66 OFFCURVE",
"576 81 OFFCURVE",
"534 141 CURVE SMOOTH",
"377 363 LINE",
"295 340 LINE",
"477 83 LINE SMOOTH",
"523 18 OFFCURVE",
"572 -6 OFFCURVE",
"631 -6 CURVE SMOOTH"
);
}
);
};
layerId = "A3B50665-EA37-4AC6-885C-1233CA61B6BD";
paths = (
{
closed = 1;
nodes = (
"258 640 LINE",
"411 640 LINE SMOOTH",
"533 640 OFFCURVE",
"596 597 OFFCURVE",
"596 513 CURVE SMOOTH",
"596 427 OFFCURVE",
"540 387 OFFCURVE",
"421 387 CURVE SMOOTH",
"242 387 LINE",
"242 318 LINE",
"422 318 LINE SMOOTH",
"581 318 OFFCURVE",
"676 388 OFFCURVE",
"676 515 CURVE SMOOTH",
"676 638 OFFCURVE",
"581 711 OFFCURVE",
"422 711 CURVE SMOOTH",
"175 711 LINE",
"175 0 LINE",
"258 0 LINE"
);
},
{
closed = 1;
nodes = (
"668 -6 OFFCURVE",
"698 2 OFFCURVE",
"720 18 CURVE",
"702 82 LINE",
"685 72 OFFCURVE",
"666 66 OFFCURVE",
"645 66 CURVE SMOOTH",
"604 66 OFFCURVE",
"575 81 OFFCURVE",
"533 141 CURVE SMOOTH",
"376 363 LINE",
"295 340 LINE",
"477 83 LINE SMOOTH",
"523 18 OFFCURVE",
"572 -6 OFFCURVE",
"631 -6 CURVE SMOOTH"
);
}
);
width = 731;
},
{
anchors = (
{
name = bottom;
position = "{438, 0}";
},
{
name = top;
position = "{438, 712}";
}
);
background = {
paths = (
{
closed = 1;
nodes = (
"312 587 LINE",
"423 587 LINE SMOOTH",
"521 587 OFFCURVE",
"566 559 OFFCURVE",
"566 498 CURVE SMOOTH",
"566 438 OFFCURVE",
"526 407 OFFCURVE",
"450 407 CURVE SMOOTH",
"276 407 LINE",
"276 285 LINE",
"472 285 LINE SMOOTH",
"626 285 OFFCURVE",
"722 368 OFFCURVE",
"722 501 CURVE SMOOTH",
"722 634 OFFCURVE",
"624 710 OFFCURVE",
"451 710 CURVE SMOOTH",
"156 710 LINE",
"156 0 LINE",
"312 0 LINE"
);
},
{
closed = 1;
nodes = (
"704 -10 OFFCURVE",
"759 4 OFFCURVE",
"789 27 CURVE",
"757 147 LINE",
"734 132 OFFCURVE",
"710 127 OFFCURVE",
"687 127 CURVE SMOOTH",
"645 127 OFFCURVE",
"607 153 OFFCURVE",
"575 202 CURVE SMOOTH",
"462 375 LINE",
"316 312 LINE",
"456 97 LINE SMOOTH",
"501 28 OFFCURVE",
"564 -10 OFFCURVE",
"654 -10 CURVE SMOOTH"
);
}
);
};
layerId = "014D4A40-7C7F-4023-B30E-1F55CE5EA091";
paths = (
{
closed = 1;
nodes = (
"312 587 LINE",
"423 587 LINE SMOOTH",
"521 587 OFFCURVE",
"566 559 OFFCURVE",
"566 498 CURVE SMOOTH",
"566 438 OFFCURVE",
"526 407 OFFCURVE",
"450 407 CURVE SMOOTH",
"276 407 LINE",
"276 285 LINE",
"472 285 LINE SMOOTH",
"626 285 OFFCURVE",
"722 368 OFFCURVE",
"722 501 CURVE SMOOTH",
"722 634 OFFCURVE",
"624 710 OFFCURVE",
"451 710 CURVE SMOOTH",
"156 710 LINE",
"156 0 LINE",
"312 0 LINE"
);
},
{
closed = 1;
nodes = (
"704 -10 OFFCURVE",
"759 4 OFFCURVE",
"789 27 CURVE",
"757 147 LINE",
"734 132 OFFCURVE",
"710 127 OFFCURVE",
"687 127 CURVE SMOOTH",
"645 127 OFFCURVE",
"605 153 OFFCURVE",
"573 202 CURVE SMOOTH",
"460 375 LINE",
"316 312 LINE",
"456 97 LINE SMOOTH",
"501 28 OFFCURVE",
"564 -10 OFFCURVE",
"654 -10 CURVE SMOOTH"
);
}
);
width = 767;
}
);
leftMetricsKey = H;
},
{
color = 3;
export = 0;
glyphname = W.ss01;
lastChange = "2019-03-11 16:26:49 +0000";
layers = (
{
background = {
paths = (
{
closed = 1;
nodes = (
"634 24 LINE",
"659 23 LINE",
"510 497 LINE",
"430 497 LINE",
"249 24 LINE",
"278 23 LINE",
"131 497 LINE",
"47 497 LINE",
"208 0 LINE",
"314 0 LINE",
"480 424 LINE",
"457 424 LINE",
"593 0 LINE",
"699 0 LINE",
"890 497 LINE",
"809 497 LINE"
);
}
);
};
layerId = "A3B50665-EA37-4AC6-885C-1233CA61B6BD";
paths = (
{
closed = 1;
nodes = (
"597 24 LINE",
"636 23 LINE",
"492 497 LINE",
"408 497 LINE",
"233 24 LINE",
"275 23 LINE",
"133 497 LINE",
"47 497 LINE",
"203 0 LINE",
"299 0 LINE",
"459 427 LINE",
"436 427 LINE",
"568 0 LINE",
"664 0 LINE",
"849 497 LINE",
"766 497 LINE"
);
}
);
width = 866;
},
{
background = {
paths = (
{
closed = 1;
nodes = (
"692 71 LINE",
"759 70 LINE",
"612 710 LINE",
"427 710 LINE",
"250 71 LINE",
"322 70 LINE",
"171 710 LINE",
"12 710 LINE",
"189 0 LINE",
"366 0 LINE",
"517 541 LINE",
"503 541 LINE",
"629 0 LINE",
"806 0 LINE",
"1009 710 LINE",
"866 710 LINE"
);
}
);
};
layerId = "014D4A40-7C7F-4023-B30E-1F55CE5EA091";
paths = (
{
closed = 1;
nodes = (
"651 71 LINE",
"715 70 LINE",
"592 580 LINE",
"407 580 LINE",
"249 71 LINE",
"324 70 LINE",
"176 710 LINE",
"14 710 LINE",
"188 0 LINE",
"372 0 LINE",
"520 464 LINE",
"472 464 LINE",
"590 0 LINE",
"772 0 LINE",
"978 710 LINE",
"828 710 LINE"
);
}
);
width = 975;
}
);
},
{
color = 3;
export = 0;
glyphname = R.ss02;
lastChange = "2019-03-12 19:46:46 +0000";
layers = (
{
anchors = (
{
name = bottom;
position = "{428, 0}";
},
{
name = top;
position = "{427, 712}";
}
);
background = {
paths = (
{
closed = 1;
nodes = (
"258 640 LINE",
"411 640 LINE SMOOTH",
"533 640 OFFCURVE",
"596 597 OFFCURVE",
"596 513 CURVE SMOOTH",
"596 427 OFFCURVE",
"540 387 OFFCURVE",
"421 387 CURVE SMOOTH",
"242 387 LINE",
"242 318 LINE",
"422 318 LINE SMOOTH",
"581 318 OFFCURVE",
"676 388 OFFCURVE",
"676 515 CURVE SMOOTH",
"676 638 OFFCURVE",
"581 711 OFFCURVE",
"422 711 CURVE SMOOTH",
"175 711 LINE",
"175 0 LINE",
"258 0 LINE"
);
},
{
closed = 1;
nodes = (
"668 -6 OFFCURVE",
"698 2 OFFCURVE",
"720 18 CURVE",
"702 82 LINE",
"685 72 OFFCURVE",
"666 66 OFFCURVE",
"645 66 CURVE SMOOTH",
"604 66 OFFCURVE",
"576 81 OFFCURVE",
"534 141 CURVE SMOOTH",
"377 363 LINE",
"295 340 LINE",
"477 83 LINE SMOOTH",
"523 18 OFFCURVE",
"572 -6 OFFCURVE",
"631 -6 CURVE SMOOTH"
);
}
);
};
layerId = "A3B50665-EA37-4AC6-885C-1233CA61B6BD";
paths = (
{
closed = 1;
nodes = (
"695 72 OFFCURVE",
"676 66 OFFCURVE",
"655 66 CURVE SMOOTH",
"614 66 OFFCURVE",
"585 81 OFFCURVE",
"543 141 CURVE SMOOTH",
"461 258 LINE SMOOTH",
"423 312 OFFCURVE",
"390 331 OFFCURVE",
"345 331 CURVE",
"373 322 LINE",
"432 322 LINE SMOOTH",
"561 322 OFFCURVE",
"676 386 OFFCURVE",
"676 513 CURVE SMOOTH",
"676 636 OFFCURVE",
"581 711 OFFCURVE",
"422 711 CURVE SMOOTH",
"175 711 LINE",
"175 0 LINE",
"258 0 LINE",
"258 640 LINE",
"411 640 LINE SMOOTH",
"533 640 OFFCURVE",
"596 594 OFFCURVE",
"596 510 CURVE SMOOTH",
"596 424 OFFCURVE",
"530 387 OFFCURVE",
"401 387 CURVE SMOOTH",
"242 387 LINE",
"242 319 LINE",
"280 319 LINE SMOOTH",
"307 319 OFFCURVE",
"333 301 OFFCURVE",
"347 282 CURVE SMOOTH",
"487 83 LINE SMOOTH",
"533 18 OFFCURVE",
"582 -6 OFFCURVE",
"641 -6 CURVE SMOOTH",
"678 -6 OFFCURVE",
"708 2 OFFCURVE",
"730 18 CURVE",
"712 82 LINE"
);
}
);
width = 723;
},
{
anchors = (
{
name = bottom;
position = "{438, 0}";
},
{
name = top;
position = "{438, 712}";
}
);
background = {
paths = (
{
closed = 1;
nodes = (
"312 587 LINE",
"423 587 LINE SMOOTH",
"521 587 OFFCURVE",
"566 559 OFFCURVE",
"566 498 CURVE SMOOTH",
"566 438 OFFCURVE",
"526 407 OFFCURVE",
"450 407 CURVE SMOOTH",
"276 407 LINE",
"276 285 LINE",
"472 285 LINE SMOOTH",
"626 285 OFFCURVE",
"722 368 OFFCURVE",
"722 501 CURVE SMOOTH",
"722 634 OFFCURVE",
"624 710 OFFCURVE",
"451 710 CURVE SMOOTH",
"156 710 LINE",
"156 0 LINE",
"312 0 LINE"
);
},
{
closed = 1;
nodes = (
"704 -10 OFFCURVE",
"759 4 OFFCURVE",
"789 27 CURVE",
"757 147 LINE",
"734 132 OFFCURVE",
"710 127 OFFCURVE",
"687 127 CURVE SMOOTH",
"645 127 OFFCURVE",
"605 153 OFFCURVE",
"573 202 CURVE SMOOTH",
"460 375 LINE",
"316 312 LINE",
"456 97 LINE SMOOTH",
"501 28 OFFCURVE",
"564 -10 OFFCURVE",
"654 -10 CURVE SMOOTH"
);
}
);
};
layerId = "014D4A40-7C7F-4023-B30E-1F55CE5EA091";
paths = (
{
closed = 1;
nodes = (
"752 132 OFFCURVE",
"728 127 OFFCURVE",
"705 127 CURVE SMOOTH",
"663 127 OFFCURVE",
"629 146 OFFCURVE",
"595 195 CURVE SMOOTH",
"559 247 LINE SMOOTH",
"529 290 OFFCURVE",
"493 305 OFFCURVE",
"421 305 CURVE",
"427 294 LINE",
"472 294 LINE SMOOTH",
"620 294 OFFCURVE",
"722 375 OFFCURVE",
"722 496 CURVE SMOOTH",
"722 629 OFFCURVE",
"624 710 OFFCURVE",
"451 710 CURVE SMOOTH",
"156 710 LINE",
"156 0 LINE",
"312 0 LINE",
"312 587 LINE",
"423 587 LINE SMOOTH",
"521 587 OFFCURVE",
"566 557 OFFCURVE",
"566 494 CURVE SMOOTH",
"566 436 OFFCURVE",
"525 407 OFFCURVE",
"419 407 CURVE SMOOTH",
"276 407 LINE",
"276 289 LINE",
"301 289 LINE SMOOTH",
"331 289 OFFCURVE",
"355 280 OFFCURVE",
"380 242 CURVE SMOOTH",
"474 97 LINE SMOOTH",
"519 28 OFFCURVE",
"582 -10 OFFCURVE",
"672 -10 CURVE SMOOTH",
"722 -10 OFFCURVE",
"777 4 OFFCURVE",
"807 27 CURVE",
"775 147 LINE"
);
}
);
width = 769;
}
);
leftMetricsKey = H;
},
{
color = 4;
glyphname = e.ss01;
lastChange = "2019-03-12 21:30:51 +0000";
layers = (
{
background = {
paths = (
{
closed = 1;
nodes = (
"347 -8 OFFCURVE",
"416 22 OFFCURVE",
"469 85 CURVE",
"425 134 LINE",
"387 86 OFFCURVE",
"330 64 OFFCURVE",
"280 64 CURVE SMOOTH",
"172 64 OFFCURVE",
"114 123 OFFCURVE",
"133 231 CURVE SMOOTH",
"140 270 LINE SMOOTH",
"156 361 OFFCURVE",
"223 442 OFFCURVE",
"328 442 CURVE SMOOTH",
"411 442 OFFCURVE",
"461 391 OFFCURVE",
"430 272 CURVE",
"452 286 LINE",
"108 286 LINE",
"97 222 LINE",
"489 222 LINE",
"543 410 OFFCURVE",
"467 507 OFFCURVE",
"332 507 CURVE SMOOTH",
"181 507 OFFCURVE",
"84 400 OFFCURVE",
"58 252 CURVE SMOOTH",
"28 85 OFFCURVE",
"119 -8 OFFCURVE",
"267 -8 CURVE SMOOTH"
);
}
);
};
layerId = "A3B50665-EA37-4AC6-885C-1233CA61B6BD";
paths = (
{
closed = 1;
nodes = (
"348 -8 OFFCURVE",
"417 16 OFFCURVE",
"471 82 CURVE",
"427 134 LINE",
"387 86 OFFCURVE",
"330 64 OFFCURVE",
"280 64 CURVE SMOOTH",
"171 64 OFFCURVE",
"114 126 OFFCURVE",
"135 241 CURVE SMOOTH",
"140 270 LINE SMOOTH",
"156 361 OFFCURVE",
"220 442 OFFCURVE",
"324 442 CURVE SMOOTH",
"408 442 OFFCURVE",
"461 391 OFFCURVE",
"430 272 CURVE",
"452 286 LINE",
"108 286 LINE",
"97 222 LINE",
"489 222 LINE",
"543 410 OFFCURVE",
"466 507 OFFCURVE",
"331 507 CURVE SMOOTH",
"158 507 OFFCURVE",
"52 360 OFFCURVE",
"52 195 CURVE SMOOTH",
"52 63 OFFCURVE",
"143 -8 OFFCURVE",
"268 -8 CURVE SMOOTH"
);
}
);
width = 541;
},
{
background = {
paths = (
{
closed = 1;
nodes = (
"365 -10 OFFCURVE",
"434 19 OFFCURVE",
"487 73 CURVE",
"416 166 LINE",
"381 134 OFFCURVE",
"333 117 OFFCURVE",
"296 117 CURVE SMOOTH",
"211 117 OFFCURVE",
"172 163 OFFCURVE",
"182 225 CURVE SMOOTH",
"191 276 LINE SMOOTH",
"206 360 OFFCURVE",
"258 411 OFFCURVE",
"327 411 CURVE SMOOTH",
"388 411 OFFCURVE",
"419 375 OFFCURVE",
"395 284 CURVE",
"430 309 LINE",
"159 309 LINE",
"142 212 LINE",
"505 212 LINE",
"557 387 OFFCURVE",
"504 516 OFFCURVE",
"336 516 CURVE SMOOTH",
"184 516 OFFCURVE",
"66 407 OFFCURVE",
"39 256 CURVE SMOOTH",
"10 90 OFFCURVE",
"103 -10 OFFCURVE",
"267 -10 CURVE SMOOTH"
);
}
);
};
layerId = "014D4A40-7C7F-4023-B30E-1F55CE5EA091";
paths = (
{
closed = 1;
nodes = (
"365 -10 OFFCURVE",
"434 19 OFFCURVE",
"487 73 CURVE",
"416 166 LINE",
"381 134 OFFCURVE",
"333 117 OFFCURVE",
"296 117 CURVE SMOOTH",
"211 117 OFFCURVE",
"172 163 OFFCURVE",
"182 225 CURVE SMOOTH",
"191 276 LINE SMOOTH",
"206 360 OFFCURVE",
"258 411 OFFCURVE",
"327 411 CURVE SMOOTH",
"388 411 OFFCURVE",
"419 375 OFFCURVE",
"395 284 CURVE",
"430 309 LINE",
"159 309 LINE",
"142 212 LINE",
"505 212 LINE",
"557 387 OFFCURVE",
"504 516 OFFCURVE",
"336 516 CURVE SMOOTH",
"164 516 OFFCURVE",
"34 373 OFFCURVE",
"34 198 CURVE SMOOTH",
"34 75 OFFCURVE",
"123 -10 OFFCURVE",
"267 -10 CURVE SMOOTH"
);
}
);
width = 562;
}
);
leftKerningGroup = o;
leftMetricsKey = o;
note = e;
},
{
color = 4;
glyphname = f.ss01;
lastChange = "2019-03-12 22:09:28 +0000";
layers = (
{
background = {
paths = (
{
closed = 1;
nodes = (
"142 0 LINE",
"222 454 LINE",
"227 489 LINE",
"236 540 LINE SMOOTH",
"253 636 OFFCURVE",
"302 683 OFFCURVE",
"370 683 CURVE SMOOTH",
"393 683 OFFCURVE",
"412 678 OFFCURVE",
"426 668 CURVE",
"467 727 LINE",
"447 743 OFFCURVE",
"418 750 OFFCURVE",
"383 750 CURVE SMOOTH",
"271 750 OFFCURVE",
"182 670 OFFCURVE",
"158 532 CURVE SMOOTH",
"64 0 LINE"
);
},
{
closed = 1;
nodes = (
"385 432 LINE",
"397 498 LINE",
"53 498 LINE",
"41 432 LINE"
);
}
);
};
layerId = "A3B50665-EA37-4AC6-885C-1233CA61B6BD";
paths = (
{
closed = 1;
nodes = (
"384 432 LINE",
"396 498 LINE",
"52 498 LINE",
"40 432 LINE"
);
},
{
closed = 1;
nodes = (
"464 726 LINE",
"442 742 OFFCURVE",
"411 750 OFFCURVE",
"374 750 CURVE SMOOTH",
"260 750 OFFCURVE",
"182 673 OFFCURVE",
"159 542 CURVE SMOOTH",
"28 -200 LINE",
"106 -200 LINE",
"221 454 LINE",
"226 489 LINE",
"237 550 LINE SMOOTH",
"253 639 OFFCURVE",
"297 683 OFFCURVE",
"369 683 CURVE SMOOTH",
"393 683 OFFCURVE",
"412 677 OFFCURVE",
"426 667 CURVE"
);
}
);
width = 360;
},
{
background = {
paths = (
{
closed = 1;
nodes = (
"194 0 LINE",
"268 419 LINE",
"278 487 LINE",
"287 539 LINE SMOOTH",
"297 596 OFFCURVE",
"332 627 OFFCURVE",
"380 627 CURVE SMOOTH",
"399 627 OFFCURVE",
"417 621 OFFCURVE",
"428 614 CURVE",
"508 718 LINE",
"487 739 OFFCURVE",
"449 750 OFFCURVE",
"404 750 CURVE SMOOTH",
"274 750 OFFCURVE",
"164 662 OFFCURVE",
"140 525 CURVE SMOOTH",
"48 0 LINE"
);
},
{
closed = 1;
nodes = (
"400 389 LINE",
"422 510 LINE",
"43 510 LINE",
"21 389 LINE"
);
}
);
};
layerId = "014D4A40-7C7F-4023-B30E-1F55CE5EA091";
paths = (
{
closed = 1;
nodes = (
"400 389 LINE",
"422 510 LINE",
"43 510 LINE",
"21 389 LINE"
);
},
{
closed = 1;
nodes = (
"505 717 LINE",
"478 739 OFFCURVE",
"438 750 OFFCURVE",
"391 750 CURVE SMOOTH",
"262 750 OFFCURVE",
"167 673 OFFCURVE",
"143 536 CURVE SMOOTH",
"13 -200 LINE",
"159 -200 LINE",
"268 419 LINE",
"278 487 LINE",
"287 539 LINE SMOOTH",
"297 599 OFFCURVE",
"332 627 OFFCURVE",
"380 627 CURVE SMOOTH",
"399 627 OFFCURVE",
"416 623 OFFCURVE",
"428 614 CURVE"
);
}
);
width = 393;
}
);
},
{
color = 4;
glyphname = s.ss01;
lastChange = "2019-03-12 15:58:09 +0000";
layers = (
{
background = {
paths = (
{
closed = 1;
nodes = (
"876 -8 OFFCURVE",
"965 56 OFFCURVE",
"980 142 CURVE SMOOTH",
"993 215 OFFCURVE",
"954 260 OFFCURVE",
"846 277 CURVE SMOOTH",
"771 289 OFFCURVE",
"745 311 OFFCURVE",
"753 358 CURVE SMOOTH",
"761 406 OFFCURVE",
"806 439 OFFCURVE",
"862 439 CURVE SMOOTH",
"915 439 OFFCURVE",
"944 411 OFFCURVE",
"944 362 CURVE",
"1014 372 LINE",
"1017 458 OFFCURVE",
"963 506 OFFCURVE",
"874 506 CURVE SMOOTH",
"775 506 OFFCURVE",
"691 439 OFFCURVE",
"675 351 CURVE SMOOTH",
"660 271 OFFCURVE",
"700 228 OFFCURVE",
"803 210 CURVE SMOOTH",
"883 196 OFFCURVE",
"909 175 OFFCURVE",
"902 135 CURVE SMOOTH",
"894 90 OFFCURVE",
"850 60 OFFCURVE",
"787 60 CURVE SMOOTH",
"711 60 OFFCURVE",
"677 91 OFFCURVE",
"680 156 CURVE",
"609 146 LINE",
"600 45 OFFCURVE",
"658 -8 OFFCURVE",
"774 -8 CURVE SMOOTH"
);
},
{
closed = 0;
nodes = (
"300 125 LINE"
);
},
{
closed = 1;
nodes = (
"307 -8 OFFCURVE",
"381 71 OFFCURVE",
"381 154 CURVE SMOOTH",
"381 306 OFFCURVE",
"152 243 OFFCURVE",
"152 350 CURVE SMOOTH",
"152 396 OFFCURVE",
"188 439 OFFCURVE",
"258 439 CURVE SMOOTH",
"313 439 OFFCURVE",
"344 411 OFFCURVE",
"344 362 CURVE",
"414 372 LINE",
"417 455 OFFCURVE",
"355 506 OFFCURVE",
"266 506 CURVE SMOOTH",
"154 506 OFFCURVE",
"74 438 OFFCURVE",
"74 341 CURVE SMOOTH",
"74 172 OFFCURVE",
"302 243 OFFCURVE",
"302 142 CURVE SMOOTH",
"302 89 OFFCURVE",
"250 60 OFFCURVE",
"191 60 CURVE SMOOTH",
"113 60 OFFCURVE",
"80 88 OFFCURVE",
"80 156 CURVE",
"9 146 LINE",
"4 42 OFFCURVE",
"77 -8 OFFCURVE",
"188 -8 CURVE SMOOTH"
);
}
);
};
layerId = "A3B50665-EA37-4AC6-885C-1233CA61B6BD";
paths = (
{
closed = 1;
nodes = (
"312 -8 OFFCURVE",
"386 67 OFFCURVE",
"386 151 CURVE SMOOTH",
"386 211 OFFCURVE",
"352 249 OFFCURVE",
"250 275 CURVE SMOOTH",
"177 294 OFFCURVE",
"157 315 OFFCURVE",
"157 353 CURVE SMOOTH",
"157 397 OFFCURVE",
"190 439 OFFCURVE",
"263 439 CURVE SMOOTH",
"318 439 OFFCURVE",
"349 411 OFFCURVE",
"349 362 CURVE",
"419 372 LINE",
"422 455 OFFCURVE",
"360 506 OFFCURVE",
"271 506 CURVE SMOOTH",
"159 506 OFFCURVE",
"79 437 OFFCURVE",
"79 345 CURVE SMOOTH",
"79 272 OFFCURVE",
"118 236 OFFCURVE",
"224 208 CURVE SMOOTH",
"285 192 OFFCURVE",
"307 173 OFFCURVE",
"307 140 CURVE SMOOTH",
"307 86 OFFCURVE",
"255 60 OFFCURVE",
"196 60 CURVE SMOOTH",
"118 60 OFFCURVE",
"85 88 OFFCURVE",
"85 156 CURVE",
"14 146 LINE",
"9 42 OFFCURVE",
"82 -8 OFFCURVE",
"193 -8 CURVE SMOOTH"
);
}
);
width = 436;
},
{
background = {
paths = (
{
closed = 1;
nodes = (
"909 -10 OFFCURVE",
"1006 56 OFFCURVE",
"1024 155 CURVE SMOOTH",
"1038 232 OFFCURVE",
"997 281 OFFCURVE",
"909 302 CURVE SMOOTH",
"828 321 OFFCURVE",
"806 334 OFFCURVE",
"811 361 CURVE SMOOTH",
"815 384 OFFCURVE",
"836 404 OFFCURVE",
"875 404 CURVE SMOOTH",
"913 404 OFFCURVE",
"935 382 OFFCURVE",
"935 352 CURVE",
"1057 372 LINE",
"1063 458 OFFCURVE",
"1004 516 OFFCURVE",
"901 516 CURVE SMOOTH",
"784 516 OFFCURVE",
"686 445 OFFCURVE",
"668 346 CURVE SMOOTH",
"654 269 OFFCURVE",
"695 220 OFFCURVE",
"783 199 CURVE SMOOTH",
"864 180 OFFCURVE",
"886 167 OFFCURVE",
"881 142 CURVE SMOOTH",
"876 117 OFFCURVE",
"853 103 OFFCURVE",
"809 103 CURVE SMOOTH",
"755 103 OFFCURVE",
"727 129 OFFCURVE",
"731 169 CURVE",
"603 151 LINE",
"593 47 OFFCURVE",
"655 -10 OFFCURVE",
"782 -10 CURVE SMOOTH"
);
},
{
closed = 1;
nodes = (
"319 -10 OFFCURVE",
"406 56 OFFCURVE",
"422 145 CURVE SMOOTH",
"436 222 OFFCURVE",
"397 278 OFFCURVE",
"309 302 CURVE SMOOTH",
"228 324 OFFCURVE",
"206 337 OFFCURVE",
"211 366 CURVE SMOOTH",
"215 387 OFFCURVE",
"236 404 OFFCURVE",
"275 404 CURVE SMOOTH",
"313 404 OFFCURVE",
"335 382 OFFCURVE",
"337 352 CURVE",
"459 372 LINE",
"463 458 OFFCURVE",
"400 516 OFFCURVE",
"295 516 CURVE SMOOTH",
"177 516 OFFCURVE",
"88 455 OFFCURVE",
"70 352 CURVE SMOOTH",
"57 279 OFFCURVE",
"95 223 OFFCURVE",
"183 199 CURVE SMOOTH",
"264 177 OFFCURVE",
"286 166 OFFCURVE",
"281 139 CURVE SMOOTH",
"277 116 OFFCURVE",
"253 103 OFFCURVE",
"209 103 CURVE SMOOTH",
"155 103 OFFCURVE",
"127 129 OFFCURVE",
"131 169 CURVE",
"3 151 LINE",
"8 47 OFFCURVE",
"75 -10 OFFCURVE",
"202 -10 CURVE SMOOTH"
);
}
);
};
layerId = "014D4A40-7C7F-4023-B30E-1F55CE5EA091";
paths = (
{
closed = 1;
nodes = (
"338 -10 OFFCURVE",
"425 71 OFFCURVE",
"425 175 CURVE SMOOTH",
"425 234 OFFCURVE",
"389 277 OFFCURVE",
"291 304 CURVE SMOOTH",
"224 322 OFFCURVE",
"210 335 OFFCURVE",
"210 359 CURVE SMOOTH",
"210 383 OFFCURVE",
"232 404 OFFCURVE",
"275 404 CURVE SMOOTH",
"313 404 OFFCURVE",
"335 382 OFFCURVE",
"337 352 CURVE",
"462 374 LINE",
"457 458 OFFCURVE",
"394 516 OFFCURVE",
"291 516 CURVE SMOOTH",
"166 516 OFFCURVE",
"68 446 OFFCURVE",
"68 334 CURVE SMOOTH",
"68 272 OFFCURVE",
"106 224 OFFCURVE",
"201 198 CURVE SMOOTH",
"270 179 OFFCURVE",
"282 168 OFFCURVE",
"282 145 CURVE SMOOTH",
"282 118 OFFCURVE",
"257 103 OFFCURVE",
"211 103 CURVE SMOOTH",
"161 103 OFFCURVE",
"133 129 OFFCURVE",
"131 169 CURVE",
"3 151 LINE",
"8 47 OFFCURVE",
"81 -10 OFFCURVE",
"210 -10 CURVE SMOOTH"
);
}
);
width = 466;
}
);
note = s;
},
{
color = 4;
export = 0;
glyphname = l.ss01;
lastChange = "2019-03-12 08:51:02 +0000";
layers = (
{
background = {
paths = (
{
closed = 1;
nodes = (
"260 -8 OFFCURVE",
"292 2 OFFCURVE",
"312 22 CURVE",
"280 79 LINE",
"269 72 OFFCURVE",
"254 62 OFFCURVE",
"233 62 CURVE SMOOTH",
"198 62 OFFCURVE",
"177 87 OFFCURVE",
"177 133 CURVE SMOOTH",
"177 710 LINE",
"99 710 LINE",
"99 130 LINE SMOOTH",
"99 42 OFFCURVE",
"145 -8 OFFCURVE",
"224 -8 CURVE SMOOTH"
);
}
);
};
layerId = "A3B50665-EA37-4AC6-885C-1233CA61B6BD";
paths = (
{
closed = 1;
nodes = (
"112 0 LINE",
"242 740 LINE",
"164 740 LINE",
"34 0 LINE"
);
}
);
width = 232;
},
{
background = {
paths = (
{
closed = 1;
nodes = (
"865 -10 OFFCURVE",
"908 2 OFFCURVE",
"929 18 CURVE",
"895 129 LINE",
"885 122 OFFCURVE",
"871 117 OFFCURVE",
"855 117 CURVE SMOOTH",
"825 117 OFFCURVE",
"812 137 OFFCURVE",
"812 162 CURVE SMOOTH",
"812 710 LINE",
"666 709 LINE",
"666 139 LINE SMOOTH",
"666 51 OFFCURVE",
"722 -10 OFFCURVE",
"821 -10 CURVE SMOOTH"
);
},
{
closed = 1;
nodes = (
"274 -8 OFFCURVE",
"308 2 OFFCURVE",
"326 22 CURVE",
"305 76 LINE",
"294 69 OFFCURVE",
"273 59 OFFCURVE",
"252 59 CURVE SMOOTH",
"217 59 OFFCURVE",
"196 85 OFFCURVE",
"196 134 CURVE SMOOTH",
"196 710 LINE",
"118 710 LINE",
"118 124 LINE SMOOTH",
"118 42 OFFCURVE",
"159 -8 OFFCURVE",
"243 -8 CURVE SMOOTH"
);
}
);
};
layerId = "014D4A40-7C7F-4023-B30E-1F55CE5EA091";
paths = (
{
closed = 1;
nodes = (
"168 0 LINE",
"298 740 LINE",
"152 740 LINE",
"22 0 LINE"
);
}
);
width = 278;
}
);
note = l;
},
{
glyphname = period;
lastChange = "2019-03-12 19:37:44 +0000";
layers = (
{
background = {
paths = (
{
closed = 1;
nodes = (
"0 99 LINE SMOOTH",
"-11 99 OFFCURVE",
"-19 90 OFFCURVE",
"-19 80 CURVE SMOOTH",
"-19 18 LINE SMOOTH",
"-19 9 OFFCURVE",
"-11 0 OFFCURVE",
"0 0 CURVE SMOOTH",
"62 0 LINE SMOOTH",
"72 0 OFFCURVE",
"80 9 OFFCURVE",
"80 18 CURVE SMOOTH",
"80 81 LINE SMOOTH",
"80 90 OFFCURVE",
"72 99 OFFCURVE",
"62 99 CURVE SMOOTH"
);
}
);
};
layerId = "A3B50665-EA37-4AC6-885C-1233CA61B6BD";
paths = (
{
closed = 1;
nodes = (
"83 -8 OFFCURVE",
"103 15 OFFCURVE",
"103 44 CURVE SMOOTH",
"103 73 OFFCURVE",
"83 96 OFFCURVE",
"51 96 CURVE SMOOTH",
"20 96 OFFCURVE",
"-1 73 OFFCURVE",
"-1 44 CURVE SMOOTH",
"-1 15 OFFCURVE",
"20 -8 OFFCURVE",
"51 -8 CURVE SMOOTH"
);
}
);
width = 174;
},
{
background = {
paths = (
{
closed = 1;
nodes = (
"60 154 LINE SMOOTH",
"35 154 OFFCURVE",
"27 138 OFFCURVE",
"27 121 CURVE SMOOTH",
"27 33 LINE SMOOTH",
"27 17 OFFCURVE",
"35 0 OFFCURVE",
"60 0 CURVE SMOOTH",
"148 0 LINE SMOOTH",
"173 0 OFFCURVE",
"181 17 OFFCURVE",
"181 33 CURVE SMOOTH",
"181 129 LINE SMOOTH",
"181 146 OFFCURVE",
"171 154 OFFCURVE",
"146 154 CURVE SMOOTH"
);
}
);
};
layerId = "014D4A40-7C7F-4023-B30E-1F55CE5EA091";
paths = (
{
closed = 1;
nodes = (
"165 -10 OFFCURVE",
"203 32 OFFCURVE",
"203 87 CURVE SMOOTH",
"203 142 OFFCURVE",
"165 184 OFFCURVE",
"104 184 CURVE SMOOTH",
"43 184 OFFCURVE",
"4 142 OFFCURVE",
"4 87 CURVE SMOOTH",
"4 32 OFFCURVE",
"43 -10 OFFCURVE",
"104 -10 CURVE SMOOTH"
);
}
);
width = 266;
}
);
note = period;
rightMetricsKey = "=|";
unicode = 002E;
},
{
glyphname = comma;
lastChange = "2019-03-12 19:46:25 +0000";
layers = (
{
background = {
paths = (
{
closed = 1;
nodes = (
"8 -128 LINE",
"52 -82 OFFCURVE",
"92 -13 OFFCURVE",
"100 33 CURVE SMOOTH",
"107 73 OFFCURVE",
"90 96 OFFCURVE",
"58 96 CURVE SMOOTH",
"29 96 OFFCURVE",
"8 80 OFFCURVE",
"2 48 CURVE SMOOTH",
"-3 17 OFFCURVE",
"9 -8 OFFCURVE",
"3 -47 CURVE SMOOTH",
"-2 -70 OFFCURVE",
"-13 -98 OFFCURVE",
"-30 -128 CURVE"
);
}
);
};
layerId = "A3B50665-EA37-4AC6-885C-1233CA61B6BD";
paths = (
{
closed = 1;
nodes = (
"8 -128 LINE",
"58 -76 OFFCURVE",
"102 6 OFFCURVE",
"102 50 CURVE SMOOTH",
"102 79 OFFCURVE",
"85 96 OFFCURVE",
"58 96 CURVE SMOOTH",
"25 96 OFFCURVE",
"1 75 OFFCURVE",
"1 36 CURVE SMOOTH",
"1 14 OFFCURVE",
"6 -3 OFFCURVE",
"6 -24 CURVE SMOOTH",
"6 -56 OFFCURVE",
"-10 -95 OFFCURVE",
"-30 -128 CURVE"
);
}
);
width = 174;
},
{
background = {
paths = (
{
closed = 1;
nodes = (
"35 -170 LINE",
"116 -101 OFFCURVE",
"187 7 OFFCURVE",
"200 77 CURVE SMOOTH",
"212 144 OFFCURVE",
"176 183 OFFCURVE",
"116 183 CURVE SMOOTH",
"51 183 OFFCURVE",
"18 145 OFFCURVE",
"11 99 CURVE SMOOTH",
"2 43 OFFCURVE",
"27 17 OFFCURVE",
"17 -43 CURVE SMOOTH",
"11 -78 OFFCURVE",
"-8 -119 OFFCURVE",
"-39 -170 CURVE"
);
}
);
};
layerId = "014D4A40-7C7F-4023-B30E-1F55CE5EA091";
paths = (
{
closed = 1;
nodes = (
"35 -170 LINE",
"110 -106 OFFCURVE",
"202 18 OFFCURVE",
"202 102 CURVE SMOOTH",
"202 156 OFFCURVE",
"168 183 OFFCURVE",
"116 183 CURVE SMOOTH",
"40 183 OFFCURVE",
"9 132 OFFCURVE",
"9 78 CURVE SMOOTH",
"9 44 OFFCURVE",
"19 19 OFFCURVE",
"19 -15 CURVE SMOOTH",
"19 -56 OFFCURVE",
"1 -107 OFFCURVE",
"-39 -170 CURVE"
);
}
);
width = 266;
}
);
widthMetricsKey = period;
note = period;
unicode = 002C;
},
